<svg width="241" height="40" viewBox="0 0 241 19" fill="none" xmlns="http://www.w3.org/2000/svg">
<mask id="path-1-outside-1_40_68" maskUnits="userSpaceOnUse" x="-1" y="-1" width="243" height="21" fill="black">
<rect fill="white" x="-1" y="-1" width="243" height="21"/>
<path d="M4.96 1.56C7.42 1.56 9 4.1 9 8.28C9 12.48 7.42 15.02 4.96 15.02C2.52 15.02 0.96 12.48 0.96 8.28C0.96 4.1 2.52 1.56 4.96 1.56ZM4.96 4.06C3.96 4.06 3.38 5.46 3.38 8.28C3.38 11.12 3.96 12.5 4.96 12.5C5.98 12.5 6.56 11.12 6.56 8.28C6.56 5.46 5.98 4.06 4.96 4.06ZM14.18 0.26H16.72V18.78H14.18V0.26ZM11.96 7.32H15.02V9.46H11.96V7.32ZM10.12 0.54H12.62V17.94H10.12V0.54ZM31.9184 0.279999H34.5984V13.58H31.9184V0.279999ZM22.2584 16.34H35.0584V18.46H22.2584V16.34ZM22.2584 12.24H24.9184V17.2H22.2584V12.24ZM24.5184 1.44C27.3584 1.44 29.5384 3.4 29.5384 6.14C29.5384 8.86 27.3584 10.84 24.5184 10.84C21.6784 10.84 19.4784 8.86 19.4784 6.14C19.4784 3.4 21.6784 1.44 24.5184 1.44ZM24.5184 3.74C23.1384 3.74 22.0784 4.62 22.0784 6.14C22.0784 7.64 23.1384 8.52 24.5184 8.52C25.8784 8.52 26.9384 7.64 26.9384 6.14C26.9384 4.62 25.8784 3.74 24.5184 3.74ZM44.9969 7.08H48.0369V9.22H44.9969V7.08ZM50.9769 0.26H53.5169V18.78H50.9769V0.26ZM47.1969 0.54H49.6969V17.94H47.1969V0.54ZM41.7569 1.56C44.2169 1.56 45.7969 4.1 45.7969 8.28C45.7969 12.48 44.2169 15.02 41.7569 15.02C39.3169 15.02 37.7569 12.48 37.7569 8.28C37.7569 4.1 39.3169 1.56 41.7569 1.56ZM41.7569 4.06C40.7569 4.06 40.1769 5.46 40.1769 8.28C40.1769 11.12 40.7569 12.5 41.7569 12.5C42.7969 12.5 43.3769 11.12 43.3769 8.28C43.3769 5.46 42.7969 4.06 41.7569 4.06ZM69.4153 0.26H71.9553V18.78H69.4153V0.26ZM62.0753 7.36H66.0353V9.46H62.0753V7.36ZM65.5153 0.659999H67.9953V17.96H65.5153V0.659999ZM61.4753 2.44H64.0353C64.0353 7.72 62.4553 11.92 57.2553 14.94L55.7553 13.08C59.9753 10.54 61.4753 7.46 61.4753 2.98V2.44ZM56.7953 2.44H62.3153V4.56H56.7953V2.44ZM84.1027 1.54C86.8627 1.54 88.8827 4.1 88.8827 8.14C88.8827 12.22 86.8627 14.78 84.1027 14.78C81.3227 14.78 79.3227 12.22 79.3227 8.14C79.3227 4.1 81.3227 1.54 84.1027 1.54ZM84.1027 3.96C82.7627 3.96 81.8627 5.42 81.8627 8.14C81.8627 10.9 82.7627 12.38 84.1027 12.38C85.4627 12.38 86.3427 10.9 86.3427 8.14C86.3427 5.42 85.4627 3.96 84.1027 3.96ZM91.9227 0.239999H94.5627V18.82H91.9227V0.239999ZM88.1027 6.92H93.0427V9.06H88.1027V6.92ZM100.261 16.34H113.561V18.46H100.261V16.34ZM100.261 12.54H102.941V17.66H100.261V12.54ZM110.461 0.279999H113.101V13.68H110.461V0.279999ZM108.021 5.14H112.741V7.26H108.021V5.14ZM97.6811 8.96H98.6211C100.181 8.96 101.281 8.92 102.641 8.64L102.841 10.78C101.401 11.08 100.281 11.08 98.6211 11.08H97.6811V8.96ZM97.6811 1.66H102.541V3.78H100.301V9.36H97.6811V1.66ZM103.421 8.96H104.421C106.761 8.96 107.781 8.92 108.981 8.62L109.201 10.76C107.921 11.04 106.861 11.08 104.421 11.08H103.421V8.96ZM103.421 1.66H108.561V3.78H106.021V9.34H103.421V1.66ZM117.88 1H129.62V3.1H117.88V1ZM115.84 6.78H132.6V8.88H115.84V6.78ZM128.02 1H130.64V2.26C130.64 3.58 130.64 5.26 130.16 7.4L127.54 7.16C128.02 5.06 128.02 3.56 128.02 2.26V1ZM117.7 10.14H130.58V15.36H120.38V17.24H117.72V13.4H127.94V12.2H117.7V10.14ZM117.72 16.6H131.06V18.66H117.72V16.6ZM142.598 0.519999C146.818 0.519999 149.298 1.64 149.298 3.68C149.298 5.72 146.818 6.84 142.598 6.84C138.358 6.84 135.898 5.72 135.898 3.68C135.898 1.64 138.358 0.519999 142.598 0.519999ZM142.598 2.46C139.918 2.46 138.658 2.86 138.658 3.68C138.658 4.54 139.918 4.9 142.598 4.9C145.278 4.9 146.538 4.54 146.538 3.68C146.538 2.86 145.278 2.46 142.598 2.46ZM134.218 7.7H150.958V9.8H134.218V7.7ZM136.138 10.84H148.938V15.6H138.778V17.24H136.158V13.76H146.318V12.82H136.138V10.84ZM136.158 16.66H149.418V18.66H136.158V16.66ZM160.605 1.58H162.625V3.68C162.625 6.86 161.465 9.94 158.505 11.22L157.145 9.26C159.645 8.16 160.605 5.84 160.605 3.68V1.58ZM161.245 1.58H163.265V3.68C163.265 5.8 164.165 8.22 166.745 9.38L165.605 11.5C162.365 10.16 161.245 6.82 161.245 3.68V1.58ZM167.965 1.58H169.965V3.68C169.965 6.86 168.845 10.18 165.605 11.5L164.485 9.38C167.045 8.24 167.965 5.84 167.965 3.68V1.58ZM168.625 1.58H170.645V3.68C170.645 5.92 171.585 8.18 174.105 9.26L172.725 11.22C169.765 9.96 168.625 6.94 168.625 3.68V1.58ZM157.245 14.34H174.005V16.5H157.245V14.34ZM180.164 1.68H182.324V4.38C182.324 9.14 180.684 13.44 177.004 15.14L175.424 12.94C178.644 11.54 180.164 7.98 180.164 4.38V1.68ZM180.684 1.68H182.844V4.38C182.844 7.8 184.304 11.2 187.464 12.56L185.904 14.7C182.324 13.06 180.684 8.94 180.684 4.38V1.68ZM188.344 0.239999H191.024V18.82H188.344V0.239999ZM207.862 7.26H211.122V9.44H207.862V7.26ZM205.882 0.239999H208.562V18.76H205.882V0.239999ZM194.602 2.02H197.262V13.52H194.602V2.02ZM194.602 12.04H196.202C198.842 12.04 201.702 11.86 204.682 11.26L204.962 13.44C201.902 14.08 198.922 14.24 196.202 14.24H194.602V12.04ZM216.141 9.66H218.781V14.86H216.141V9.66ZM222.861 9.66H225.521V14.86H222.861V9.66ZM212.461 14.48H229.221V16.64H212.461V14.48ZM220.821 1.16C224.801 1.16 227.741 3.12 227.741 6.14C227.741 9.16 224.801 11.1 220.821 11.1C216.821 11.1 213.901 9.16 213.901 6.14C213.901 3.12 216.821 1.16 220.821 1.16ZM220.821 3.24C218.241 3.24 216.521 4.3 216.521 6.14C216.521 7.96 218.241 9.04 220.821 9.04C223.401 9.04 225.121 7.96 225.121 6.14C225.121 4.3 223.401 3.24 220.821 3.24ZM233.846 12.6392V12.3977C233.851 11.5691 233.924 10.9086 234.066 10.4162C234.213 9.92377 234.426 9.52604 234.705 9.22301C234.985 8.91998 235.321 8.64536 235.714 8.39915C236.007 8.20975 236.27 8.01326 236.502 7.80966C236.734 7.60606 236.919 7.38116 237.056 7.13494C237.193 6.884 237.262 6.60464 237.262 6.29688C237.262 5.97017 237.184 5.68371 237.028 5.4375C236.871 5.19129 236.661 5.00189 236.396 4.86932C236.135 4.73674 235.846 4.67045 235.529 4.67045C235.221 4.67045 234.93 4.73911 234.656 4.87642C234.381 5.009 234.156 5.20786 233.981 5.47301C233.806 5.73343 233.711 6.05777 233.697 6.44602H230.799C230.823 5.49905 231.05 4.7178 231.481 4.10227C231.912 3.48201 232.482 3.02036 233.192 2.71733C233.903 2.40956 234.686 2.25568 235.543 2.25568C236.486 2.25568 237.319 2.41193 238.043 2.72443C238.768 3.0322 239.336 3.47964 239.748 4.06676C240.16 4.65388 240.366 5.36174 240.366 6.19034C240.366 6.74432 240.273 7.23674 240.089 7.66761C239.909 8.09375 239.656 8.47254 239.329 8.80398C239.002 9.13068 238.616 9.42661 238.171 9.69176C237.797 9.9143 237.489 10.1463 237.248 10.3878C237.011 10.6293 236.834 10.9086 236.715 11.2259C236.602 11.5431 236.542 11.9337 236.538 12.3977V12.6392H233.846ZM235.252 17.1847C234.779 17.1847 234.374 17.0189 234.038 16.6875C233.706 16.3513 233.543 15.9489 233.548 15.4801C233.543 15.0161 233.706 14.6184 234.038 14.2869C234.374 13.9555 234.779 13.7898 235.252 13.7898C235.702 13.7898 236.097 13.9555 236.438 14.2869C236.779 14.6184 236.952 15.0161 236.957 15.4801C236.952 15.7926 236.869 16.0791 236.708 16.3395C236.552 16.5952 236.346 16.8011 236.09 16.9574C235.835 17.1089 235.555 17.1847 235.252 17.1847Z"/>
</mask>
<path d="M4.96 1.56C7.42 1.56 9 4.1 9 8.28C9 12.48 7.42 15.02 4.96 15.02C2.52 15.02 0.96 12.48 0.96 8.28C0.96 4.1 2.52 1.56 4.96 1.56ZM4.96 4.06C3.96 4.06 3.38 5.46 3.38 8.28C3.38 11.12 3.96 12.5 4.96 12.5C5.98 12.5 6.56 11.12 6.56 8.28C6.56 5.46 5.98 4.06 4.96 4.06ZM14.18 0.26H16.72V18.78H14.18V0.26ZM11.96 7.32H15.02V9.46H11.96V7.32ZM10.12 0.54H12.62V17.94H10.12V0.54ZM31.9184 0.279999H34.5984V13.58H31.9184V0.279999ZM22.2584 16.34H35.0584V18.46H22.2584V16.34ZM22.2584 12.24H24.9184V17.2H22.2584V12.24ZM24.5184 1.44C27.3584 1.44 29.5384 3.4 29.5384 6.14C29.5384 8.86 27.3584 10.84 24.5184 10.84C21.6784 10.84 19.4784 8.86 19.4784 6.14C19.4784 3.4 21.6784 1.44 24.5184 1.44ZM24.5184 3.74C23.1384 3.74 22.0784 4.62 22.0784 6.14C22.0784 7.64 23.1384 8.52 24.5184 8.52C25.8784 8.52 26.9384 7.64 26.9384 6.14C26.9384 4.62 25.8784 3.74 24.5184 3.74ZM44.9969 7.08H48.0369V9.22H44.9969V7.08ZM50.9769 0.26H53.5169V18.78H50.9769V0.26ZM47.1969 0.54H49.6969V17.94H47.1969V0.54ZM41.7569 1.56C44.2169 1.56 45.7969 4.1 45.7969 8.28C45.7969 12.48 44.2169 15.02 41.7569 15.02C39.3169 15.02 37.7569 12.48 37.7569 8.28C37.7569 4.1 39.3169 1.56 41.7569 1.56ZM41.7569 4.06C40.7569 4.06 40.1769 5.46 40.1769 8.28C40.1769 11.12 40.7569 12.5 41.7569 12.5C42.7969 12.5 43.3769 11.12 43.3769 8.28C43.3769 5.46 42.7969 4.06 41.7569 4.06ZM69.4153 0.26H71.9553V18.78H69.4153V0.26ZM62.0753 7.36H66.0353V9.46H62.0753V7.36ZM65.5153 0.659999H67.9953V17.96H65.5153V0.659999ZM61.4753 2.44H64.0353C64.0353 7.72 62.4553 11.92 57.2553 14.94L55.7553 13.08C59.9753 10.54 61.4753 7.46 61.4753 2.98V2.44ZM56.7953 2.44H62.3153V4.56H56.7953V2.44ZM84.1027 1.54C86.8627 1.54 88.8827 4.1 88.8827 8.14C88.8827 12.22 86.8627 14.78 84.1027 14.78C81.3227 14.78 79.3227 12.22 79.3227 8.14C79.3227 4.1 81.3227 1.54 84.1027 1.54ZM84.1027 3.96C82.7627 3.96 81.8627 5.42 81.8627 8.14C81.8627 10.9 82.7627 12.38 84.1027 12.38C85.4627 12.38 86.3427 10.9 86.3427 8.14C86.3427 5.42 85.4627 3.96 84.1027 3.96ZM91.9227 0.239999H94.5627V18.82H91.9227V0.239999ZM88.1027 6.92H93.0427V9.06H88.1027V6.92ZM100.261 16.34H113.561V18.46H100.261V16.34ZM100.261 12.54H102.941V17.66H100.261V12.54ZM110.461 0.279999H113.101V13.68H110.461V0.279999ZM108.021 5.14H112.741V7.26H108.021V5.14ZM97.6811 8.96H98.6211C100.181 8.96 101.281 8.92 102.641 8.64L102.841 10.78C101.401 11.08 100.281 11.08 98.6211 11.08H97.6811V8.96ZM97.6811 1.66H102.541V3.78H100.301V9.36H97.6811V1.66ZM103.421 8.96H104.421C106.761 8.96 107.781 8.92 108.981 8.62L109.201 10.76C107.921 11.04 106.861 11.08 104.421 11.08H103.421V8.96ZM103.421 1.66H108.561V3.78H106.021V9.34H103.421V1.66ZM117.88 1H129.62V3.1H117.88V1ZM115.84 6.78H132.6V8.88H115.84V6.78ZM128.02 1H130.64V2.26C130.64 3.58 130.64 5.26 130.16 7.4L127.54 7.16C128.02 5.06 128.02 3.56 128.02 2.26V1ZM117.7 10.14H130.58V15.36H120.38V17.24H117.72V13.4H127.94V12.2H117.7V10.14ZM117.72 16.6H131.06V18.66H117.72V16.6ZM142.598 0.519999C146.818 0.519999 149.298 1.64 149.298 3.68C149.298 5.72 146.818 6.84 142.598 6.84C138.358 6.84 135.898 5.72 135.898 3.68C135.898 1.64 138.358 0.519999 142.598 0.519999ZM142.598 2.46C139.918 2.46 138.658 2.86 138.658 3.68C138.658 4.54 139.918 4.9 142.598 4.9C145.278 4.9 146.538 4.54 146.538 3.68C146.538 2.86 145.278 2.46 142.598 2.46ZM134.218 7.7H150.958V9.8H134.218V7.7ZM136.138 10.84H148.938V15.6H138.778V17.24H136.158V13.76H146.318V12.82H136.138V10.84ZM136.158 16.66H149.418V18.66H136.158V16.66ZM160.605 1.58H162.625V3.68C162.625 6.86 161.465 9.94 158.505 11.22L157.145 9.26C159.645 8.16 160.605 5.84 160.605 3.68V1.58ZM161.245 1.58H163.265V3.68C163.265 5.8 164.165 8.22 166.745 9.38L165.605 11.5C162.365 10.16 161.245 6.82 161.245 3.68V1.58ZM167.965 1.58H169.965V3.68C169.965 6.86 168.845 10.18 165.605 11.5L164.485 9.38C167.045 8.24 167.965 5.84 167.965 3.68V1.58ZM168.625 1.58H170.645V3.68C170.645 5.92 171.585 8.18 174.105 9.26L172.725 11.22C169.765 9.96 168.625 6.94 168.625 3.68V1.58ZM157.245 14.34H174.005V16.5H157.245V14.34ZM180.164 1.68H182.324V4.38C182.324 9.14 180.684 13.44 177.004 15.14L175.424 12.94C178.644 11.54 180.164 7.98 180.164 4.38V1.68ZM180.684 1.68H182.844V4.38C182.844 7.8 184.304 11.2 187.464 12.56L185.904 14.7C182.324 13.06 180.684 8.94 180.684 4.38V1.68ZM188.344 0.239999H191.024V18.82H188.344V0.239999ZM207.862 7.26H211.122V9.44H207.862V7.26ZM205.882 0.239999H208.562V18.76H205.882V0.239999ZM194.602 2.02H197.262V13.52H194.602V2.02ZM194.602 12.04H196.202C198.842 12.04 201.702 11.86 204.682 11.26L204.962 13.44C201.902 14.08 198.922 14.24 196.202 14.24H194.602V12.04ZM216.141 9.66H218.781V14.86H216.141V9.66ZM222.861 9.66H225.521V14.86H222.861V9.66ZM212.461 14.48H229.221V16.64H212.461V14.48ZM220.821 1.16C224.801 1.16 227.741 3.12 227.741 6.14C227.741 9.16 224.801 11.1 220.821 11.1C216.821 11.1 213.901 9.16 213.901 6.14C213.901 3.12 216.821 1.16 220.821 1.16ZM220.821 3.24C218.241 3.24 216.521 4.3 216.521 6.14C216.521 7.96 218.241 9.04 220.821 9.04C223.401 9.04 225.121 7.96 225.121 6.14C225.121 4.3 223.401 3.24 220.821 3.24ZM233.846 12.6392V12.3977C233.851 11.5691 233.924 10.9086 234.066 10.4162C234.213 9.92377 234.426 9.52604 234.705 9.22301C234.985 8.91998 235.321 8.64536 235.714 8.39915C236.007 8.20975 236.27 8.01326 236.502 7.80966C236.734 7.60606 236.919 7.38116 237.056 7.13494C237.193 6.884 237.262 6.60464 237.262 6.29688C237.262 5.97017 237.184 5.68371 237.028 5.4375C236.871 5.19129 236.661 5.00189 236.396 4.86932C236.135 4.73674 235.846 4.67045 235.529 4.67045C235.221 4.67045 234.93 4.73911 234.656 4.87642C234.381 5.009 234.156 5.20786 233.981 5.47301C233.806 5.73343 233.711 6.05777 233.697 6.44602H230.799C230.823 5.49905 231.05 4.7178 231.481 4.10227C231.912 3.48201 232.482 3.02036 233.192 2.71733C233.903 2.40956 234.686 2.25568 235.543 2.25568C236.486 2.25568 237.319 2.41193 238.043 2.72443C238.768 3.0322 239.336 3.47964 239.748 4.06676C240.16 4.65388 240.366 5.36174 240.366 6.19034C240.366 6.74432 240.273 7.23674 240.089 7.66761C239.909 8.09375 239.656 8.47254 239.329 8.80398C239.002 9.13068 238.616 9.42661 238.171 9.69176C237.797 9.9143 237.489 10.1463 237.248 10.3878C237.011 10.6293 236.834 10.9086 236.715 11.2259C236.602 11.5431 236.542 11.9337 236.538 12.3977V12.6392H233.846ZM235.252 17.1847C234.779 17.1847 234.374 17.0189 234.038 16.6875C233.706 16.3513 233.543 15.9489 233.548 15.4801C233.543 15.0161 233.706 14.6184 234.038 14.2869C234.374 13.9555 234.779 13.7898 235.252 13.7898C235.702 13.7898 236.097 13.9555 236.438 14.2869C236.779 14.6184 236.952 15.0161 236.957 15.4801C236.952 15.7926 236.869 16.0791 236.708 16.3395C236.552 16.5952 236.346 16.8011 236.09 16.9574C235.835 17.1089 235.555 17.1847 235.252 17.1847Z" fill="#B2B2B2"/>
<path d="M14.18 0.26V-0.74H13.18V0.26H14.18ZM16.72 0.26H17.72V-0.74H16.72V0.26ZM16.72 18.78V19.78H17.72V18.78H16.72ZM14.18 18.78H13.18V19.78H14.18V18.78ZM11.96 7.32V6.32H10.96V7.32H11.96ZM15.02 7.32H16.02V6.32H15.02V7.32ZM15.02 9.46V10.46H16.02V9.46H15.02ZM11.96 9.46H10.96V10.46H11.96V9.46ZM10.12 0.54V-0.46H9.12V0.54H10.12ZM12.62 0.54H13.62V-0.46H12.62V0.54ZM12.62 17.94V18.94H13.62V17.94H12.62ZM10.12 17.94H9.12V18.94H10.12V17.94ZM4.96 2.56C5.78421 2.56 6.49516 2.96104 7.04763 3.87133C7.62216 4.81798 8 6.29662 8 8.28H10C10 6.08338 9.58784 4.20202 8.75738 2.83367C7.90484 1.42896 6.59579 0.56 4.96 0.56V2.56ZM8 8.28C8 10.2741 7.62189 11.7579 7.04713 12.707C6.49461 13.6193 5.78388 14.02 4.96 14.02V16.02C6.59612 16.02 7.90539 15.1507 8.75787 13.743C9.58811 12.3721 10 10.4859 10 8.28H8ZM4.96 14.02C4.15059 14.02 3.44977 13.6239 2.90282 12.711C2.33375 11.7612 1.96 10.276 1.96 8.28H-0.04C-0.04 10.484 0.366246 12.3688 1.18718 13.739C2.03023 15.1461 3.32941 16.02 4.96 16.02V14.02ZM1.96 8.28C1.96 6.29476 2.3335 4.81464 2.90233 3.86727C3.44922 2.95643 4.15026 2.56 4.96 2.56V0.56C3.32974 0.56 2.03078 1.43357 1.18767 2.83773C0.366502 4.20536 -0.04 6.08524 -0.04 8.28H1.96ZM4.96 3.06C3.85585 3.06 3.19744 3.87985 2.86157 4.75374C2.52596 5.62695 2.38 6.82704 2.38 8.28H4.38C4.38 6.91296 4.52404 6.00304 4.72843 5.47126C4.8287 5.21038 4.92054 5.10177 4.95982 5.06646C4.97622 5.05171 4.9798 5.05283 4.97037 5.05653C4.96032 5.06047 4.95431 5.06 4.96 5.06V3.06ZM2.38 8.28C2.38 9.74195 2.52573 10.9431 2.862 11.8149C3.20058 12.6927 3.8614 13.5 4.96 13.5V11.5C4.95251 11.5 4.95727 11.4992 4.96669 11.5029C4.97563 11.5063 4.97225 11.5074 4.9565 11.4934C4.91871 11.4597 4.82776 11.3538 4.728 11.0951C4.52427 10.5669 4.38 9.65805 4.38 8.28H2.38ZM4.96 13.5C6.05992 13.5 6.72927 12.7043 7.07438 11.8178C7.41444 10.9442 7.56 9.74137 7.56 8.28H5.56C5.56 9.65863 5.41556 10.5658 5.21062 11.0922C5.11051 11.3494 5.0191 11.4547 4.98038 11.4887C4.96073 11.5059 4.96643 11.5 4.96 11.5V13.5ZM7.56 8.28C7.56 6.82761 7.41421 5.62581 7.07482 4.75085C6.73243 3.86818 6.0655 3.06 4.96 3.06V5.06C4.96253 5.06 4.95602 5.05256 4.97705 5.0712C5.01724 5.10682 5.10956 5.21473 5.21018 5.47415C5.41579 6.00419 5.56 6.91239 5.56 8.28H7.56ZM14.18 1.26H16.72V-0.74H14.18V1.26ZM15.72 0.26V18.78H17.72V0.26H15.72ZM16.72 17.78H14.18V19.78H16.72V17.78ZM15.18 18.78V0.26H13.18V18.78H15.18ZM11.96 8.32H15.02V6.32H11.96V8.32ZM14.02 7.32V9.46H16.02V7.32H14.02ZM15.02 8.46H11.96V10.46H15.02V8.46ZM12.96 9.46V7.32H10.96V9.46H12.96ZM10.12 1.54H12.62V-0.46H10.12V1.54ZM11.62 0.54V17.94H13.62V0.54H11.62ZM12.62 16.94H10.12V18.94H12.62V16.94ZM11.12 17.94V0.54H9.12V17.94H11.12ZM31.9184 0.279999V-0.720001H30.9184V0.279999H31.9184ZM34.5984 0.279999H35.5984V-0.720001H34.5984V0.279999ZM34.5984 13.58V14.58H35.5984V13.58H34.5984ZM31.9184 13.58H30.9184V14.58H31.9184V13.58ZM22.2584 16.34V15.34H21.2584V16.34H22.2584ZM35.0584 16.34H36.0584V15.34H35.0584V16.34ZM35.0584 18.46V19.46H36.0584V18.46H35.0584ZM22.2584 18.46H21.2584V19.46H22.2584V18.46ZM22.2584 12.24V11.24H21.2584V12.24H22.2584ZM24.9184 12.24H25.9184V11.24H24.9184V12.24ZM24.9184 17.2V18.2H25.9184V17.2H24.9184ZM22.2584 17.2H21.2584V18.2H22.2584V17.2ZM31.9184 1.28H34.5984V-0.720001H31.9184V1.28ZM33.5984 0.279999V13.58H35.5984V0.279999H33.5984ZM34.5984 12.58H31.9184V14.58H34.5984V12.58ZM32.9184 13.58V0.279999H30.9184V13.58H32.9184ZM22.2584 17.34H35.0584V15.34H22.2584V17.34ZM34.0584 16.34V18.46H36.0584V16.34H34.0584ZM35.0584 17.46H22.2584V19.46H35.0584V17.46ZM23.2584 18.46V16.34H21.2584V18.46H23.2584ZM22.2584 13.24H24.9184V11.24H22.2584V13.24ZM23.9184 12.24V17.2H25.9184V12.24H23.9184ZM24.9184 16.2H22.2584V18.2H24.9184V16.2ZM23.2584 17.2V12.24H21.2584V17.2H23.2584ZM24.5184 2.44C26.881 2.44 28.5384 4.02426 28.5384 6.14H30.5384C30.5384 2.77573 27.8359 0.439999 24.5184 0.439999V2.44ZM28.5384 6.14C28.5384 8.23844 26.8781 9.84 24.5184 9.84V11.84C27.8388 11.84 30.5384 9.48156 30.5384 6.14H28.5384ZM24.5184 9.84C22.1534 9.84 20.4784 8.23344 20.4784 6.14H18.4784C18.4784 9.48656 21.2035 11.84 24.5184 11.84V9.84ZM20.4784 6.14C20.4784 4.02926 22.1505 2.44 24.5184 2.44V0.439999C21.2064 0.439999 18.4784 2.77074 18.4784 6.14H20.4784ZM24.5184 2.74C23.6177 2.74 22.7493 3.02919 22.0971 3.64033C21.4358 4.26007 21.0784 5.13529 21.0784 6.14H23.0784C23.0784 5.62471 23.251 5.29993 23.4647 5.09967C23.6876 4.8908 24.0392 4.74 24.5184 4.74V2.74ZM21.0784 6.14C21.0784 7.13852 21.4385 8.00868 22.0994 8.62425C22.7507 9.23096 23.6178 9.52 24.5184 9.52V7.52C24.0391 7.52 23.6861 7.36903 23.4625 7.16075C23.2484 6.96132 23.0784 6.64147 23.0784 6.14H21.0784ZM24.5184 9.52C25.4126 9.52 26.2747 9.22881 26.9221 8.6223C27.5786 8.00728 27.9384 7.13833 27.9384 6.14H25.9384C25.9384 6.64167 25.7683 6.96272 25.5548 7.1627C25.3322 7.37119 24.9843 7.52 24.5184 7.52V9.52ZM27.9384 6.14C27.9384 5.13547 27.5813 4.26147 26.9243 3.64229C26.2761 3.03136 25.4127 2.74 24.5184 2.74V4.74C24.9841 4.74 25.3307 4.88864 25.5526 5.09771C25.7656 5.29853 25.9384 5.62453 25.9384 6.14H27.9384ZM44.9969 7.08V6.08H43.9969V7.08H44.9969ZM48.0369 7.08H49.0369V6.08H48.0369V7.08ZM48.0369 9.22V10.22H49.0369V9.22H48.0369ZM44.9969 9.22H43.9969V10.22H44.9969V9.22ZM50.9769 0.26V-0.74H49.9769V0.26H50.9769ZM53.5169 0.26H54.5169V-0.74H53.5169V0.26ZM53.5169 18.78V19.78H54.5169V18.78H53.5169ZM50.9769 18.78H49.9769V19.78H50.9769V18.78ZM47.1969 0.54V-0.46H46.1969V0.54H47.1969ZM49.6969 0.54H50.6969V-0.46H49.6969V0.54ZM49.6969 17.94V18.94H50.6969V17.94H49.6969ZM47.1969 17.94H46.1969V18.94H47.1969V17.94ZM44.9969 8.08H48.0369V6.08H44.9969V8.08ZM47.0369 7.08V9.22H49.0369V7.08H47.0369ZM48.0369 8.22H44.9969V10.22H48.0369V8.22ZM45.9969 9.22V7.08H43.9969V9.22H45.9969ZM50.9769 1.26H53.5169V-0.74H50.9769V1.26ZM52.5169 0.26V18.78H54.5169V0.26H52.5169ZM53.5169 17.78H50.9769V19.78H53.5169V17.78ZM51.9769 18.78V0.26H49.9769V18.78H51.9769ZM47.1969 1.54H49.6969V-0.46H47.1969V1.54ZM48.6969 0.54V17.94H50.6969V0.54H48.6969ZM49.6969 16.94H47.1969V18.94H49.6969V16.94ZM48.1969 17.94V0.54H46.1969V17.94H48.1969ZM41.7569 2.56C42.5811 2.56 43.292 2.96104 43.8445 3.87133C44.419 4.81798 44.7969 6.29662 44.7969 8.28H46.7969C46.7969 6.08338 46.3847 4.20202 45.5543 2.83367C44.7017 1.42896 43.3927 0.56 41.7569 0.56V2.56ZM44.7969 8.28C44.7969 10.2741 44.4188 11.7579 43.844 12.707C43.2915 13.6193 42.5808 14.02 41.7569 14.02V16.02C43.393 16.02 44.7023 15.1507 45.5547 13.743C46.385 12.3721 46.7969 10.4859 46.7969 8.28H44.7969ZM41.7569 14.02C40.9475 14.02 40.2466 13.6239 39.6997 12.711C39.1306 11.7612 38.7569 10.276 38.7569 8.28H36.7569C36.7569 10.484 37.1631 12.3688 37.9841 13.739C38.8271 15.1461 40.1263 16.02 41.7569 16.02V14.02ZM38.7569 8.28C38.7569 6.29476 39.1304 4.81464 39.6992 3.86727C40.2461 2.95643 40.9471 2.56 41.7569 2.56V0.56C40.1266 0.56 38.8277 1.43357 37.9845 2.83773C37.1634 4.20536 36.7569 6.08524 36.7569 8.28H38.7569ZM41.7569 3.06C40.6527 3.06 39.9943 3.87985 39.6584 4.75374C39.3228 5.62695 39.1769 6.82704 39.1769 8.28H41.1769C41.1769 6.91296 41.3209 6.00304 41.5253 5.47126C41.6256 5.21038 41.7174 5.10177 41.7567 5.06646C41.7731 5.05171 41.7767 5.05283 41.7672 5.05653C41.7572 5.06047 41.7512 5.06 41.7569 5.06V3.06ZM39.1769 8.28C39.1769 9.74195 39.3226 10.9431 39.6589 11.8149C39.9975 12.6927 40.6583 13.5 41.7569 13.5V11.5C41.7494 11.5 41.7541 11.4992 41.7636 11.5029C41.7725 11.5063 41.7691 11.5074 41.7534 11.4934C41.7156 11.4597 41.6246 11.3538 41.5249 11.0951C41.3211 10.5669 41.1769 9.65805 41.1769 8.28H39.1769ZM41.7569 13.5C42.8582 13.5 43.5361 12.7156 43.8876 11.8207C44.2315 10.9454 44.3769 9.74079 44.3769 8.28H42.3769C42.3769 9.65921 42.2323 10.5646 42.0261 11.0893C41.9257 11.345 41.8338 11.4497 41.7941 11.4841C41.7731 11.5022 41.7736 11.5 41.7569 11.5V13.5ZM44.3769 8.28C44.3769 6.82818 44.2313 5.62466 43.8881 4.74798C43.5392 3.85681 42.8638 3.06 41.7569 3.06V5.06C41.7698 5.06 41.7685 5.05634 41.7907 5.07582C41.8319 5.1118 41.9247 5.21906 42.0257 5.47702C42.2325 6.00534 42.3769 6.91182 42.3769 8.28H44.3769ZM69.4153 0.26V-0.74H68.4153V0.26H69.4153ZM71.9553 0.26H72.9553V-0.74H71.9553V0.26ZM71.9553 18.78V19.78H72.9553V18.78H71.9553ZM69.4153 18.78H68.4153V19.78H69.4153V18.78ZM62.0753 7.36V6.36H61.0753V7.36H62.0753ZM66.0353 7.36H67.0353V6.36H66.0353V7.36ZM66.0353 9.46V10.46H67.0353V9.46H66.0353ZM62.0753 9.46H61.0753V10.46H62.0753V9.46ZM65.5153 0.659999V-0.340001H64.5153V0.659999H65.5153ZM67.9953 0.659999H68.9953V-0.340001H67.9953V0.659999ZM67.9953 17.96V18.96H68.9953V17.96H67.9953ZM65.5153 17.96H64.5153V18.96H65.5153V17.96ZM61.4753 2.44V1.44H60.4753V2.44H61.4753ZM64.0353 2.44H65.0353V1.44H64.0353V2.44ZM57.2553 14.94L56.4769 15.5678L57.0155 16.2357L57.7575 15.8047L57.2553 14.94ZM55.7553 13.08L55.2396 12.2232L54.2568 12.8148L54.9769 13.7078L55.7553 13.08ZM56.7953 2.44V1.44H55.7953V2.44H56.7953ZM62.3153 2.44H63.3153V1.44H62.3153V2.44ZM62.3153 4.56V5.56H63.3153V4.56H62.3153ZM56.7953 4.56H55.7953V5.56H56.7953V4.56ZM69.4153 1.26H71.9553V-0.74H69.4153V1.26ZM70.9553 0.26V18.78H72.9553V0.26H70.9553ZM71.9553 17.78H69.4153V19.78H71.9553V17.78ZM70.4153 18.78V0.26H68.4153V18.78H70.4153ZM62.0753 8.36H66.0353V6.36H62.0753V8.36ZM65.0353 7.36V9.46H67.0353V7.36H65.0353ZM66.0353 8.46H62.0753V10.46H66.0353V8.46ZM63.0753 9.46V7.36H61.0753V9.46H63.0753ZM65.5153 1.66H67.9953V-0.340001H65.5153V1.66ZM66.9953 0.659999V17.96H68.9953V0.659999H66.9953ZM67.9953 16.96H65.5153V18.96H67.9953V16.96ZM66.5153 17.96V0.659999H64.5153V17.96H66.5153ZM61.4753 3.44H64.0353V1.44H61.4753V3.44ZM63.0353 2.44C63.0353 4.985 62.6538 7.1868 61.7011 9.08986C60.7547 10.9803 59.208 12.6495 56.7531 14.0753L57.7575 15.8047C60.5026 14.2105 62.3459 12.2697 63.4895 9.98514C64.6269 7.7132 65.0353 5.17499 65.0353 2.44H63.0353ZM58.0337 14.3122L56.5337 12.4522L54.9769 13.7078L56.4769 15.5678L58.0337 14.3122ZM56.271 13.9368C58.4914 12.6003 60.0669 11.078 61.0748 9.23794C62.0814 7.40039 62.4753 5.33128 62.4753 2.98H60.4753C60.4753 5.10872 60.1192 6.81961 59.3208 8.27706C58.5238 9.73201 57.2392 11.0197 55.2396 12.2232L56.271 13.9368ZM62.4753 2.98V2.44H60.4753V2.98H62.4753ZM56.7953 3.44H62.3153V1.44H56.7953V3.44ZM61.3153 2.44V4.56H63.3153V2.44H61.3153ZM62.3153 3.56H56.7953V5.56H62.3153V3.56ZM57.7953 4.56V2.44H55.7953V4.56H57.7953ZM91.9227 0.239999V-0.760001H90.9227V0.239999H91.9227ZM94.5627 0.239999H95.5627V-0.760001H94.5627V0.239999ZM94.5627 18.82V19.82H95.5627V18.82H94.5627ZM91.9227 18.82H90.9227V19.82H91.9227V18.82ZM88.1027 6.92V5.92H87.1027V6.92H88.1027ZM93.0427 6.92H94.0427V5.92H93.0427V6.92ZM93.0427 9.06V10.06H94.0427V9.06H93.0427ZM88.1027 9.06H87.1027V10.06H88.1027V9.06ZM84.1027 2.54C85.1409 2.54 86.0477 3.00914 86.7247 3.92106C87.4159 4.85215 87.8827 6.27646 87.8827 8.14H89.8827C89.8827 5.96354 89.3394 4.08785 88.3306 2.72893C87.3076 1.35085 85.8245 0.539999 84.1027 0.539999V2.54ZM87.8827 8.14C87.8827 10.0255 87.415 11.46 86.7235 12.3956C86.0466 13.3113 85.1404 13.78 84.1027 13.78V15.78C85.8249 15.78 87.3087 14.9687 88.3318 13.5844C89.3403 12.22 89.8827 10.3345 89.8827 8.14H87.8827ZM84.1027 13.78C83.0535 13.78 82.1483 13.3101 81.4752 12.3967C80.7863 11.4621 80.3227 10.0277 80.3227 8.14H78.3227C78.3227 10.3323 78.859 12.2179 79.8651 13.5833C80.887 14.9699 82.3719 15.78 84.1027 15.78V13.78ZM80.3227 8.14C80.3227 6.27428 80.7854 4.85013 81.4739 3.91993C82.1472 3.01035 83.053 2.54 84.1027 2.54V0.539999C82.3723 0.539999 80.8881 1.34965 79.8664 2.73007C78.8599 4.08987 78.3227 5.96572 78.3227 8.14H80.3227ZM84.1027 2.96C82.9955 2.96 82.136 3.5923 81.6064 4.54357C81.0987 5.45547 80.8627 6.69174 80.8627 8.14H82.8627C82.8627 6.86826 83.0766 6.01453 83.3539 5.51643C83.6093 5.0577 83.8698 4.96 84.1027 4.96V2.96ZM80.8627 8.14C80.8627 9.60655 81.0982 10.8557 81.6036 11.7762C82.1299 12.7351 82.9884 13.38 84.1027 13.38V11.38C83.8769 11.38 83.6154 11.2849 83.3568 10.8138C83.0771 10.3043 82.8627 9.43345 82.8627 8.14H80.8627ZM84.1027 13.38C85.2238 13.38 86.0846 12.7382 86.6106 11.7739C87.1131 10.8525 87.3427 9.60311 87.3427 8.14H85.3427C85.3427 9.43689 85.1322 10.3075 84.8548 10.8161C84.6008 11.2818 84.3415 11.38 84.1027 11.38V13.38ZM87.3427 8.14C87.3427 6.69524 87.1126 5.45875 86.6077 4.54594C86.0784 3.5892 85.2167 2.96 84.1027 2.96V4.96C84.3486 4.96 84.6069 5.0608 84.8576 5.51406C85.1327 6.01125 85.3427 6.86476 85.3427 8.14H87.3427ZM91.9227 1.24H94.5627V-0.760001H91.9227V1.24ZM93.5627 0.239999V18.82H95.5627V0.239999H93.5627ZM94.5627 17.82H91.9227V19.82H94.5627V17.82ZM92.9227 18.82V0.239999H90.9227V18.82H92.9227ZM88.1027 7.92H93.0427V5.92H88.1027V7.92ZM92.0427 6.92V9.06H94.0427V6.92H92.0427ZM93.0427 8.06H88.1027V10.06H93.0427V8.06ZM89.1027 9.06V6.92H87.1027V9.06H89.1027ZM100.261 16.34V15.34H99.2611V16.34H100.261ZM113.561 16.34H114.561V15.34H113.561V16.34ZM113.561 18.46V19.46H114.561V18.46H113.561ZM100.261 18.46H99.2611V19.46H100.261V18.46ZM100.261 12.54V11.54H99.2611V12.54H100.261ZM102.941 12.54H103.941V11.54H102.941V12.54ZM102.941 17.66V18.66H103.941V17.66H102.941ZM100.261 17.66H99.2611V18.66H100.261V17.66ZM110.461 0.279999V-0.720001H109.461V0.279999H110.461ZM113.101 0.279999H114.101V-0.720001H113.101V0.279999ZM113.101 13.68V14.68H114.101V13.68H113.101ZM110.461 13.68H109.461V14.68H110.461V13.68ZM108.021 5.14V4.14H107.021V5.14H108.021ZM112.741 5.14H113.741V4.14H112.741V5.14ZM112.741 7.26V8.26H113.741V7.26H112.741ZM108.021 7.26H107.021V8.26H108.021V7.26ZM97.6811 8.96V7.96H96.6811V8.96H97.6811ZM102.641 8.64L103.637 8.54695L103.533 7.43542L102.439 7.66054L102.641 8.64ZM102.841 10.78L103.045 11.759L103.92 11.5767L103.837 10.6869L102.841 10.78ZM97.6811 11.08H96.6811V12.08H97.6811V11.08ZM97.6811 1.66V0.66H96.6811V1.66H97.6811ZM102.541 1.66H103.541V0.66H102.541V1.66ZM102.541 3.78V4.78H103.541V3.78H102.541ZM100.301 3.78V2.78H99.3011V3.78H100.301ZM100.301 9.36V10.36H101.301V9.36H100.301ZM97.6811 9.36H96.6811V10.36H97.6811V9.36ZM103.421 8.96V7.96H102.421V8.96H103.421ZM108.981 8.62L109.976 8.51773L109.858 7.37003L108.739 7.64986L108.981 8.62ZM109.201 10.76L109.415 11.7369L110.287 11.5461L110.196 10.6577L109.201 10.76ZM103.421 11.08H102.421V12.08H103.421V11.08ZM103.421 1.66V0.66H102.421V1.66H103.421ZM108.561 1.66H109.561V0.66H108.561V1.66ZM108.561 3.78V4.78H109.561V3.78H108.561ZM106.021 3.78V2.78H105.021V3.78H106.021ZM106.021 9.34V10.34H107.021V9.34H106.021ZM103.421 9.34H102.421V10.34H103.421V9.34ZM100.261 17.34H113.561V15.34H100.261V17.34ZM112.561 16.34V18.46H114.561V16.34H112.561ZM113.561 17.46H100.261V19.46H113.561V17.46ZM101.261 18.46V16.34H99.2611V18.46H101.261ZM100.261 13.54H102.941V11.54H100.261V13.54ZM101.941 12.54V17.66H103.941V12.54H101.941ZM102.941 16.66H100.261V18.66H102.941V16.66ZM101.261 17.66V12.54H99.2611V17.66H101.261ZM110.461 1.28H113.101V-0.720001H110.461V1.28ZM112.101 0.279999V13.68H114.101V0.279999H112.101ZM113.101 12.68H110.461V14.68H113.101V12.68ZM111.461 13.68V0.279999H109.461V13.68H111.461ZM108.021 6.14H112.741V4.14H108.021V6.14ZM111.741 5.14V7.26H113.741V5.14H111.741ZM112.741 6.26H108.021V8.26H112.741V6.26ZM109.021 7.26V5.14H107.021V7.26H109.021ZM97.6811 9.96H98.6211V7.96H97.6811V9.96ZM98.6211 9.96C100.2 9.96 101.382 9.92028 102.843 9.61946L102.439 7.66054C101.181 7.91972 100.162 7.96 98.6211 7.96V9.96ZM101.645 8.73305L101.845 10.8731L103.837 10.6869L103.637 8.54695L101.645 8.73305ZM102.637 9.80102C101.312 10.0772 100.289 10.08 98.6211 10.08V12.08C100.273 12.08 101.491 12.0828 103.045 11.759L102.637 9.80102ZM98.6211 10.08H97.6811V12.08H98.6211V10.08ZM98.6811 11.08V8.96H96.6811V11.08H98.6811ZM97.6811 2.66H102.541V0.66H97.6811V2.66ZM101.541 1.66V3.78H103.541V1.66H101.541ZM102.541 2.78H100.301V4.78H102.541V2.78ZM99.3011 3.78V9.36H101.301V3.78H99.3011ZM100.301 8.36H97.6811V10.36H100.301V8.36ZM98.6811 9.36V1.66H96.6811V9.36H98.6811ZM103.421 9.96H104.421V7.96H103.421V9.96ZM104.421 9.96C106.753 9.96 107.889 9.92379 109.224 9.59014L108.739 7.64986C107.673 7.91621 106.769 7.96 104.421 7.96V9.96ZM107.986 8.72226L108.206 10.8623L110.196 10.6577L109.976 8.51773L107.986 8.72226ZM108.987 9.7831C107.825 10.0374 106.864 10.08 104.421 10.08V12.08C106.858 12.08 108.017 12.0426 109.415 11.7369L108.987 9.7831ZM104.421 10.08H103.421V12.08H104.421V10.08ZM104.421 11.08V8.96H102.421V11.08H104.421ZM103.421 2.66H108.561V0.66H103.421V2.66ZM107.561 1.66V3.78H109.561V1.66H107.561ZM108.561 2.78H106.021V4.78H108.561V2.78ZM105.021 3.78V9.34H107.021V3.78H105.021ZM106.021 8.34H103.421V10.34H106.021V8.34ZM104.421 9.34V1.66H102.421V9.34H104.421ZM117.88 1V-2.38419e-07H116.88V1H117.88ZM129.62 1H130.62V-2.38419e-07H129.62V1ZM129.62 3.1V4.1H130.62V3.1H129.62ZM117.88 3.1H116.88V4.1H117.88V3.1ZM115.84 6.78V5.78H114.84V6.78H115.84ZM132.6 6.78H133.6V5.78H132.6V6.78ZM132.6 8.88V9.88H133.6V8.88H132.6ZM115.84 8.88H114.84V9.88H115.84V8.88ZM128.02 1V-2.38419e-07H127.02V1H128.02ZM130.64 1H131.64V-2.38419e-07H130.64V1ZM130.16 7.4L130.068 8.39583L130.943 8.47596L131.135 7.61886L130.16 7.4ZM127.54 7.16L126.565 6.93718L126.31 8.05155L127.448 8.15583L127.54 7.16ZM117.7 10.14V9.14H116.7V10.14H117.7ZM130.58 10.14H131.58V9.14H130.58V10.14ZM130.58 15.36V16.36H131.58V15.36H130.58ZM120.38 15.36V14.36H119.38V15.36H120.38ZM120.38 17.24V18.24H121.38V17.24H120.38ZM117.72 17.24H116.72V18.24H117.72V17.24ZM117.72 13.4V12.4H116.72V13.4H117.72ZM127.94 13.4V14.4H128.94V13.4H127.94ZM127.94 12.2H128.94V11.2H127.94V12.2ZM117.7 12.2H116.7V13.2H117.7V12.2ZM117.72 16.6V15.6H116.72V16.6H117.72ZM131.06 16.6H132.06V15.6H131.06V16.6ZM131.06 18.66V19.66H132.06V18.66H131.06ZM117.72 18.66H116.72V19.66H117.72V18.66ZM117.88 2H129.62V-2.38419e-07H117.88V2ZM128.62 1V3.1H130.62V1H128.62ZM129.62 2.1H117.88V4.1H129.62V2.1ZM118.88 3.1V1H116.88V3.1H118.88ZM115.84 7.78H132.6V5.78H115.84V7.78ZM131.6 6.78V8.88H133.6V6.78H131.6ZM132.6 7.88H115.84V9.88H132.6V7.88ZM116.84 8.88V6.78H114.84V8.88H116.84ZM128.02 2H130.64V-2.38419e-07H128.02V2ZM129.64 1V2.26H131.64V1H129.64ZM129.64 2.26C129.64 3.56981 129.638 5.15592 129.184 7.18114L131.135 7.61886C131.641 5.36408 131.64 3.59019 131.64 2.26H129.64ZM130.251 6.40417L127.631 6.16417L127.448 8.15583L130.068 8.39583L130.251 6.40417ZM128.514 7.38282C129.02 5.16884 129.02 3.57632 129.02 2.26H127.02C127.02 3.54367 127.019 4.95116 126.565 6.93718L128.514 7.38282ZM129.02 2.26V1H127.02V2.26H129.02ZM117.7 11.14H130.58V9.14H117.7V11.14ZM129.58 10.14V15.36H131.58V10.14H129.58ZM130.58 14.36H120.38V16.36H130.58V14.36ZM119.38 15.36V17.24H121.38V15.36H119.38ZM120.38 16.24H117.72V18.24H120.38V16.24ZM118.72 17.24V13.4H116.72V17.24H118.72ZM117.72 14.4H127.94V12.4H117.72V14.4ZM128.94 13.4V12.2H126.94V13.4H128.94ZM127.94 11.2H117.7V13.2H127.94V11.2ZM118.7 12.2V10.14H116.7V12.2H118.7ZM117.72 17.6H131.06V15.6H117.72V17.6ZM130.06 16.6V18.66H132.06V16.6H130.06ZM131.06 17.66H117.72V19.66H131.06V17.66ZM118.72 18.66V16.6H116.72V18.66H118.72ZM134.218 7.7V6.7H133.218V7.7H134.218ZM150.958 7.7H151.958V6.7H150.958V7.7ZM150.958 9.8V10.8H151.958V9.8H150.958ZM134.218 9.8H133.218V10.8H134.218V9.8ZM136.138 10.84V9.84H135.138V10.84H136.138ZM148.938 10.84H149.938V9.84H148.938V10.84ZM148.938 15.6V16.6H149.938V15.6H148.938ZM138.778 15.6V14.6H137.778V15.6H138.778ZM138.778 17.24V18.24H139.778V17.24H138.778ZM136.158 17.24H135.158V18.24H136.158V17.24ZM136.158 13.76V12.76H135.158V13.76H136.158ZM146.318 13.76V14.76H147.318V13.76H146.318ZM146.318 12.82H147.318V11.82H146.318V12.82ZM136.138 12.82H135.138V13.82H136.138V12.82ZM136.158 16.66V15.66H135.158V16.66H136.158ZM149.418 16.66H150.418V15.66H149.418V16.66ZM149.418 18.66V19.66H150.418V18.66H149.418ZM136.158 18.66H135.158V19.66H136.158V18.66ZM142.598 1.52C144.645 1.52 146.151 1.79534 147.108 2.24133C148.031 2.67155 148.298 3.172 148.298 3.68H150.298C150.298 2.148 149.325 1.06845 147.953 0.428665C146.615 -0.195342 144.771 -0.480001 142.598 -0.480001V1.52ZM148.298 3.68C148.298 4.188 148.031 4.68845 147.108 5.11867C146.151 5.56466 144.645 5.84 142.598 5.84V7.84C144.771 7.84 146.615 7.55534 147.953 6.93133C149.325 6.29155 150.298 5.212 150.298 3.68H148.298ZM142.598 5.84C140.541 5.84 139.035 5.56446 138.081 5.11902C137.164 4.69047 136.898 4.19124 136.898 3.68H134.898C134.898 5.20876 135.862 6.28953 137.235 6.93098C138.571 7.55554 140.415 7.84 142.598 7.84V5.84ZM136.898 3.68C136.898 3.16876 137.164 2.66953 138.081 2.24098C139.035 1.79554 140.541 1.52 142.598 1.52V-0.480001C140.415 -0.480001 138.571 -0.19554 137.235 0.429019C135.862 1.07047 134.898 2.15124 134.898 3.68H136.898ZM142.598 1.46C141.235 1.46 140.125 1.55858 139.326 1.80776C138.924 1.93289 138.521 2.1196 138.206 2.42027C137.863 2.74798 137.658 3.18247 137.658 3.68H139.658C139.658 3.76753 139.611 3.84452 139.587 3.8666C139.587 3.86729 139.606 3.84876 139.663 3.81908C139.719 3.7895 139.802 3.754 139.92 3.71724C140.421 3.56142 141.281 3.46 142.598 3.46V1.46ZM137.658 3.68C137.658 4.17404 137.853 4.61489 138.202 4.95238C138.521 5.26071 138.929 5.4469 139.332 5.56931C140.132 5.81236 141.243 5.9 142.598 5.9V3.9C141.273 3.9 140.414 3.80764 139.914 3.65569C139.796 3.62006 139.715 3.58566 139.66 3.55732C139.606 3.52899 139.589 3.51192 139.592 3.5145C139.621 3.54261 139.658 3.61596 139.658 3.68H137.658ZM142.598 5.9C143.953 5.9 145.064 5.81236 145.864 5.56931C146.267 5.4469 146.675 5.26071 146.994 4.95238C147.343 4.61489 147.538 4.17404 147.538 3.68H145.538C145.538 3.61596 145.575 3.54261 145.604 3.5145C145.607 3.51193 145.59 3.52899 145.535 3.55732C145.481 3.58566 145.4 3.62006 145.282 3.65569C144.782 3.80764 143.923 3.9 142.598 3.9V5.9ZM147.538 3.68C147.538 3.18247 147.333 2.74798 146.99 2.42027C146.675 2.1196 146.272 1.93289 145.87 1.80776C145.071 1.55858 143.961 1.46 142.598 1.46V3.46C143.915 3.46 144.775 3.56142 145.276 3.71724C145.394 3.754 145.477 3.7895 145.533 3.81908C145.59 3.84876 145.609 3.86729 145.609 3.8666C145.585 3.84452 145.538 3.76753 145.538 3.68H147.538ZM134.218 8.7H150.958V6.7H134.218V8.7ZM149.958 7.7V9.8H151.958V7.7H149.958ZM150.958 8.8H134.218V10.8H150.958V8.8ZM135.218 9.8V7.7H133.218V9.8H135.218ZM136.138 11.84H148.938V9.84H136.138V11.84ZM147.938 10.84V15.6H149.938V10.84H147.938ZM148.938 14.6H138.778V16.6H148.938V14.6ZM137.778 15.6V17.24H139.778V15.6H137.778ZM138.778 16.24H136.158V18.24H138.778V16.24ZM137.158 17.24V13.76H135.158V17.24H137.158ZM136.158 14.76H146.318V12.76H136.158V14.76ZM147.318 13.76V12.82H145.318V13.76H147.318ZM146.318 11.82H136.138V13.82H146.318V11.82ZM137.138 12.82V10.84H135.138V12.82H137.138ZM136.158 17.66H149.418V15.66H136.158V17.66ZM148.418 16.66V18.66H150.418V16.66H148.418ZM149.418 17.66H136.158V19.66H149.418V17.66ZM137.158 18.66V16.66H135.158V18.66H137.158ZM160.605 1.58V0.579999H159.605V1.58H160.605ZM162.625 1.58H163.625V0.579999H162.625V1.58ZM158.505 11.22L157.684 11.7901L158.151 12.4629L158.902 12.1379L158.505 11.22ZM157.145 9.26L156.743 8.34468L155.632 8.8333L156.324 9.83008L157.145 9.26ZM161.245 1.58V0.579999H160.245V1.58H161.245ZM163.265 1.58H164.265V0.579999H163.265V1.58ZM166.745 9.38L167.626 9.8536L168.134 8.90815L167.155 8.46795L166.745 9.38ZM165.605 11.5L165.223 12.4241L166.058 12.7694L166.486 11.9736L165.605 11.5ZM167.965 1.58V0.579999H166.965V1.58H167.965ZM169.965 1.58H170.965V0.579999H169.965V1.58ZM165.605 11.5L164.721 11.9671L165.144 12.7677L165.983 12.4261L165.605 11.5ZM164.485 9.38L164.079 8.46648L163.102 8.90153L163.601 9.84712L164.485 9.38ZM168.625 1.58V0.579999H167.625V1.58H168.625ZM170.645 1.58H171.645V0.579999H170.645V1.58ZM174.105 9.26L174.923 9.8357L175.633 8.82687L174.499 8.34085L174.105 9.26ZM172.725 11.22L172.334 12.1401L173.078 12.4568L173.543 11.7957L172.725 11.22ZM157.245 14.34V13.34H156.245V14.34H157.245ZM174.005 14.34H175.005V13.34H174.005V14.34ZM174.005 16.5V17.5H175.005V16.5H174.005ZM157.245 16.5H156.245V17.5H157.245V16.5ZM160.605 2.58H162.625V0.579999H160.605V2.58ZM161.625 1.58V3.68H163.625V1.58H161.625ZM161.625 3.68C161.625 6.66949 160.543 9.24929 158.108 10.3021L158.902 12.1379C162.388 10.6307 163.625 7.05051 163.625 3.68H161.625ZM159.327 10.6499L157.967 8.68992L156.324 9.83008L157.684 11.7901L159.327 10.6499ZM157.548 10.1753C160.505 8.87429 161.605 6.12265 161.605 3.68H159.605C159.605 5.55735 158.786 7.44571 156.743 8.34468L157.548 10.1753ZM161.605 3.68V1.58H159.605V3.68H161.605ZM161.245 2.58H163.265V0.579999H161.245V2.58ZM162.265 1.58V3.68H164.265V1.58H162.265ZM162.265 3.68C162.265 6.05984 163.288 8.92213 166.335 10.2921L167.155 8.46795C165.042 7.51787 164.265 5.54016 164.265 3.68H162.265ZM165.865 8.9064L164.725 11.0264L166.486 11.9736L167.626 9.8536L165.865 8.9064ZM165.987 10.5759C163.298 9.46369 162.245 6.64896 162.245 3.68H160.245C160.245 6.99104 161.432 10.8563 165.223 12.4241L165.987 10.5759ZM162.245 3.68V1.58H160.245V3.68H162.245ZM167.965 2.58H169.965V0.579999H167.965V2.58ZM168.965 1.58V3.68H170.965V1.58H168.965ZM168.965 3.68C168.965 6.69102 167.912 9.4806 165.228 10.5739L165.983 12.4261C169.779 10.8794 170.965 7.02898 170.965 3.68H168.965ZM166.49 11.0329L165.37 8.91288L163.601 9.84712L164.721 11.9671L166.49 11.0329ZM164.892 10.2935C167.92 8.94532 168.965 6.10306 168.965 3.68H166.965C166.965 5.57694 166.171 7.53468 164.079 8.46648L164.892 10.2935ZM168.965 3.68V1.58H166.965V3.68H168.965ZM168.625 2.58H170.645V0.579999H168.625V2.58ZM169.645 1.58V3.68H171.645V1.58H169.645ZM169.645 3.68C169.645 6.19969 170.724 8.89904 173.711 10.1791L174.499 8.34085C172.446 7.46096 171.645 5.64031 171.645 3.68H169.645ZM173.288 8.6843L171.908 10.6443L173.543 11.7957L174.923 9.8357L173.288 8.6843ZM173.117 10.2999C170.69 9.26686 169.625 6.75452 169.625 3.68H167.625C167.625 7.12548 168.84 10.6531 172.334 12.1401L173.117 10.2999ZM169.625 3.68V1.58H167.625V3.68H169.625ZM157.245 15.34H174.005V13.34H157.245V15.34ZM173.005 14.34V16.5H175.005V14.34H173.005ZM174.005 15.5H157.245V17.5H174.005V15.5ZM158.245 16.5V14.34H156.245V16.5H158.245ZM180.164 1.68V0.679999H179.164V1.68H180.164ZM182.324 1.68H183.324V0.679999H182.324V1.68ZM177.004 15.14L176.192 15.7233L176.673 16.3942L177.423 16.0478L177.004 15.14ZM175.424 12.94L175.025 12.0229L173.889 12.517L174.612 13.5233L175.424 12.94ZM180.684 1.68V0.679999H179.684V1.68H180.684ZM182.844 1.68H183.844V0.679999H182.844V1.68ZM187.464 12.56L188.272 13.1491L189.01 12.1367L187.859 11.6415L187.464 12.56ZM185.904 14.7L185.487 15.6091L186.23 15.9496L186.712 15.2891L185.904 14.7ZM188.344 0.239999V-0.760001H187.344V0.239999H188.344ZM191.024 0.239999H192.024V-0.760001H191.024V0.239999ZM191.024 18.82V19.82H192.024V18.82H191.024ZM188.344 18.82H187.344V19.82H188.344V18.82ZM180.164 2.68H182.324V0.679999H180.164V2.68ZM181.324 1.68V4.38H183.324V1.68H181.324ZM181.324 4.38C181.324 8.98772 179.736 12.7762 176.584 14.2322L177.423 16.0478C181.631 14.1038 183.324 9.29228 183.324 4.38H181.324ZM177.816 14.5567L176.236 12.3567L174.612 13.5233L176.192 15.7233L177.816 14.5567ZM175.822 13.8571C179.547 12.2378 181.164 8.20026 181.164 4.38H179.164C179.164 7.75974 177.741 10.8422 175.025 12.0229L175.822 13.8571ZM181.164 4.38V1.68H179.164V4.38H181.164ZM180.684 2.68H182.844V0.679999H180.684V2.68ZM181.844 1.68V4.38H183.844V1.68H181.844ZM181.844 4.38C181.844 8.03036 183.408 11.9031 187.068 13.4785L187.859 11.6415C185.2 10.4969 183.844 7.56964 183.844 4.38H181.844ZM186.656 11.9709L185.096 14.1109L186.712 15.2891L188.272 13.1491L186.656 11.9709ZM186.32 13.7909C183.26 12.3891 181.684 8.76968 181.684 4.38H179.684C179.684 9.11032 181.387 13.7309 185.487 15.6091L186.32 13.7909ZM181.684 4.38V1.68H179.684V4.38H181.684ZM188.344 1.24H191.024V-0.760001H188.344V1.24ZM190.024 0.239999V18.82H192.024V0.239999H190.024ZM191.024 17.82H188.344V19.82H191.024V17.82ZM189.344 18.82V0.239999H187.344V18.82H189.344ZM207.862 7.26V6.26H206.862V7.26H207.862ZM211.122 7.26H212.122V6.26H211.122V7.26ZM211.122 9.44V10.44H212.122V9.44H211.122ZM207.862 9.44H206.862V10.44H207.862V9.44ZM205.882 0.239999V-0.760001H204.882V0.239999H205.882ZM208.562 0.239999H209.562V-0.760001H208.562V0.239999ZM208.562 18.76V19.76H209.562V18.76H208.562ZM205.882 18.76H204.882V19.76H205.882V18.76ZM194.602 2.02V1.02H193.602V2.02H194.602ZM197.262 2.02H198.262V1.02H197.262V2.02ZM197.262 13.52V14.52H198.262V13.52H197.262ZM194.602 13.52H193.602V14.52H194.602V13.52ZM194.602 12.04V11.04H193.602V12.04H194.602ZM204.682 11.26L205.674 11.1326L205.537 10.0678L204.485 10.2797L204.682 11.26ZM204.962 13.44L205.167 14.4188L206.072 14.2296L205.954 13.3126L204.962 13.44ZM194.602 14.24H193.602V15.24H194.602V14.24ZM207.862 8.26H211.122V6.26H207.862V8.26ZM210.122 7.26V9.44H212.122V7.26H210.122ZM211.122 8.44H207.862V10.44H211.122V8.44ZM208.862 9.44V7.26H206.862V9.44H208.862ZM205.882 1.24H208.562V-0.760001H205.882V1.24ZM207.562 0.239999V18.76H209.562V0.239999H207.562ZM208.562 17.76H205.882V19.76H208.562V17.76ZM206.882 18.76V0.239999H204.882V18.76H206.882ZM194.602 3.02H197.262V1.02H194.602V3.02ZM196.262 2.02V13.52H198.262V2.02H196.262ZM197.262 12.52H194.602V14.52H197.262V12.52ZM195.602 13.52V2.02H193.602V13.52H195.602ZM194.602 13.04H196.202V11.04H194.602V13.04ZM196.202 13.04C198.887 13.04 201.816 12.8571 204.88 12.2403L204.485 10.2797C201.588 10.8629 198.797 11.04 196.202 11.04V13.04ZM203.69 11.3874L203.97 13.5674L205.954 13.3126L205.674 11.1326L203.69 11.3874ZM204.757 12.4612C201.79 13.0818 198.885 13.24 196.202 13.24V15.24C198.959 15.24 202.014 15.0782 205.167 14.4188L204.757 12.4612ZM196.202 13.24H194.602V15.24H196.202V13.24ZM195.602 14.24V12.04H193.602V14.24H195.602ZM216.141 9.66V8.66H215.141V9.66H216.141ZM218.781 9.66H219.781V8.66H218.781V9.66ZM218.781 14.86V15.86H219.781V14.86H218.781ZM216.141 14.86H215.141V15.86H216.141V14.86ZM222.861 9.66V8.66H221.861V9.66H222.861ZM225.521 9.66H226.521V8.66H225.521V9.66ZM225.521 14.86V15.86H226.521V14.86H225.521ZM222.861 14.86H221.861V15.86H222.861V14.86ZM212.461 14.48V13.48H211.461V14.48H212.461ZM229.221 14.48H230.221V13.48H229.221V14.48ZM229.221 16.64V17.64H230.221V16.64H229.221ZM212.461 16.64H211.461V17.64H212.461V16.64ZM216.141 10.66H218.781V8.66H216.141V10.66ZM217.781 9.66V14.86H219.781V9.66H217.781ZM218.781 13.86H216.141V15.86H218.781V13.86ZM217.141 14.86V9.66H215.141V14.86H217.141ZM222.861 10.66H225.521V8.66H222.861V10.66ZM224.521 9.66V14.86H226.521V9.66H224.521ZM225.521 13.86H222.861V15.86H225.521V13.86ZM223.861 14.86V9.66H221.861V14.86H223.861ZM212.461 15.48H229.221V13.48H212.461V15.48ZM228.221 14.48V16.64H230.221V14.48H228.221ZM229.221 15.64H212.461V17.64H229.221V15.64ZM213.461 16.64V14.48H211.461V16.64H213.461ZM220.821 2.16C222.659 2.16 224.173 2.61433 225.198 3.33525C226.199 4.0404 226.741 4.99646 226.741 6.14H228.741C228.741 4.26354 227.812 2.7296 226.349 1.69975C224.908 0.685668 222.962 0.159999 220.821 0.159999V2.16ZM226.741 6.14C226.741 7.28262 226.2 8.23299 225.2 8.93319C224.176 9.64971 222.661 10.1 220.821 10.1V12.1C222.96 12.1 224.905 11.5803 226.346 10.5718C227.811 9.54701 228.741 8.01738 228.741 6.14H226.741ZM220.821 10.1C218.969 10.1 217.455 9.64933 216.435 8.93374C215.438 8.23492 214.901 7.28509 214.901 6.14H212.901C212.901 8.01491 213.823 9.54507 215.286 10.5713C216.726 11.5807 218.672 12.1 220.821 12.1V10.1ZM214.901 6.14C214.901 4.99399 215.439 4.03846 216.437 3.3347C217.458 2.61472 218.971 2.16 220.821 2.16V0.159999C218.67 0.159999 216.723 0.68528 215.284 1.7003C213.822 2.73154 212.901 4.26601 212.901 6.14H214.901ZM220.821 2.24C219.413 2.24 218.124 2.52644 217.154 3.16455C216.143 3.82912 215.521 4.85642 215.521 6.14H217.521C217.521 5.58358 217.758 5.16087 218.253 4.83545C218.788 4.48356 219.649 4.24 220.821 4.24V2.24ZM215.521 6.14C215.521 7.41607 216.145 8.44142 217.152 9.10668C218.12 9.74719 219.409 10.04 220.821 10.04V8.04C219.652 8.04 218.791 7.79281 218.255 7.43832C217.756 7.10858 217.521 6.68393 217.521 6.14H215.521ZM220.821 10.04C222.232 10.04 223.521 9.74719 224.49 9.10668C225.496 8.44142 226.121 7.41607 226.121 6.14H224.121C224.121 6.68393 223.885 7.10858 223.387 7.43832C222.85 7.79281 221.989 8.04 220.821 8.04V10.04ZM226.121 6.14C226.121 4.85642 225.498 3.82912 224.488 3.16455C223.518 2.52644 222.229 2.24 220.821 2.24V4.24C221.993 4.24 222.854 4.48356 223.389 4.83545C223.883 5.16087 224.121 5.58358 224.121 6.14H226.121ZM233.846 12.6392H232.846V13.6392H233.846V12.6392ZM233.846 12.3977L232.846 12.392V12.3977H233.846ZM234.066 10.4162L233.108 10.1305L233.105 10.139L234.066 10.4162ZM235.714 8.39915L236.245 9.24665L236.256 9.23944L235.714 8.39915ZM236.502 7.80966L235.843 7.05803L235.843 7.05803L236.502 7.80966ZM237.056 7.13494L237.93 7.62203L237.933 7.61495L237.056 7.13494ZM237.028 5.4375L236.183 5.97332L236.183 5.97333L237.028 5.4375ZM236.396 4.86932L235.942 5.7605L235.948 5.76374L236.396 4.86932ZM234.656 4.87642L235.09 5.77706L235.103 5.77085L234.656 4.87642ZM233.981 5.47301L234.811 6.03121L234.815 6.02427L233.981 5.47301ZM233.697 6.44602V7.44602H234.661L234.696 6.48258L233.697 6.44602ZM230.799 6.44602L229.799 6.42103L229.774 7.44602H230.799V6.44602ZM231.481 4.10227L232.3 4.67574L232.302 4.67279L231.481 4.10227ZM233.192 2.71733L233.585 3.63712L233.59 3.63488L233.192 2.71733ZM238.043 2.72443L237.647 3.64266L237.652 3.64482L238.043 2.72443ZM239.748 4.06676L238.929 4.64111L238.929 4.64111L239.748 4.06676ZM240.089 7.66761L239.17 7.27369L239.168 7.27864L240.089 7.66761ZM239.329 8.80398L240.036 9.5111L240.041 9.50598L239.329 8.80398ZM238.171 9.69176L238.682 10.5512L238.683 10.5509L238.171 9.69176ZM237.248 10.3878L236.541 9.68064L236.534 9.68771L237.248 10.3878ZM236.715 11.2259L235.778 10.8762L235.774 10.8886L236.715 11.2259ZM236.538 12.3977L235.538 12.3875V12.3977H236.538ZM236.538 12.6392V13.6392H237.538V12.6392H236.538ZM234.038 16.6875L233.326 17.3896L233.331 17.3946L233.336 17.3996L234.038 16.6875ZM233.548 15.4801L234.548 15.4902L234.548 15.4801L234.548 15.4699L233.548 15.4801ZM234.038 14.2869L233.336 13.5748L233.331 13.5798L234.038 14.2869ZM236.438 14.2869L235.741 15.0039L235.741 15.0039L236.438 14.2869ZM236.957 15.4801L237.957 15.4953L237.957 15.4826L237.957 15.4699L236.957 15.4801ZM236.708 16.3395L235.857 15.8137L235.855 15.818L236.708 16.3395ZM236.09 16.9574L236.6 17.8178L236.612 17.8107L236.09 16.9574ZM234.846 12.6392V12.3977H232.846V12.6392H234.846ZM234.846 12.4034C234.85 11.6176 234.921 11.0603 235.027 10.6934L233.105 10.139C232.927 10.7569 232.851 11.5206 232.846 12.392L234.846 12.4034ZM235.024 10.7019C235.138 10.3203 235.287 10.0677 235.44 9.90081L233.97 8.54521C233.565 8.98443 233.288 9.52728 233.108 10.1305L235.024 10.7019ZM235.44 9.90081C235.653 9.67073 235.918 9.45138 236.245 9.24657L235.183 7.55172C234.724 7.83934 234.317 8.16923 233.97 8.54521L235.44 9.90081ZM236.256 9.23944C236.585 9.02683 236.888 8.80118 237.162 8.56128L235.843 7.05803C235.652 7.22533 235.429 7.39268 235.172 7.55885L236.256 9.23944ZM237.162 8.56129C237.471 8.28949 237.731 7.977 237.929 7.62201L236.183 6.64788C236.106 6.78531 235.997 6.92263 235.843 7.05803L237.162 8.56129ZM237.933 7.61495C238.157 7.20575 238.262 6.75931 238.262 6.29688H236.262C236.262 6.44997 236.23 6.56224 236.179 6.65493L237.933 7.61495ZM238.262 6.29688C238.262 5.80395 238.142 5.32689 237.872 4.90167L236.183 5.97333C236.226 6.04053 236.262 6.13639 236.262 6.29688H238.262ZM237.872 4.90168C237.617 4.49942 237.268 4.18729 236.843 3.97489L235.948 5.76374C236.054 5.8165 236.126 5.88316 236.183 5.97332L237.872 4.90168ZM236.849 3.97815C236.437 3.76804 235.99 3.67045 235.529 3.67045V5.67045C235.702 5.67045 235.834 5.70545 235.942 5.76048L236.849 3.97815ZM235.529 3.67045C235.066 3.67045 234.622 3.77508 234.208 3.98199L235.103 5.77085C235.238 5.70314 235.376 5.67045 235.529 5.67045V3.67045ZM234.221 3.97587C233.777 4.19014 233.417 4.51293 233.146 4.92175L234.815 6.02427C234.895 5.90279 234.985 5.82785 235.09 5.77697L234.221 3.97587ZM233.151 4.91483C232.85 5.36292 232.717 5.87913 232.697 6.40946L234.696 6.48258C234.705 6.2364 234.762 6.10394 234.811 6.03119L233.151 4.91483ZM233.697 5.44602H230.799V7.44602H233.697V5.44602ZM231.799 6.47101C231.819 5.66946 232.008 5.09279 232.3 4.67574L230.662 3.52881C230.092 4.34281 229.827 5.32865 229.799 6.42103L231.799 6.47101ZM232.302 4.67279C232.623 4.21056 233.044 3.8681 233.585 3.63711L232.8 1.79755C231.921 2.17262 231.2 2.75345 230.66 3.53176L232.302 4.67279ZM233.59 3.63488C234.162 3.38707 234.808 3.25568 235.543 3.25568V1.25568C234.564 1.25568 233.643 1.43206 232.795 1.79977L233.59 3.63488ZM235.543 3.25568C236.375 3.25568 237.07 3.39352 237.647 3.64264L238.439 1.80622C237.568 1.43034 236.596 1.25568 235.543 1.25568V3.25568ZM237.652 3.64482C238.222 3.88685 238.635 4.22177 238.929 4.64111L240.566 3.49241C240.037 2.73751 239.313 2.17754 238.434 1.80405L237.652 3.64482ZM238.929 4.64111C239.206 5.03487 239.366 5.53433 239.366 6.19034H241.366C241.366 5.18916 241.114 4.27289 240.566 3.49241L238.929 4.64111ZM239.366 6.19034C239.366 6.63313 239.292 6.9878 239.17 7.27369L241.008 8.06153C241.255 7.48569 241.366 6.8555 241.366 6.19034H239.366ZM239.168 7.27864C239.037 7.58741 238.855 7.86014 238.617 8.10198L240.041 9.50598C240.456 9.08494 240.781 8.60009 241.01 8.05658L239.168 7.27864ZM238.622 8.09687C238.36 8.35844 238.042 8.60485 237.659 8.83266L238.683 10.5509C239.191 10.2484 239.644 9.90292 240.036 9.51108L238.622 8.09687ZM237.66 8.83235C237.233 9.08635 236.854 9.36703 236.541 9.68068L237.955 11.0949C238.124 10.9256 238.361 10.7423 238.682 10.5512L237.66 8.83235ZM236.534 9.68771C236.199 10.0293 235.946 10.4281 235.778 10.8763L237.652 11.5754C237.722 11.3892 237.823 11.2293 237.962 11.0879L236.534 9.68771ZM235.774 10.8886C235.611 11.3421 235.543 11.851 235.538 12.3875L237.538 12.4079C237.542 12.0164 237.592 11.744 237.657 11.5631L235.774 10.8886ZM235.538 12.3977V12.6392H237.538V12.3977H235.538ZM236.538 11.6392H233.846V13.6392H236.538V11.6392ZM235.252 16.1847C235.041 16.1847 234.888 16.1217 234.74 15.9754L233.336 17.3996C233.859 17.9161 234.517 18.1847 235.252 18.1847V16.1847ZM234.75 15.9854C234.604 15.8373 234.546 15.6906 234.548 15.4902L232.548 15.47C232.54 16.2071 232.809 16.8653 233.326 17.3896L234.75 15.9854ZM234.548 15.4699C234.546 15.2777 234.601 15.1376 234.745 14.994L233.331 13.5798C232.811 14.0991 232.54 14.7545 232.548 15.4903L234.548 15.4699ZM234.74 14.999C234.888 14.8527 235.041 14.7898 235.252 14.7898V12.7898C234.517 12.7898 233.859 13.0583 233.336 13.5748L234.74 14.999ZM235.252 14.7898C235.426 14.7898 235.575 14.8425 235.741 15.0039L237.135 13.5699C236.619 13.0685 235.978 12.7898 235.252 12.7898V14.7898ZM235.741 15.0039C235.896 15.1547 235.955 15.3001 235.957 15.4903L237.957 15.4699C237.949 14.7321 237.662 14.0821 237.135 13.5699L235.741 15.0039ZM235.957 15.465C235.955 15.6008 235.921 15.7102 235.858 15.8137L237.559 16.8653C237.817 16.4479 237.949 15.9844 237.957 15.4953L235.957 15.465ZM235.855 15.818C235.781 15.9384 235.689 16.0306 235.569 16.1041L236.612 17.8107C237.003 17.5717 237.322 17.252 237.561 16.8609L235.855 15.818ZM235.58 16.0971C235.482 16.1553 235.379 16.1847 235.252 16.1847V18.1847C235.731 18.1847 236.187 18.0625 236.6 17.8177L235.58 16.0971Z" fill="#C5C5C5" mask="url(#path-1-outside-1_40_68)"/>
</svg>
