<svg width="243" height="40" viewBox="0 0 243 29" fill="none" xmlns="http://www.w3.org/2000/svg">
<mask id="path-1-outside-1_14_7" maskUnits="userSpaceOnUse" x="-1" y="-1" width="245" height="31" fill="black">
<rect fill="white" x="-1" y="-1" width="245" height="31"/>
<path d="M7.82 2.81C11.96 2.81 14.99 6.65 14.99 12.71C14.99 18.83 11.96 22.67 7.82 22.67C3.65 22.67 0.65 18.83 0.65 12.71C0.65 6.65 3.65 2.81 7.82 2.81ZM7.82 6.44C5.81 6.44 4.46 8.63 4.46 12.71C4.46 16.85 5.81 19.07 7.82 19.07C9.86 19.07 11.18 16.85 11.18 12.71C11.18 8.63 9.86 6.44 7.82 6.44ZM19.55 0.859998H23.51V28.73H19.55V0.859998ZM13.82 10.88H21.23V14.09H13.82V10.88ZM32.0577 25.01H52.0077V28.19H32.0577V25.01ZM32.0577 19.31H36.0777V26.99H32.0577V19.31ZM47.3577 0.919999H51.3177V21.02H47.3577V0.919999ZM43.6977 8.21H50.7777V11.39H43.6977V8.21ZM28.1877 13.94H29.5977C31.9377 13.94 33.5877 13.88 35.6277 13.46L35.9277 16.67C33.7677 17.12 32.0877 17.12 29.5977 17.12H28.1877V13.94ZM28.1877 2.99H35.4777V6.17H32.1177V14.54H28.1877V2.99ZM36.7977 13.94H38.2977C41.8077 13.94 43.3377 13.88 45.1377 13.43L45.4677 16.64C43.5477 17.06 41.9577 17.12 38.2977 17.12H36.7977V13.94ZM36.7977 2.99H44.5077V6.17H40.6977V14.51H36.7977V2.99ZM58.4853 2H76.0953V5.15H58.4853V2ZM55.4253 10.67H80.5653V13.82H55.4253V10.67ZM73.6953 2H77.6253V3.89C77.6253 5.87 77.6253 8.39 76.9053 11.6L72.9753 11.24C73.6953 8.09 73.6953 5.84 73.6953 3.89V2ZM58.2153 15.71H77.5353V23.54H62.2353V26.36H58.2453V20.6H73.5753V18.8H58.2153V15.71ZM58.2453 25.4H78.2553V28.49H58.2453V25.4ZM95.563 1.28C101.893 1.28 105.613 2.96 105.613 6.02C105.613 9.08 101.893 10.76 95.563 10.76C89.203 10.76 85.513 9.08 85.513 6.02C85.513 2.96 89.203 1.28 95.563 1.28ZM95.563 4.19C91.543 4.19 89.653 4.79 89.653 6.02C89.653 7.31 91.543 7.85 95.563 7.85C99.583 7.85 101.473 7.31 101.473 6.02C101.473 4.79 99.583 4.19 95.563 4.19ZM82.993 12.05H108.103V15.2H82.993V12.05ZM85.873 16.76H105.073V23.9H89.833V26.36H85.903V21.14H101.143V19.73H85.873V16.76ZM85.903 25.49H105.793V28.49H85.903V25.49ZM122.574 2.87H125.604V6.02C125.604 10.79 123.864 15.41 119.424 17.33L117.384 14.39C121.134 12.74 122.574 9.26 122.574 6.02V2.87ZM123.534 2.87H126.564V6.02C126.564 9.2 127.914 12.83 131.784 14.57L130.074 17.75C125.214 15.74 123.534 10.73 123.534 6.02V2.87ZM133.614 2.87H136.614V6.02C136.614 10.79 134.934 15.77 130.074 17.75L128.394 14.57C132.234 12.86 133.614 9.26 133.614 6.02V2.87ZM134.604 2.87H137.634V6.02C137.634 9.38 139.044 12.77 142.824 14.39L140.754 17.33C136.314 15.44 134.604 10.91 134.604 6.02V2.87ZM117.534 22.01H142.674V25.25H117.534V22.01ZM151.912 3.02H155.152V7.07C155.152 14.21 152.692 20.66 147.172 23.21L144.802 19.91C149.632 17.81 151.912 12.47 151.912 7.07V3.02ZM152.692 3.02H155.932V7.07C155.932 12.2 158.122 17.3 162.862 19.34L160.522 22.55C155.152 20.09 152.692 13.91 152.692 7.07V3.02ZM164.182 0.859998H168.202V28.73H164.182V0.859998ZM193.459 11.39H198.349V14.66H193.459V11.39ZM190.489 0.859998H194.509V28.64H190.489V0.859998ZM173.569 3.53H177.559V20.78H173.569V3.53ZM173.569 18.56H175.969C179.929 18.56 184.219 18.29 188.689 17.39L189.109 20.66C184.519 21.62 180.049 21.86 175.969 21.86H173.569V18.56ZM205.877 14.99H209.837V22.79H205.877V14.99ZM215.957 14.99H219.947V22.79H215.957V14.99ZM200.357 22.22H225.497V25.46H200.357V22.22ZM212.897 2.24C218.867 2.24 223.277 5.18 223.277 9.71C223.277 14.24 218.867 17.15 212.897 17.15C206.897 17.15 202.517 14.24 202.517 9.71C202.517 5.18 206.897 2.24 212.897 2.24ZM212.897 5.36C209.027 5.36 206.447 6.95 206.447 9.71C206.447 12.44 209.027 14.06 212.897 14.06C216.767 14.06 219.347 12.44 219.347 9.71C219.347 6.95 216.767 5.36 212.897 5.36ZM232.435 19.4588V19.0966C232.442 17.8537 232.552 16.8629 232.765 16.1243C232.985 15.3857 233.305 14.7891 233.724 14.3345C234.143 13.88 234.647 13.468 235.237 13.0987C235.677 12.8146 236.071 12.5199 236.419 12.2145C236.767 11.9091 237.044 11.5717 237.25 11.2024C237.456 10.826 237.559 10.407 237.559 9.94531C237.559 9.45526 237.442 9.02557 237.208 8.65625C236.973 8.28693 236.657 8.00284 236.259 7.80398C235.869 7.60511 235.436 7.50568 234.96 7.50568C234.498 7.50568 234.061 7.60866 233.649 7.81463C233.237 8.01349 232.9 8.31179 232.637 8.70952C232.374 9.10014 232.232 9.58665 232.211 10.169H227.865C227.9 8.74858 228.241 7.5767 228.887 6.65341C229.534 5.72301 230.389 5.03054 231.455 4.57599C232.52 4.11435 233.695 3.88352 234.981 3.88352C236.394 3.88352 237.644 4.1179 238.731 4.58665C239.818 5.04829 240.67 5.71946 241.288 6.60014C241.906 7.48082 242.215 8.54261 242.215 9.78551C242.215 10.6165 242.076 11.3551 241.799 12.0014C241.529 12.6406 241.149 13.2088 240.659 13.706C240.169 14.196 239.59 14.6399 238.923 15.0376C238.362 15.3714 237.9 15.7195 237.538 16.0817C237.183 16.4439 236.916 16.8629 236.739 17.3388C236.568 17.8146 236.48 18.4006 236.472 19.0966V19.4588H232.435ZM234.544 26.277C233.834 26.277 233.227 26.0284 232.722 25.5312C232.225 25.027 231.98 24.4233 231.987 23.7202C231.98 23.0241 232.225 22.4276 232.722 21.9304C233.227 21.4332 233.834 21.1847 234.544 21.1847C235.219 21.1847 235.812 21.4332 236.323 21.9304C236.835 22.4276 237.094 23.0241 237.101 23.7202C237.094 24.1889 236.97 24.6186 236.728 25.0092C236.494 25.3928 236.185 25.7017 235.801 25.9361C235.418 26.1634 234.999 26.277 234.544 26.277Z"/>
</mask>
<path d="M7.82 2.81C11.96 2.81 14.99 6.65 14.99 12.71C14.99 18.83 11.96 22.67 7.82 22.67C3.65 22.67 0.65 18.83 0.65 12.71C0.65 6.65 3.65 2.81 7.82 2.81ZM7.82 6.44C5.81 6.44 4.46 8.63 4.46 12.71C4.46 16.85 5.81 19.07 7.82 19.07C9.86 19.07 11.18 16.85 11.18 12.71C11.18 8.63 9.86 6.44 7.82 6.44ZM19.55 0.859998H23.51V28.73H19.55V0.859998ZM13.82 10.88H21.23V14.09H13.82V10.88ZM32.0577 25.01H52.0077V28.19H32.0577V25.01ZM32.0577 19.31H36.0777V26.99H32.0577V19.31ZM47.3577 0.919999H51.3177V21.02H47.3577V0.919999ZM43.6977 8.21H50.7777V11.39H43.6977V8.21ZM28.1877 13.94H29.5977C31.9377 13.94 33.5877 13.88 35.6277 13.46L35.9277 16.67C33.7677 17.12 32.0877 17.12 29.5977 17.12H28.1877V13.94ZM28.1877 2.99H35.4777V6.17H32.1177V14.54H28.1877V2.99ZM36.7977 13.94H38.2977C41.8077 13.94 43.3377 13.88 45.1377 13.43L45.4677 16.64C43.5477 17.06 41.9577 17.12 38.2977 17.12H36.7977V13.94ZM36.7977 2.99H44.5077V6.17H40.6977V14.51H36.7977V2.99ZM58.4853 2H76.0953V5.15H58.4853V2ZM55.4253 10.67H80.5653V13.82H55.4253V10.67ZM73.6953 2H77.6253V3.89C77.6253 5.87 77.6253 8.39 76.9053 11.6L72.9753 11.24C73.6953 8.09 73.6953 5.84 73.6953 3.89V2ZM58.2153 15.71H77.5353V23.54H62.2353V26.36H58.2453V20.6H73.5753V18.8H58.2153V15.71ZM58.2453 25.4H78.2553V28.49H58.2453V25.4ZM95.563 1.28C101.893 1.28 105.613 2.96 105.613 6.02C105.613 9.08 101.893 10.76 95.563 10.76C89.203 10.76 85.513 9.08 85.513 6.02C85.513 2.96 89.203 1.28 95.563 1.28ZM95.563 4.19C91.543 4.19 89.653 4.79 89.653 6.02C89.653 7.31 91.543 7.85 95.563 7.85C99.583 7.85 101.473 7.31 101.473 6.02C101.473 4.79 99.583 4.19 95.563 4.19ZM82.993 12.05H108.103V15.2H82.993V12.05ZM85.873 16.76H105.073V23.9H89.833V26.36H85.903V21.14H101.143V19.73H85.873V16.76ZM85.903 25.49H105.793V28.49H85.903V25.49ZM122.574 2.87H125.604V6.02C125.604 10.79 123.864 15.41 119.424 17.33L117.384 14.39C121.134 12.74 122.574 9.26 122.574 6.02V2.87ZM123.534 2.87H126.564V6.02C126.564 9.2 127.914 12.83 131.784 14.57L130.074 17.75C125.214 15.74 123.534 10.73 123.534 6.02V2.87ZM133.614 2.87H136.614V6.02C136.614 10.79 134.934 15.77 130.074 17.75L128.394 14.57C132.234 12.86 133.614 9.26 133.614 6.02V2.87ZM134.604 2.87H137.634V6.02C137.634 9.38 139.044 12.77 142.824 14.39L140.754 17.33C136.314 15.44 134.604 10.91 134.604 6.02V2.87ZM117.534 22.01H142.674V25.25H117.534V22.01ZM151.912 3.02H155.152V7.07C155.152 14.21 152.692 20.66 147.172 23.21L144.802 19.91C149.632 17.81 151.912 12.47 151.912 7.07V3.02ZM152.692 3.02H155.932V7.07C155.932 12.2 158.122 17.3 162.862 19.34L160.522 22.55C155.152 20.09 152.692 13.91 152.692 7.07V3.02ZM164.182 0.859998H168.202V28.73H164.182V0.859998ZM193.459 11.39H198.349V14.66H193.459V11.39ZM190.489 0.859998H194.509V28.64H190.489V0.859998ZM173.569 3.53H177.559V20.78H173.569V3.53ZM173.569 18.56H175.969C179.929 18.56 184.219 18.29 188.689 17.39L189.109 20.66C184.519 21.62 180.049 21.86 175.969 21.86H173.569V18.56ZM205.877 14.99H209.837V22.79H205.877V14.99ZM215.957 14.99H219.947V22.79H215.957V14.99ZM200.357 22.22H225.497V25.46H200.357V22.22ZM212.897 2.24C218.867 2.24 223.277 5.18 223.277 9.71C223.277 14.24 218.867 17.15 212.897 17.15C206.897 17.15 202.517 14.24 202.517 9.71C202.517 5.18 206.897 2.24 212.897 2.24ZM212.897 5.36C209.027 5.36 206.447 6.95 206.447 9.71C206.447 12.44 209.027 14.06 212.897 14.06C216.767 14.06 219.347 12.44 219.347 9.71C219.347 6.95 216.767 5.36 212.897 5.36ZM232.435 19.4588V19.0966C232.442 17.8537 232.552 16.8629 232.765 16.1243C232.985 15.3857 233.305 14.7891 233.724 14.3345C234.143 13.88 234.647 13.468 235.237 13.0987C235.677 12.8146 236.071 12.5199 236.419 12.2145C236.767 11.9091 237.044 11.5717 237.25 11.2024C237.456 10.826 237.559 10.407 237.559 9.94531C237.559 9.45526 237.442 9.02557 237.208 8.65625C236.973 8.28693 236.657 8.00284 236.259 7.80398C235.869 7.60511 235.436 7.50568 234.96 7.50568C234.498 7.50568 234.061 7.60866 233.649 7.81463C233.237 8.01349 232.9 8.31179 232.637 8.70952C232.374 9.10014 232.232 9.58665 232.211 10.169H227.865C227.9 8.74858 228.241 7.5767 228.887 6.65341C229.534 5.72301 230.389 5.03054 231.455 4.57599C232.52 4.11435 233.695 3.88352 234.981 3.88352C236.394 3.88352 237.644 4.1179 238.731 4.58665C239.818 5.04829 240.67 5.71946 241.288 6.60014C241.906 7.48082 242.215 8.54261 242.215 9.78551C242.215 10.6165 242.076 11.3551 241.799 12.0014C241.529 12.6406 241.149 13.2088 240.659 13.706C240.169 14.196 239.59 14.6399 238.923 15.0376C238.362 15.3714 237.9 15.7195 237.538 16.0817C237.183 16.4439 236.916 16.8629 236.739 17.3388C236.568 17.8146 236.48 18.4006 236.472 19.0966V19.4588H232.435ZM234.544 26.277C233.834 26.277 233.227 26.0284 232.722 25.5312C232.225 25.027 231.98 24.4233 231.987 23.7202C231.98 23.0241 232.225 22.4276 232.722 21.9304C233.227 21.4332 233.834 21.1847 234.544 21.1847C235.219 21.1847 235.812 21.4332 236.323 21.9304C236.835 22.4276 237.094 23.0241 237.101 23.7202C237.094 24.1889 236.97 24.6186 236.728 25.0092C236.494 25.3928 236.185 25.7017 235.801 25.9361C235.418 26.1634 234.999 26.277 234.544 26.277Z" fill="#F1F1F1"/>
<path d="M19.55 0.859998V-0.140002H18.55V0.859998H19.55ZM23.51 0.859998H24.51V-0.140002H23.51V0.859998ZM23.51 28.73V29.73H24.51V28.73H23.51ZM19.55 28.73H18.55V29.73H19.55V28.73ZM13.82 10.88V9.88H12.82V10.88H13.82ZM21.23 10.88H22.23V9.88H21.23V10.88ZM21.23 14.09V15.09H22.23V14.09H21.23ZM13.82 14.09H12.82V15.09H13.82V14.09ZM7.82 3.81C9.5482 3.81 11.0526 4.59914 12.1546 6.08356C13.2708 7.58715 13.99 9.83646 13.99 12.71H15.99C15.99 9.52354 15.1942 6.82284 13.7604 4.89143C12.3124 2.94085 10.2318 1.81 7.82 1.81V3.81ZM13.99 12.71C13.99 15.6155 13.2698 17.88 12.1533 19.3906C11.0515 20.8813 9.54773 21.67 7.82 21.67V23.67C10.2323 23.67 12.3135 22.5387 13.7617 20.5794C15.1952 18.64 15.99 15.9245 15.99 12.71H13.99ZM7.82 21.67C6.0758 21.67 4.57315 20.8801 3.47626 19.3917C2.36369 17.8821 1.65 15.6177 1.65 12.71H-0.35C-0.35 15.9223 0.43631 18.6379 1.86624 20.5783C3.31185 22.5399 5.3942 23.67 7.82 23.67V21.67ZM1.65 12.71C1.65 9.83428 2.36277 7.58513 3.47502 6.08243C4.57203 4.60035 6.07533 3.81 7.82 3.81V1.81C5.39467 1.81 3.31297 2.93965 1.86748 4.89256C0.437232 6.82487 -0.35 9.52572 -0.35 12.71H1.65ZM7.82 5.44C6.37782 5.44 5.23839 6.2548 4.51253 7.55857C3.80859 8.82297 3.46 10.5817 3.46 12.71H5.46C5.46 10.7583 5.78641 9.38203 6.25997 8.53143C6.71161 7.7202 7.25218 7.44 7.82 7.44V5.44ZM3.46 12.71C3.46 14.8665 3.80809 16.6457 4.50965 17.9237C5.23226 19.2401 6.37074 20.07 7.82 20.07V18.07C7.25926 18.07 6.71774 17.7899 6.26285 16.9613C5.78691 16.0943 5.46 14.6935 5.46 12.71H3.46ZM7.82 20.07C9.28116 20.07 10.4219 19.2432 11.1429 17.9214C11.8405 16.6425 12.18 14.8631 12.18 12.71H10.18C10.18 14.6969 9.85954 16.0975 9.3871 16.9636C8.93811 17.7868 8.39884 18.07 7.82 18.07V20.07ZM12.18 12.71C12.18 10.5852 11.84 8.82625 11.14 7.56094C10.4158 6.2517 9.27407 5.44 7.82 5.44V7.44C8.40593 7.44 8.94422 7.7233 9.38997 8.52906C9.86001 9.37875 10.18 10.7548 10.18 12.71H12.18ZM19.55 1.86H23.51V-0.140002H19.55V1.86ZM22.51 0.859998V28.73H24.51V0.859998H22.51ZM23.51 27.73H19.55V29.73H23.51V27.73ZM20.55 28.73V0.859998H18.55V28.73H20.55ZM13.82 11.88H21.23V9.88H13.82V11.88ZM20.23 10.88V14.09H22.23V10.88H20.23ZM21.23 13.09H13.82V15.09H21.23V13.09ZM14.82 14.09V10.88H12.82V14.09H14.82ZM32.0577 25.01V24.01H31.0577V25.01H32.0577ZM52.0077 25.01H53.0077V24.01H52.0077V25.01ZM52.0077 28.19V29.19H53.0077V28.19H52.0077ZM32.0577 28.19H31.0577V29.19H32.0577V28.19ZM32.0577 19.31V18.31H31.0577V19.31H32.0577ZM36.0777 19.31H37.0777V18.31H36.0777V19.31ZM36.0777 26.99V27.99H37.0777V26.99H36.0777ZM32.0577 26.99H31.0577V27.99H32.0577V26.99ZM47.3577 0.919999V-0.0800008H46.3577V0.919999H47.3577ZM51.3177 0.919999H52.3177V-0.0800008H51.3177V0.919999ZM51.3177 21.02V22.02H52.3177V21.02H51.3177ZM47.3577 21.02H46.3577V22.02H47.3577V21.02ZM43.6977 8.21V7.21H42.6977V8.21H43.6977ZM50.7777 8.21H51.7777V7.21H50.7777V8.21ZM50.7777 11.39V12.39H51.7777V11.39H50.7777ZM43.6977 11.39H42.6977V12.39H43.6977V11.39ZM28.1877 13.94V12.94H27.1877V13.94H28.1877ZM35.6277 13.46L36.6233 13.3669L36.5194 12.2554L35.426 12.4805L35.6277 13.46ZM35.9277 16.67L36.1316 17.649L37.0065 17.4667L36.9233 16.5769L35.9277 16.67ZM28.1877 17.12H27.1877V18.12H28.1877V17.12ZM28.1877 2.99V1.99H27.1877V2.99H28.1877ZM35.4777 2.99H36.4777V1.99H35.4777V2.99ZM35.4777 6.17V7.17H36.4777V6.17H35.4777ZM32.1177 6.17V5.17H31.1177V6.17H32.1177ZM32.1177 14.54V15.54H33.1177V14.54H32.1177ZM28.1877 14.54H27.1877V15.54H28.1877V14.54ZM36.7977 13.94V12.94H35.7977V13.94H36.7977ZM45.1377 13.43L46.1324 13.3277L46.0144 12.18L44.8951 12.4599L45.1377 13.43ZM45.4677 16.64L45.6814 17.6169L46.5537 17.4261L46.4624 16.5377L45.4677 16.64ZM36.7977 17.12H35.7977V18.12H36.7977V17.12ZM36.7977 2.99V1.99H35.7977V2.99H36.7977ZM44.5077 2.99H45.5077V1.99H44.5077V2.99ZM44.5077 6.17V7.17H45.5077V6.17H44.5077ZM40.6977 6.17V5.17H39.6977V6.17H40.6977ZM40.6977 14.51V15.51H41.6977V14.51H40.6977ZM36.7977 14.51H35.7977V15.51H36.7977V14.51ZM32.0577 26.01H52.0077V24.01H32.0577V26.01ZM51.0077 25.01V28.19H53.0077V25.01H51.0077ZM52.0077 27.19H32.0577V29.19H52.0077V27.19ZM33.0577 28.19V25.01H31.0577V28.19H33.0577ZM32.0577 20.31H36.0777V18.31H32.0577V20.31ZM35.0777 19.31V26.99H37.0777V19.31H35.0777ZM36.0777 25.99H32.0577V27.99H36.0777V25.99ZM33.0577 26.99V19.31H31.0577V26.99H33.0577ZM47.3577 1.92H51.3177V-0.0800008H47.3577V1.92ZM50.3177 0.919999V21.02H52.3177V0.919999H50.3177ZM51.3177 20.02H47.3577V22.02H51.3177V20.02ZM48.3577 21.02V0.919999H46.3577V21.02H48.3577ZM43.6977 9.21H50.7777V7.21H43.6977V9.21ZM49.7777 8.21V11.39H51.7777V8.21H49.7777ZM50.7777 10.39H43.6977V12.39H50.7777V10.39ZM44.6977 11.39V8.21H42.6977V11.39H44.6977ZM28.1877 14.94H29.5977V12.94H28.1877V14.94ZM29.5977 14.94C31.957 14.94 33.6882 14.8803 35.8293 14.4395L35.426 12.4805C33.4871 12.8797 31.9183 12.94 29.5977 12.94V14.94ZM34.632 13.5531L34.932 16.7631L36.9233 16.5769L36.6233 13.3669L34.632 13.5531ZM35.7237 15.691C33.6781 16.1172 32.0956 16.12 29.5977 16.12V18.12C32.0797 18.12 33.8572 18.1228 36.1316 17.649L35.7237 15.691ZM29.5977 16.12H28.1877V18.12H29.5977V16.12ZM29.1877 17.12V13.94H27.1877V17.12H29.1877ZM28.1877 3.99H35.4777V1.99H28.1877V3.99ZM34.4777 2.99V6.17H36.4777V2.99H34.4777ZM35.4777 5.17H32.1177V7.17H35.4777V5.17ZM31.1177 6.17V14.54H33.1177V6.17H31.1177ZM32.1177 13.54H28.1877V15.54H32.1177V13.54ZM29.1877 14.54V2.99H27.1877V14.54H29.1877ZM36.7977 14.94H38.2977V12.94H36.7977V14.94ZM38.2977 14.94C41.8 14.94 43.4456 14.8838 45.3802 14.4001L44.8951 12.4599C43.2297 12.8762 41.8153 12.94 38.2977 12.94V14.94ZM44.1429 13.5323L44.4729 16.7423L46.4624 16.5377L46.1324 13.3277L44.1429 13.5323ZM45.254 15.6631C43.4517 16.0574 41.9608 16.12 38.2977 16.12V18.12C41.9545 18.12 43.6436 18.0626 45.6814 17.6169L45.254 15.6631ZM38.2977 16.12H36.7977V18.12H38.2977V16.12ZM37.7977 17.12V13.94H35.7977V17.12H37.7977ZM36.7977 3.99H44.5077V1.99H36.7977V3.99ZM43.5077 2.99V6.17H45.5077V2.99H43.5077ZM44.5077 5.17H40.6977V7.17H44.5077V5.17ZM39.6977 6.17V14.51H41.6977V6.17H39.6977ZM40.6977 13.51H36.7977V15.51H40.6977V13.51ZM37.7977 14.51V2.99H35.7977V14.51H37.7977ZM58.4853 2V1H57.4853V2H58.4853ZM76.0953 2H77.0953V1H76.0953V2ZM76.0953 5.15V6.15H77.0953V5.15H76.0953ZM58.4853 5.15H57.4853V6.15H58.4853V5.15ZM55.4253 10.67V9.67H54.4253V10.67H55.4253ZM80.5653 10.67H81.5653V9.67H80.5653V10.67ZM80.5653 13.82V14.82H81.5653V13.82H80.5653ZM55.4253 13.82H54.4253V14.82H55.4253V13.82ZM73.6953 2V1H72.6953V2H73.6953ZM77.6253 2H78.6253V1H77.6253V2ZM76.9053 11.6L76.8141 12.5958L77.6888 12.676L77.8811 11.8189L76.9053 11.6ZM72.9753 11.24L72.0005 11.0172L71.7457 12.1316L72.8841 12.2358L72.9753 11.24ZM58.2153 15.71V14.71H57.2153V15.71H58.2153ZM77.5353 15.71H78.5353V14.71H77.5353V15.71ZM77.5353 23.54V24.54H78.5353V23.54H77.5353ZM62.2353 23.54V22.54H61.2353V23.54H62.2353ZM62.2353 26.36V27.36H63.2353V26.36H62.2353ZM58.2453 26.36H57.2453V27.36H58.2453V26.36ZM58.2453 20.6V19.6H57.2453V20.6H58.2453ZM73.5753 20.6V21.6H74.5753V20.6H73.5753ZM73.5753 18.8H74.5753V17.8H73.5753V18.8ZM58.2153 18.8H57.2153V19.8H58.2153V18.8ZM58.2453 25.4V24.4H57.2453V25.4H58.2453ZM78.2553 25.4H79.2553V24.4H78.2553V25.4ZM78.2553 28.49V29.49H79.2553V28.49H78.2553ZM58.2453 28.49H57.2453V29.49H58.2453V28.49ZM58.4853 3H76.0953V1H58.4853V3ZM75.0953 2V5.15H77.0953V2H75.0953ZM76.0953 4.15H58.4853V6.15H76.0953V4.15ZM59.4853 5.15V2H57.4853V5.15H59.4853ZM55.4253 11.67H80.5653V9.67H55.4253V11.67ZM79.5653 10.67V13.82H81.5653V10.67H79.5653ZM80.5653 12.82H55.4253V14.82H80.5653V12.82ZM56.4253 13.82V10.67H54.4253V13.82H56.4253ZM73.6953 3H77.6253V1H73.6953V3ZM76.6253 2V3.89H78.6253V2H76.6253ZM76.6253 3.89C76.6253 5.85981 76.6238 8.28592 75.9296 11.3811L77.8811 11.8189C78.6268 8.49408 78.6253 5.88019 78.6253 3.89H76.6253ZM76.9965 10.6042L73.0665 10.2442L72.8841 12.2358L76.8141 12.5958L76.9965 10.6042ZM73.9502 11.4628C74.6962 8.19884 74.6953 5.85632 74.6953 3.89H72.6953C72.6953 5.82367 72.6944 7.98116 72.0005 11.0172L73.9502 11.4628ZM74.6953 3.89V2H72.6953V3.89H74.6953ZM58.2153 16.71H77.5353V14.71H58.2153V16.71ZM76.5353 15.71V23.54H78.5353V15.71H76.5353ZM77.5353 22.54H62.2353V24.54H77.5353V22.54ZM61.2353 23.54V26.36H63.2353V23.54H61.2353ZM62.2353 25.36H58.2453V27.36H62.2353V25.36ZM59.2453 26.36V20.6H57.2453V26.36H59.2453ZM58.2453 21.6H73.5753V19.6H58.2453V21.6ZM74.5753 20.6V18.8H72.5753V20.6H74.5753ZM73.5753 17.8H58.2153V19.8H73.5753V17.8ZM59.2153 18.8V15.71H57.2153V18.8H59.2153ZM58.2453 26.4H78.2553V24.4H58.2453V26.4ZM77.2553 25.4V28.49H79.2553V25.4H77.2553ZM78.2553 27.49H58.2453V29.49H78.2553V27.49ZM59.2453 28.49V25.4H57.2453V28.49H59.2453ZM82.993 12.05V11.05H81.993V12.05H82.993ZM108.103 12.05H109.103V11.05H108.103V12.05ZM108.103 15.2V16.2H109.103V15.2H108.103ZM82.993 15.2H81.993V16.2H82.993V15.2ZM85.873 16.76V15.76H84.873V16.76H85.873ZM105.073 16.76H106.073V15.76H105.073V16.76ZM105.073 23.9V24.9H106.073V23.9H105.073ZM89.833 23.9V22.9H88.833V23.9H89.833ZM89.833 26.36V27.36H90.833V26.36H89.833ZM85.903 26.36H84.903V27.36H85.903V26.36ZM85.903 21.14V20.14H84.903V21.14H85.903ZM101.143 21.14V22.14H102.143V21.14H101.143ZM101.143 19.73H102.143V18.73H101.143V19.73ZM85.873 19.73H84.873V20.73H85.873V19.73ZM85.903 25.49V24.49H84.903V25.49H85.903ZM105.793 25.49H106.793V24.49H105.793V25.49ZM105.793 28.49V29.49H106.793V28.49H105.793ZM85.903 28.49H84.903V29.49H85.903V28.49ZM95.563 2.28C98.6645 2.28 101.009 2.69534 102.539 3.40883C104.036 4.10655 104.613 5.002 104.613 6.02H106.613C106.613 3.978 105.33 2.50345 103.384 1.59616C101.472 0.704657 98.7914 0.279998 95.563 0.279998V2.28ZM104.613 6.02C104.613 7.038 104.036 7.93345 102.539 8.63117C101.009 9.34466 98.6645 9.76 95.563 9.76V11.76C98.7914 11.76 101.472 11.3353 103.384 10.4438C105.33 9.53655 106.613 8.062 106.613 6.02H104.613ZM95.563 9.76C92.4457 9.76 90.1021 9.34446 88.5763 8.63152C87.0866 7.93547 86.513 7.04124 86.513 6.02H84.513C84.513 8.05876 85.7843 9.53453 87.7297 10.4435C89.6388 11.3355 92.3202 11.76 95.563 11.76V9.76ZM86.513 6.02C86.513 4.99876 87.0866 4.10453 88.5763 3.40848C90.1021 2.69554 92.4457 2.28 95.563 2.28V0.279998C92.3202 0.279998 89.6388 0.70446 87.7297 1.59652C85.7843 2.50547 84.513 3.98124 84.513 6.02H86.513ZM95.563 3.19C93.5301 3.19 91.9279 3.33858 90.803 3.68901C90.2389 3.86476 89.7152 4.11492 89.3204 4.49199C88.8973 4.89611 88.653 5.41997 88.653 6.02H90.653C90.653 6.00503 90.6449 5.99264 90.7018 5.93832C90.787 5.85696 90.9871 5.72649 91.3979 5.59849C92.2231 5.34142 93.5759 5.19 95.563 5.19V3.19ZM88.653 6.02C88.653 6.62154 88.8869 7.15427 89.316 7.5691C89.7149 7.95478 90.2444 8.20377 90.8097 8.37556C91.9347 8.71736 93.5376 8.85 95.563 8.85V6.85C93.5683 6.85 92.2163 6.71264 91.3912 6.46194C90.9816 6.33747 90.7872 6.2096 90.7062 6.13121C90.6552 6.08198 90.653 6.06345 90.653 6.02H88.653ZM95.563 8.85C97.5883 8.85 99.1913 8.71736 100.316 8.37556C100.882 8.20377 101.411 7.95478 101.81 7.5691C102.239 7.15427 102.473 6.62154 102.473 6.02H100.473C100.473 6.06346 100.471 6.08198 100.42 6.13121C100.339 6.2096 100.144 6.33747 99.7347 6.46194C98.9097 6.71264 97.5576 6.85 95.563 6.85V8.85ZM102.473 6.02C102.473 5.41997 102.229 4.89611 101.806 4.49199C101.411 4.11492 100.887 3.86476 100.323 3.68901C99.1981 3.33858 97.5959 3.19 95.563 3.19V5.19C97.5501 5.19 98.9029 5.34142 99.728 5.59849C100.139 5.72649 100.339 5.85696 100.424 5.93832C100.481 5.99264 100.473 6.00503 100.473 6.02H102.473ZM82.993 13.05H108.103V11.05H82.993V13.05ZM107.103 12.05V15.2H109.103V12.05H107.103ZM108.103 14.2H82.993V16.2H108.103V14.2ZM83.993 15.2V12.05H81.993V15.2H83.993ZM85.873 17.76H105.073V15.76H85.873V17.76ZM104.073 16.76V23.9H106.073V16.76H104.073ZM105.073 22.9H89.833V24.9H105.073V22.9ZM88.833 23.9V26.36H90.833V23.9H88.833ZM89.833 25.36H85.903V27.36H89.833V25.36ZM86.903 26.36V21.14H84.903V26.36H86.903ZM85.903 22.14H101.143V20.14H85.903V22.14ZM102.143 21.14V19.73H100.143V21.14H102.143ZM101.143 18.73H85.873V20.73H101.143V18.73ZM86.873 19.73V16.76H84.873V19.73H86.873ZM85.903 26.49H105.793V24.49H85.903V26.49ZM104.793 25.49V28.49H106.793V25.49H104.793ZM105.793 27.49H85.903V29.49H105.793V27.49ZM86.903 28.49V25.49H84.903V28.49H86.903ZM122.574 2.87V1.87H121.574V2.87H122.574ZM125.604 2.87H126.604V1.87H125.604V2.87ZM119.424 17.33L118.602 17.9001L119.069 18.5729L119.821 18.2479L119.424 17.33ZM117.384 14.39L116.981 13.4747L115.871 13.9633L116.562 14.9601L117.384 14.39ZM123.534 2.87V1.87H122.534V2.87H123.534ZM126.564 2.87H127.564V1.87H126.564V2.87ZM131.784 14.57L132.665 15.0436L133.173 14.0981L132.194 13.6579L131.784 14.57ZM130.074 17.75L129.692 18.6741L130.527 19.0194L130.955 18.2236L130.074 17.75ZM133.614 2.87V1.87H132.614V2.87H133.614ZM136.614 2.87H137.614V1.87H136.614V2.87ZM130.074 17.75L129.19 18.2171L129.613 19.0177L130.451 18.6761L130.074 17.75ZM128.394 14.57L127.987 13.6565L127.01 14.0915L127.51 15.0371L128.394 14.57ZM134.604 2.87V1.87H133.604V2.87H134.604ZM137.634 2.87H138.634V1.87H137.634V2.87ZM142.824 14.39L143.642 14.9657L144.352 13.9569L143.218 13.4709L142.824 14.39ZM140.754 17.33L140.362 18.2501L141.106 18.5668L141.572 17.9057L140.754 17.33ZM117.534 22.01V21.01H116.534V22.01H117.534ZM142.674 22.01H143.674V21.01H142.674V22.01ZM142.674 25.25V26.25H143.674V25.25H142.674ZM117.534 25.25H116.534V26.25H117.534V25.25ZM122.574 3.87H125.604V1.87H122.574V3.87ZM124.604 2.87V6.02H126.604V2.87H124.604ZM124.604 6.02C124.604 10.5995 122.942 14.7193 119.027 16.4121L119.821 18.2479C124.786 16.1007 126.604 10.9805 126.604 6.02H124.604ZM120.246 16.7599L118.206 13.8199L116.562 14.9601L118.602 17.9001L120.246 16.7599ZM117.787 15.3053C121.994 13.4543 123.574 9.54265 123.574 6.02H121.574C121.574 8.97735 120.274 12.0257 116.981 13.4747L117.787 15.3053ZM123.574 6.02V2.87H121.574V6.02H123.574ZM123.534 3.87H126.564V1.87H123.534V3.87ZM125.564 2.87V6.02H127.564V2.87H125.564ZM125.564 6.02C125.564 9.45984 127.037 13.5321 131.374 15.4821L132.194 13.6579C128.791 12.1279 127.564 8.94016 127.564 6.02H125.564ZM130.903 14.0964L129.193 17.2764L130.955 18.2236L132.665 15.0436L130.903 14.0964ZM130.456 16.8259C126.147 15.0437 124.534 10.559 124.534 6.02H122.534C122.534 10.901 124.281 16.4363 129.692 18.6741L130.456 16.8259ZM124.534 6.02V2.87H122.534V6.02H124.534ZM133.614 3.87H136.614V1.87H133.614V3.87ZM135.614 2.87V6.02H137.614V2.87H135.614ZM135.614 6.02C135.614 10.621 134 15.0706 129.697 16.8239L130.451 18.6761C135.868 16.4694 137.614 10.959 137.614 6.02H135.614ZM130.958 17.2829L129.278 14.1029L127.51 15.0371L129.19 18.2171L130.958 17.2829ZM128.801 15.4835C133.108 13.5653 134.614 9.52306 134.614 6.02H132.614C132.614 8.99694 131.36 12.1547 127.987 13.6565L128.801 15.4835ZM134.614 6.02V2.87H132.614V6.02H134.614ZM134.604 3.87H137.634V1.87H134.604V3.87ZM136.634 2.87V6.02H138.634V2.87H136.634ZM136.634 6.02C136.634 9.65969 138.183 13.489 142.43 15.3091L143.218 13.4709C139.905 12.051 138.634 9.10031 138.634 6.02H136.634ZM142.006 13.8143L139.936 16.7543L141.572 17.9057L143.642 14.9657L142.006 13.8143ZM141.146 16.4099C137.239 14.7469 135.604 10.7245 135.604 6.02H133.604C133.604 11.0955 135.389 16.1331 140.362 18.2501L141.146 16.4099ZM135.604 6.02V2.87H133.604V6.02H135.604ZM117.534 23.01H142.674V21.01H117.534V23.01ZM141.674 22.01V25.25H143.674V22.01H141.674ZM142.674 24.25H117.534V26.25H142.674V24.25ZM118.534 25.25V22.01H116.534V25.25H118.534ZM151.912 3.02V2.02H150.912V3.02H151.912ZM155.152 3.02H156.152V2.02H155.152V3.02ZM147.172 23.21L146.359 23.7933L146.841 24.4642L147.591 24.1178L147.172 23.21ZM144.802 19.91L144.403 18.9929L143.267 19.487L143.989 20.4933L144.802 19.91ZM152.692 3.02V2.02H151.692V3.02H152.692ZM155.932 3.02H156.932V2.02H155.932V3.02ZM162.862 19.34L163.67 19.9291L164.408 18.9167L163.257 18.4215L162.862 19.34ZM160.522 22.55L160.105 23.4591L160.848 23.7996L161.33 23.1391L160.522 22.55ZM164.182 0.859998V-0.140002H163.182V0.859998H164.182ZM168.202 0.859998H169.202V-0.140002H168.202V0.859998ZM168.202 28.73V29.73H169.202V28.73H168.202ZM164.182 28.73H163.182V29.73H164.182V28.73ZM151.912 4.02H155.152V2.02H151.912V4.02ZM154.152 3.02V7.07H156.152V3.02H154.152ZM154.152 7.07C154.152 14.0577 151.744 19.9962 146.752 22.3022L147.591 24.1178C153.639 21.3238 156.152 14.3623 156.152 7.07H154.152ZM147.984 22.6267L145.614 19.3267L143.989 20.4933L146.359 23.7933L147.984 22.6267ZM145.2 20.8271C150.535 18.5078 152.912 12.6903 152.912 7.07H150.912C150.912 12.2497 148.729 17.1122 144.403 18.9929L145.2 20.8271ZM152.912 7.07V3.02H150.912V7.07H152.912ZM152.692 4.02H155.932V2.02H152.692V4.02ZM154.932 3.02V7.07H156.932V3.02H154.932ZM154.932 7.07C154.932 12.4304 157.226 18.0031 162.466 20.2585L163.257 18.4215C159.018 16.5969 156.932 11.9696 156.932 7.07H154.932ZM162.054 18.7509L159.714 21.9609L161.33 23.1391L163.67 19.9291L162.054 18.7509ZM160.938 21.6409C156.088 19.4191 153.692 13.7397 153.692 7.07H151.692C151.692 14.0803 154.215 20.7609 160.105 23.4591L160.938 21.6409ZM153.692 7.07V3.02H151.692V7.07H153.692ZM164.182 1.86H168.202V-0.140002H164.182V1.86ZM167.202 0.859998V28.73H169.202V0.859998H167.202ZM168.202 27.73H164.182V29.73H168.202V27.73ZM165.182 28.73V0.859998H163.182V28.73H165.182ZM193.459 11.39V10.39H192.459V11.39H193.459ZM198.349 11.39H199.349V10.39H198.349V11.39ZM198.349 14.66V15.66H199.349V14.66H198.349ZM193.459 14.66H192.459V15.66H193.459V14.66ZM190.489 0.859998V-0.140002H189.489V0.859998H190.489ZM194.509 0.859998H195.509V-0.140002H194.509V0.859998ZM194.509 28.64V29.64H195.509V28.64H194.509ZM190.489 28.64H189.489V29.64H190.489V28.64ZM173.569 3.53V2.53H172.569V3.53H173.569ZM177.559 3.53H178.559V2.53H177.559V3.53ZM177.559 20.78V21.78H178.559V20.78H177.559ZM173.569 20.78H172.569V21.78H173.569V20.78ZM173.569 18.56V17.56H172.569V18.56H173.569ZM188.689 17.39L189.681 17.2626L189.544 16.1978L188.492 16.4097L188.689 17.39ZM189.109 20.66L189.314 21.6388L190.219 21.4496L190.101 20.5326L189.109 20.66ZM173.569 21.86H172.569V22.86H173.569V21.86ZM193.459 12.39H198.349V10.39H193.459V12.39ZM197.349 11.39V14.66H199.349V11.39H197.349ZM198.349 13.66H193.459V15.66H198.349V13.66ZM194.459 14.66V11.39H192.459V14.66H194.459ZM190.489 1.86H194.509V-0.140002H190.489V1.86ZM193.509 0.859998V28.64H195.509V0.859998H193.509ZM194.509 27.64H190.489V29.64H194.509V27.64ZM191.489 28.64V0.859998H189.489V28.64H191.489ZM173.569 4.53H177.559V2.53H173.569V4.53ZM176.559 3.53V20.78H178.559V3.53H176.559ZM177.559 19.78H173.569V21.78H177.559V19.78ZM174.569 20.78V3.53H172.569V20.78H174.569ZM173.569 19.56H175.969V17.56H173.569V19.56ZM175.969 19.56C179.974 19.56 184.334 19.2871 188.887 18.3703L188.492 16.4097C184.105 17.2929 179.884 17.56 175.969 17.56V19.56ZM187.697 17.5174L188.117 20.7874L190.101 20.5326L189.681 17.2626L187.697 17.5174ZM188.905 19.6812C184.407 20.6218 180.012 20.86 175.969 20.86V22.86C180.086 22.86 184.631 22.6182 189.314 21.6388L188.905 19.6812ZM175.969 20.86H173.569V22.86H175.969V20.86ZM174.569 21.86V18.56H172.569V21.86H174.569ZM205.877 14.99V13.99H204.877V14.99H205.877ZM209.837 14.99H210.837V13.99H209.837V14.99ZM209.837 22.79V23.79H210.837V22.79H209.837ZM205.877 22.79H204.877V23.79H205.877V22.79ZM215.957 14.99V13.99H214.957V14.99H215.957ZM219.947 14.99H220.947V13.99H219.947V14.99ZM219.947 22.79V23.79H220.947V22.79H219.947ZM215.957 22.79H214.957V23.79H215.957V22.79ZM200.357 22.22V21.22H199.357V22.22H200.357ZM225.497 22.22H226.497V21.22H225.497V22.22ZM225.497 25.46V26.46H226.497V25.46H225.497ZM200.357 25.46H199.357V26.46H200.357V25.46ZM205.877 15.99H209.837V13.99H205.877V15.99ZM208.837 14.99V22.79H210.837V14.99H208.837ZM209.837 21.79H205.877V23.79H209.837V21.79ZM206.877 22.79V14.99H204.877V22.79H206.877ZM215.957 15.99H219.947V13.99H215.957V15.99ZM218.947 14.99V22.79H220.947V14.99H218.947ZM219.947 21.79H215.957V23.79H219.947V21.79ZM216.957 22.79V14.99H214.957V22.79H216.957ZM200.357 23.22H225.497V21.22H200.357V23.22ZM224.497 22.22V25.46H226.497V22.22H224.497ZM225.497 24.46H200.357V26.46H225.497V24.46ZM201.357 25.46V22.22H199.357V25.46H201.357ZM212.897 3.24C215.731 3.24 218.11 3.93933 219.75 5.094C221.368 6.2329 222.277 7.81145 222.277 9.71H224.277C224.277 7.07854 222.981 4.9221 220.901 3.4585C218.844 2.01067 216.033 1.24 212.897 1.24V3.24ZM222.277 9.71C222.277 11.6076 221.369 13.178 219.752 14.3094C218.112 15.4572 215.733 16.15 212.897 16.15V18.15C216.031 18.15 218.842 17.3878 220.899 15.9481C222.98 14.492 224.277 12.3424 224.277 9.71H222.277ZM212.897 16.15C210.045 16.15 207.667 15.4568 206.031 14.31C204.42 13.1799 203.517 11.6101 203.517 9.71H201.517C201.517 12.3399 202.804 14.4901 204.883 15.9475C206.937 17.3882 209.748 18.15 212.897 18.15V16.15ZM203.517 9.71C203.517 7.80899 204.42 6.23096 206.033 5.09345C207.669 3.93972 210.047 3.24 212.897 3.24V1.24C209.746 1.24 206.935 2.01028 204.881 3.45905C202.803 4.92404 201.517 7.08101 201.517 9.71H203.517ZM212.897 4.36C210.844 4.36 209.017 4.77894 207.671 5.66455C206.285 6.57662 205.447 7.96642 205.447 9.71H207.447C207.447 8.69358 207.899 7.90837 208.77 7.33545C209.681 6.73606 211.08 6.36 212.897 6.36V4.36ZM205.447 9.71C205.447 11.4411 206.287 12.8289 207.669 13.7429C209.014 14.6322 210.84 15.06 212.897 15.06V13.06C211.084 13.06 209.685 12.6778 208.772 12.0746C207.897 11.4961 207.447 10.7089 207.447 9.71H205.447ZM212.897 15.06C214.954 15.06 216.78 14.6322 218.125 13.7429C219.507 12.8289 220.347 11.4411 220.347 9.71H218.347C218.347 10.7089 217.897 11.4961 217.022 12.0746C216.109 12.6778 214.71 13.06 212.897 13.06V15.06ZM220.347 9.71C220.347 7.96642 219.509 6.57662 218.123 5.66455C216.776 4.77894 214.95 4.36 212.897 4.36V6.36C214.714 6.36 216.112 6.73606 217.024 7.33545C217.895 7.90837 218.347 8.69358 218.347 9.71H220.347ZM232.435 19.4588H231.435V20.4588H232.435V19.4588ZM232.435 19.0966L231.435 19.0909V19.0966H232.435ZM232.765 16.1243L231.807 15.8386L231.804 15.8471L232.765 16.1243ZM235.237 13.0987L235.768 13.9462L235.779 13.939L235.237 13.0987ZM236.419 12.2145L235.76 11.4629L235.76 11.4629L236.419 12.2145ZM237.25 11.2024L238.124 11.6895L238.127 11.6824L237.25 11.2024ZM237.208 8.65625L236.363 9.19207L236.363 9.19208L237.208 8.65625ZM236.259 7.80398L235.806 8.69516L235.812 8.6984L236.259 7.80398ZM233.649 7.81463L234.084 8.71527L234.097 8.70906L233.649 7.81463ZM232.637 8.70952L233.467 9.26771L233.472 9.26077L232.637 8.70952ZM232.211 10.169V11.169H233.175L233.21 10.2056L232.211 10.169ZM227.865 10.169L226.865 10.144L226.839 11.169H227.865V10.169ZM228.887 6.65341L229.706 7.22688L229.709 7.22392L228.887 6.65341ZM231.455 4.57599L231.847 5.49579L231.852 5.49355L231.455 4.57599ZM238.731 4.58665L238.335 5.50487L238.34 5.50703L238.731 4.58665ZM241.288 6.60014L240.469 7.17449L240.469 7.17449L241.288 6.60014ZM241.799 12.0014L240.88 11.6075L240.878 11.6124L241.799 12.0014ZM240.659 13.706L241.366 14.4131L241.371 14.408L240.659 13.706ZM238.923 15.0376L239.434 15.897L239.435 15.8967L238.923 15.0376ZM237.538 16.0817L236.831 15.3745L236.824 15.3816L237.538 16.0817ZM236.739 17.3388L235.802 16.9892L235.797 17.0016L236.739 17.3388ZM236.472 19.0966L235.472 19.0864V19.0966H236.472ZM236.472 19.4588V20.4588H237.472V19.4588H236.472ZM232.722 25.5312L232.01 26.2333L232.015 26.2384L232.02 26.2434L232.722 25.5312ZM231.987 23.7202L232.987 23.7303L232.987 23.7201L232.987 23.71L231.987 23.7202ZM232.722 21.9304L232.02 21.2183L232.015 21.2233L232.722 21.9304ZM236.323 21.9304L235.626 22.6474L235.626 22.6474L236.323 21.9304ZM237.101 23.7202L238.101 23.7353L238.101 23.7226L238.101 23.71L237.101 23.7202ZM236.728 25.0092L235.878 24.4834L235.875 24.4878L236.728 25.0092ZM235.801 25.9361L236.311 26.7965L236.323 26.7894L235.801 25.9361ZM233.435 19.4588V19.0966H231.435V19.4588H233.435ZM233.435 19.1023C233.442 17.9022 233.549 17.0146 233.726 16.4015L231.804 15.8471C231.555 16.7112 231.442 17.8052 231.435 19.0909L233.435 19.1023ZM233.723 16.4099C233.911 15.7821 234.166 15.3307 234.459 15.0123L232.989 13.6567C232.444 14.2474 232.06 14.9892 231.807 15.8386L233.723 16.4099ZM234.459 15.0123C234.811 14.6307 235.244 14.2741 235.768 13.9461L234.706 12.2513C234.05 12.662 233.475 13.1292 232.989 13.6567L234.459 15.0123ZM235.779 13.939C236.255 13.6317 236.689 13.3078 237.079 12.9661L235.76 11.4629C235.453 11.732 235.099 11.9976 234.695 12.2584L235.779 13.939ZM237.079 12.9661C237.505 12.5925 237.857 12.1676 238.124 11.6895L236.377 10.7153C236.232 10.9759 236.03 11.2257 235.76 11.4629L237.079 12.9661ZM238.127 11.6824C238.42 11.1478 238.559 10.5616 238.559 9.94531H236.559C236.559 10.2523 236.492 10.5042 236.373 10.7224L238.127 11.6824ZM238.559 9.94531C238.559 9.28904 238.4 8.66875 238.052 8.12042L236.363 9.19208C236.484 9.38239 236.559 9.62147 236.559 9.94531H238.559ZM238.052 8.12043C237.718 7.59506 237.264 7.18824 236.707 6.90955L235.812 8.6984C236.05 8.81744 236.228 8.9788 236.363 9.19207L238.052 8.12043ZM236.713 6.91281C236.17 6.63641 235.579 6.50568 234.96 6.50568V8.50568C235.292 8.50568 235.567 8.57382 235.806 8.69514L236.713 6.91281ZM234.96 6.50568C234.343 6.50568 233.753 6.64464 233.202 6.9202L234.097 8.70906C234.369 8.57269 234.653 8.50568 234.96 8.50568V6.50568ZM233.215 6.91408C232.633 7.19464 232.161 7.61686 231.803 8.15826L233.472 9.26077C233.639 9.00672 233.841 8.83235 234.084 8.71518L233.215 6.91408ZM231.808 8.15134C231.418 8.72963 231.238 9.40802 231.212 10.1325L233.21 10.2056C233.227 9.76528 233.33 9.47065 233.467 9.26769L231.808 8.15134ZM232.211 9.16903H227.865V11.169H232.211V9.16903ZM228.864 10.194C228.896 8.91898 229.199 7.95169 229.706 7.22687L228.068 6.07995C227.283 7.20171 226.904 8.57818 226.865 10.144L228.864 10.194ZM229.709 7.22392C230.245 6.45156 230.951 5.87828 231.847 5.49577L231.062 3.65622C229.828 4.1828 228.822 4.99446 228.066 6.0829L229.709 7.22392ZM231.852 5.49355C232.779 5.09185 233.818 4.88352 234.981 4.88352V2.88352C233.573 2.88352 232.261 3.13684 231.057 3.65844L231.852 5.49355ZM234.981 4.88352C236.284 4.88352 237.395 5.09949 238.335 5.50486L239.127 3.66844C237.894 3.13631 236.505 2.88352 234.981 2.88352V4.88352ZM238.34 5.50703C239.272 5.90295 239.969 6.46159 240.469 7.17449L242.106 6.02579C241.371 4.97733 240.363 4.19364 239.122 3.66626L238.34 5.50703ZM240.469 7.17449C240.951 7.86181 241.215 8.7152 241.215 9.78551H243.215C243.215 8.37003 242.86 7.09984 242.106 6.02579L240.469 7.17449ZM241.215 9.78551C241.215 10.5053 241.095 11.1062 240.88 11.6075L242.718 12.3953C243.057 11.6041 243.215 10.7277 243.215 9.78551H241.215ZM240.878 11.6124C240.658 12.1343 240.349 12.5964 239.947 13.004L241.371 14.408C241.95 13.8212 242.401 13.147 242.72 12.3904L240.878 11.6124ZM239.952 12.9989C239.527 13.4238 239.016 13.8182 238.411 14.1785L239.435 15.8967C240.165 15.4617 240.811 14.9683 241.366 14.4131L239.952 12.9989ZM238.411 14.1782C237.798 14.5435 237.265 14.9402 236.831 15.3746L238.245 16.7888C238.535 16.4987 238.926 16.1994 239.434 15.897L238.411 14.1782ZM236.824 15.3816C236.371 15.8439 236.028 16.3824 235.802 16.9892L237.676 17.6884C237.804 17.3435 237.995 17.0439 238.252 16.7817L236.824 15.3816ZM235.797 17.0016C235.578 17.6137 235.48 18.3178 235.473 19.0864L237.472 19.1068C237.479 18.4833 237.559 18.0156 237.68 17.676L235.797 17.0016ZM235.472 19.0966V19.4588H237.472V19.0966H235.472ZM236.472 18.4588H232.435V20.4588H236.472V18.4588ZM234.544 25.277C234.096 25.277 233.741 25.1312 233.425 24.8191L232.02 26.2434C232.712 26.9256 233.572 27.277 234.544 27.277V25.277ZM233.435 24.8292C233.123 24.513 232.983 24.165 232.987 23.7303L230.987 23.7101C230.978 24.6816 231.328 25.541 232.01 26.2333L233.435 24.8292ZM232.987 23.71C232.983 23.2857 233.12 22.9468 233.43 22.6375L232.015 21.2233C231.33 21.9083 230.978 22.7626 230.987 23.7304L232.987 23.71ZM233.425 22.6425C233.741 22.3304 234.096 22.1847 234.544 22.1847V20.1847C233.572 20.1847 232.712 20.536 232.02 21.2183L233.425 22.6425ZM234.544 22.1847C234.943 22.1847 235.29 22.3203 235.626 22.6474L237.02 21.2134C236.334 20.5462 235.495 20.1847 234.544 20.1847V22.1847ZM235.626 22.6474C235.952 22.9639 236.097 23.3082 236.101 23.7304L238.101 23.71C238.091 22.7401 237.718 21.8912 237.02 21.2134L235.626 22.6474ZM236.101 23.705C236.097 23.9971 236.022 24.2497 235.878 24.4834L237.579 25.5351C237.917 24.9875 238.091 24.3807 238.101 23.7353L236.101 23.705ZM235.875 24.4878C235.723 24.7359 235.528 24.9311 235.28 25.0828L236.323 26.7894C236.842 26.4723 237.264 26.0496 237.581 25.5307L235.875 24.4878ZM235.292 25.0758C235.065 25.2097 234.823 25.277 234.544 25.277V27.277C235.174 27.277 235.77 27.117 236.311 26.7964L235.292 25.0758Z" fill="#808080" mask="url(#path-1-outside-1_14_7)"/>
</svg>
