<svg width="259" height="40" viewBox="0 0 259 19" fill="none" xmlns="http://www.w3.org/2000/svg">
<mask id="path-1-outside-1_40_67" maskUnits="userSpaceOnUse" x="-2" y="-1" width="262" height="21" fill="black">
<rect fill="white" x="-2" y="-1" width="262" height="21"/>
<path d="M4.86 1.26H7.04V2.9C7.04 6.58 5.44 9.82 1.92 11.04L0.5 8.94C3.6 7.9 4.86 5.42 4.86 2.9V1.26ZM5.4 1.26H7.56V3.16C7.56 5.38 8.8 7.54 11.7 8.44L10.32 10.5C6.98 9.38 5.4 6.5 5.4 3.16V1.26ZM12.72 0.26H15.38V11.2H12.72V0.26ZM14.64 4.54H17.84V6.74H14.64V4.54ZM9.34 11.62C13.18 11.62 15.6 12.96 15.6 15.2C15.6 17.46 13.18 18.78 9.34 18.78C5.48 18.78 3.06 17.46 3.06 15.2C3.06 12.96 5.48 11.62 9.34 11.62ZM9.34 13.68C6.98 13.68 5.7 14.18 5.7 15.2C5.7 16.24 6.98 16.72 9.34 16.72C11.7 16.72 12.96 16.24 12.96 15.2C12.96 14.18 11.7 13.68 9.34 13.68ZM21.1984 10.8H23.8184V12.74H31.3184V10.8H33.9584V18.58H21.1984V10.8ZM23.8184 14.78V16.46H31.3184V14.78H23.8184ZM21.2584 1H32.9984V3.12H21.2584V1ZM19.2184 7.48H35.9784V9.62H19.2184V7.48ZM31.3984 1H34.0184V2.48C34.0184 4.02 34.0184 5.62 33.4984 7.94L30.8184 8.12C31.3984 5.74 31.3984 4.04 31.3984 2.48V1ZM41.7569 3.18H43.8569V5.26C43.8569 9.44 42.0969 13.7 38.6969 15.3L37.1969 13.2C40.2569 11.76 41.7569 8.3 41.7569 5.26V3.18ZM42.3169 3.18H44.4169V5.26C44.4169 8.06 45.8569 11.34 48.8969 12.74L47.4369 14.84C44.0369 13.26 42.3169 9.2 42.3169 5.26V3.18ZM37.9169 2.04H48.0769V4.22H37.9169V2.04ZM49.4369 0.26H52.1169V18.78H49.4369V0.26ZM51.5169 7.32H54.7969V9.52H51.5169V7.32ZM63.3953 7.08H66.4353V9.22H63.3953V7.08ZM69.3753 0.26H71.9153V18.78H69.3753V0.26ZM65.5953 0.54H68.0953V17.94H65.5953V0.54ZM60.1553 1.56C62.6153 1.56 64.1953 4.1 64.1953 8.28C64.1953 12.48 62.6153 15.02 60.1553 15.02C57.7153 15.02 56.1553 12.48 56.1553 8.28C56.1553 4.1 57.7153 1.56 60.1553 1.56ZM60.1553 4.06C59.1553 4.06 58.5753 5.46 58.5753 8.28C58.5753 11.12 59.1553 12.5 60.1553 12.5C61.1953 12.5 61.7753 11.12 61.7753 8.28C61.7753 5.46 61.1953 4.06 60.1553 4.06ZM87.8138 0.26H90.3538V18.78H87.8138V0.26ZM80.4738 7.36H84.4338V9.46H80.4738V7.36ZM83.9138 0.659999H86.3938V17.96H83.9138V0.659999ZM79.8738 2.44H82.4338C82.4338 7.72 80.8538 11.92 75.6538 14.94L74.1538 13.08C78.3738 10.54 79.8738 7.46 79.8738 2.98V2.44ZM75.1938 2.44H80.7138V4.56H75.1938V2.44ZM102.501 1.54C105.261 1.54 107.281 4.1 107.281 8.14C107.281 12.22 105.261 14.78 102.501 14.78C99.7211 14.78 97.7211 12.22 97.7211 8.14C97.7211 4.1 99.7211 1.54 102.501 1.54ZM102.501 3.96C101.161 3.96 100.261 5.42 100.261 8.14C100.261 10.9 101.161 12.38 102.501 12.38C103.861 12.38 104.741 10.9 104.741 8.14C104.741 5.42 103.861 3.96 102.501 3.96ZM110.321 0.239999H112.961V18.82H110.321V0.239999ZM106.501 6.92H111.441V9.06H106.501V6.92ZM118.66 16.34H131.96V18.46H118.66V16.34ZM118.66 12.54H121.34V17.66H118.66V12.54ZM128.86 0.279999H131.5V13.68H128.86V0.279999ZM126.42 5.14H131.14V7.26H126.42V5.14ZM116.08 8.96H117.02C118.58 8.96 119.68 8.92 121.04 8.64L121.24 10.78C119.8 11.08 118.68 11.08 117.02 11.08H116.08V8.96ZM116.08 1.66H120.94V3.78H118.7V9.36H116.08V1.66ZM121.82 8.96H122.82C125.16 8.96 126.18 8.92 127.38 8.62L127.6 10.76C126.32 11.04 125.26 11.08 122.82 11.08H121.82V8.96ZM121.82 1.66H126.96V3.78H124.42V9.34H121.82V1.66ZM136.278 1H148.018V3.1H136.278V1ZM134.238 6.78H150.998V8.88H134.238V6.78ZM146.418 1H149.038V2.26C149.038 3.58 149.038 5.26 148.558 7.4L145.938 7.16C146.418 5.06 146.418 3.56 146.418 2.26V1ZM136.098 10.14H148.978V15.36H138.778V17.24H136.118V13.4H146.338V12.2H136.098V10.14ZM136.118 16.6H149.458V18.66H136.118V16.6ZM160.996 0.519999C165.216 0.519999 167.696 1.64 167.696 3.68C167.696 5.72 165.216 6.84 160.996 6.84C156.756 6.84 154.296 5.72 154.296 3.68C154.296 1.64 156.756 0.519999 160.996 0.519999ZM160.996 2.46C158.316 2.46 157.056 2.86 157.056 3.68C157.056 4.54 158.316 4.9 160.996 4.9C163.676 4.9 164.936 4.54 164.936 3.68C164.936 2.86 163.676 2.46 160.996 2.46ZM152.616 7.7H169.356V9.8H152.616V7.7ZM154.536 10.84H167.336V15.6H157.176V17.24H154.556V13.76H164.716V12.82H154.536V10.84ZM154.556 16.66H167.816V18.66H154.556V16.66ZM179.004 1.58H181.024V3.68C181.024 6.86 179.864 9.94 176.904 11.22L175.544 9.26C178.044 8.16 179.004 5.84 179.004 3.68V1.58ZM179.644 1.58H181.664V3.68C181.664 5.8 182.564 8.22 185.144 9.38L184.004 11.5C180.764 10.16 179.644 6.82 179.644 3.68V1.58ZM186.364 1.58H188.364V3.68C188.364 6.86 187.244 10.18 184.004 11.5L182.884 9.38C185.444 8.24 186.364 5.84 186.364 3.68V1.58ZM187.024 1.58H189.044V3.68C189.044 5.92 189.984 8.18 192.504 9.26L191.124 11.22C188.164 9.96 187.024 6.94 187.024 3.68V1.58ZM175.644 14.34H192.404V16.5H175.644V14.34ZM198.562 1.68H200.722V4.38C200.722 9.14 199.082 13.44 195.402 15.14L193.822 12.94C197.042 11.54 198.562 7.98 198.562 4.38V1.68ZM199.082 1.68H201.242V4.38C201.242 7.8 202.702 11.2 205.862 12.56L204.302 14.7C200.722 13.06 199.082 8.94 199.082 4.38V1.68ZM206.742 0.239999H209.422V18.82H206.742V0.239999ZM226.261 7.26H229.521V9.44H226.261V7.26ZM224.281 0.239999H226.961V18.76H224.281V0.239999ZM213.001 2.02H215.661V13.52H213.001V2.02ZM213.001 12.04H214.601C217.241 12.04 220.101 11.86 223.081 11.26L223.361 13.44C220.301 14.08 217.321 14.24 214.601 14.24H213.001V12.04ZM234.539 9.66H237.179V14.86H234.539V9.66ZM241.259 9.66H243.919V14.86H241.259V9.66ZM230.859 14.48H247.619V16.64H230.859V14.48ZM239.219 1.16C243.199 1.16 246.139 3.12 246.139 6.14C246.139 9.16 243.199 11.1 239.219 11.1C235.219 11.1 232.299 9.16 232.299 6.14C232.299 3.12 235.219 1.16 239.219 1.16ZM239.219 3.24C236.639 3.24 234.919 4.3 234.919 6.14C234.919 7.96 236.639 9.04 239.219 9.04C241.799 9.04 243.519 7.96 243.519 6.14C243.519 4.3 241.799 3.24 239.219 3.24ZM252.244 12.6392V12.3977C252.249 11.5691 252.322 10.9086 252.464 10.4162C252.611 9.92377 252.824 9.52604 253.104 9.22301C253.383 8.91998 253.719 8.64536 254.112 8.39915C254.406 8.20975 254.669 8.01326 254.901 7.80966C255.133 7.60606 255.317 7.38116 255.455 7.13494C255.592 6.884 255.661 6.60464 255.661 6.29688C255.661 5.97017 255.582 5.68371 255.426 5.4375C255.27 5.19129 255.059 5.00189 254.794 4.86932C254.534 4.73674 254.245 4.67045 253.928 4.67045C253.62 4.67045 253.329 4.73911 253.054 4.87642C252.779 5.009 252.554 5.20786 252.379 5.47301C252.204 5.73343 252.109 6.05777 252.095 6.44602H249.197C249.221 5.49905 249.448 4.7178 249.879 4.10227C250.31 3.48201 250.881 3.02036 251.591 2.71733C252.301 2.40956 253.085 2.25568 253.942 2.25568C254.884 2.25568 255.717 2.41193 256.442 2.72443C257.166 3.0322 257.734 3.47964 258.146 4.06676C258.558 4.65388 258.764 5.36174 258.764 6.19034C258.764 6.74432 258.672 7.23674 258.487 7.66761C258.307 8.09375 258.054 8.47254 257.727 8.80398C257.401 9.13068 257.015 9.42661 256.57 9.69176C256.196 9.9143 255.888 10.1463 255.646 10.3878C255.41 10.6293 255.232 10.9086 255.114 11.2259C255 11.5431 254.941 11.9337 254.936 12.3977V12.6392H252.244ZM253.651 17.1847C253.177 17.1847 252.772 17.0189 252.436 16.6875C252.105 16.3513 251.941 15.9489 251.946 15.4801C251.941 15.0161 252.105 14.6184 252.436 14.2869C252.772 13.9555 253.177 13.7898 253.651 13.7898C254.1 13.7898 254.496 13.9555 254.837 14.2869C255.178 14.6184 255.35 15.0161 255.355 15.4801C255.35 15.7926 255.268 16.0791 255.107 16.3395C254.95 16.5952 254.744 16.8011 254.489 16.9574C254.233 17.1089 253.954 17.1847 253.651 17.1847Z"/>
</mask>
<path d="M4.86 1.26H7.04V2.9C7.04 6.58 5.44 9.82 1.92 11.04L0.5 8.94C3.6 7.9 4.86 5.42 4.86 2.9V1.26ZM5.4 1.26H7.56V3.16C7.56 5.38 8.8 7.54 11.7 8.44L10.32 10.5C6.98 9.38 5.4 6.5 5.4 3.16V1.26ZM12.72 0.26H15.38V11.2H12.72V0.26ZM14.64 4.54H17.84V6.74H14.64V4.54ZM9.34 11.62C13.18 11.62 15.6 12.96 15.6 15.2C15.6 17.46 13.18 18.78 9.34 18.78C5.48 18.78 3.06 17.46 3.06 15.2C3.06 12.96 5.48 11.62 9.34 11.62ZM9.34 13.68C6.98 13.68 5.7 14.18 5.7 15.2C5.7 16.24 6.98 16.72 9.34 16.72C11.7 16.72 12.96 16.24 12.96 15.2C12.96 14.18 11.7 13.68 9.34 13.68ZM21.1984 10.8H23.8184V12.74H31.3184V10.8H33.9584V18.58H21.1984V10.8ZM23.8184 14.78V16.46H31.3184V14.78H23.8184ZM21.2584 1H32.9984V3.12H21.2584V1ZM19.2184 7.48H35.9784V9.62H19.2184V7.48ZM31.3984 1H34.0184V2.48C34.0184 4.02 34.0184 5.62 33.4984 7.94L30.8184 8.12C31.3984 5.74 31.3984 4.04 31.3984 2.48V1ZM41.7569 3.18H43.8569V5.26C43.8569 9.44 42.0969 13.7 38.6969 15.3L37.1969 13.2C40.2569 11.76 41.7569 8.3 41.7569 5.26V3.18ZM42.3169 3.18H44.4169V5.26C44.4169 8.06 45.8569 11.34 48.8969 12.74L47.4369 14.84C44.0369 13.26 42.3169 9.2 42.3169 5.26V3.18ZM37.9169 2.04H48.0769V4.22H37.9169V2.04ZM49.4369 0.26H52.1169V18.78H49.4369V0.26ZM51.5169 7.32H54.7969V9.52H51.5169V7.32ZM63.3953 7.08H66.4353V9.22H63.3953V7.08ZM69.3753 0.26H71.9153V18.78H69.3753V0.26ZM65.5953 0.54H68.0953V17.94H65.5953V0.54ZM60.1553 1.56C62.6153 1.56 64.1953 4.1 64.1953 8.28C64.1953 12.48 62.6153 15.02 60.1553 15.02C57.7153 15.02 56.1553 12.48 56.1553 8.28C56.1553 4.1 57.7153 1.56 60.1553 1.56ZM60.1553 4.06C59.1553 4.06 58.5753 5.46 58.5753 8.28C58.5753 11.12 59.1553 12.5 60.1553 12.5C61.1953 12.5 61.7753 11.12 61.7753 8.28C61.7753 5.46 61.1953 4.06 60.1553 4.06ZM87.8138 0.26H90.3538V18.78H87.8138V0.26ZM80.4738 7.36H84.4338V9.46H80.4738V7.36ZM83.9138 0.659999H86.3938V17.96H83.9138V0.659999ZM79.8738 2.44H82.4338C82.4338 7.72 80.8538 11.92 75.6538 14.94L74.1538 13.08C78.3738 10.54 79.8738 7.46 79.8738 2.98V2.44ZM75.1938 2.44H80.7138V4.56H75.1938V2.44ZM102.501 1.54C105.261 1.54 107.281 4.1 107.281 8.14C107.281 12.22 105.261 14.78 102.501 14.78C99.7211 14.78 97.7211 12.22 97.7211 8.14C97.7211 4.1 99.7211 1.54 102.501 1.54ZM102.501 3.96C101.161 3.96 100.261 5.42 100.261 8.14C100.261 10.9 101.161 12.38 102.501 12.38C103.861 12.38 104.741 10.9 104.741 8.14C104.741 5.42 103.861 3.96 102.501 3.96ZM110.321 0.239999H112.961V18.82H110.321V0.239999ZM106.501 6.92H111.441V9.06H106.501V6.92ZM118.66 16.34H131.96V18.46H118.66V16.34ZM118.66 12.54H121.34V17.66H118.66V12.54ZM128.86 0.279999H131.5V13.68H128.86V0.279999ZM126.42 5.14H131.14V7.26H126.42V5.14ZM116.08 8.96H117.02C118.58 8.96 119.68 8.92 121.04 8.64L121.24 10.78C119.8 11.08 118.68 11.08 117.02 11.08H116.08V8.96ZM116.08 1.66H120.94V3.78H118.7V9.36H116.08V1.66ZM121.82 8.96H122.82C125.16 8.96 126.18 8.92 127.38 8.62L127.6 10.76C126.32 11.04 125.26 11.08 122.82 11.08H121.82V8.96ZM121.82 1.66H126.96V3.78H124.42V9.34H121.82V1.66ZM136.278 1H148.018V3.1H136.278V1ZM134.238 6.78H150.998V8.88H134.238V6.78ZM146.418 1H149.038V2.26C149.038 3.58 149.038 5.26 148.558 7.4L145.938 7.16C146.418 5.06 146.418 3.56 146.418 2.26V1ZM136.098 10.14H148.978V15.36H138.778V17.24H136.118V13.4H146.338V12.2H136.098V10.14ZM136.118 16.6H149.458V18.66H136.118V16.6ZM160.996 0.519999C165.216 0.519999 167.696 1.64 167.696 3.68C167.696 5.72 165.216 6.84 160.996 6.84C156.756 6.84 154.296 5.72 154.296 3.68C154.296 1.64 156.756 0.519999 160.996 0.519999ZM160.996 2.46C158.316 2.46 157.056 2.86 157.056 3.68C157.056 4.54 158.316 4.9 160.996 4.9C163.676 4.9 164.936 4.54 164.936 3.68C164.936 2.86 163.676 2.46 160.996 2.46ZM152.616 7.7H169.356V9.8H152.616V7.7ZM154.536 10.84H167.336V15.6H157.176V17.24H154.556V13.76H164.716V12.82H154.536V10.84ZM154.556 16.66H167.816V18.66H154.556V16.66ZM179.004 1.58H181.024V3.68C181.024 6.86 179.864 9.94 176.904 11.22L175.544 9.26C178.044 8.16 179.004 5.84 179.004 3.68V1.58ZM179.644 1.58H181.664V3.68C181.664 5.8 182.564 8.22 185.144 9.38L184.004 11.5C180.764 10.16 179.644 6.82 179.644 3.68V1.58ZM186.364 1.58H188.364V3.68C188.364 6.86 187.244 10.18 184.004 11.5L182.884 9.38C185.444 8.24 186.364 5.84 186.364 3.68V1.58ZM187.024 1.58H189.044V3.68C189.044 5.92 189.984 8.18 192.504 9.26L191.124 11.22C188.164 9.96 187.024 6.94 187.024 3.68V1.58ZM175.644 14.34H192.404V16.5H175.644V14.34ZM198.562 1.68H200.722V4.38C200.722 9.14 199.082 13.44 195.402 15.14L193.822 12.94C197.042 11.54 198.562 7.98 198.562 4.38V1.68ZM199.082 1.68H201.242V4.38C201.242 7.8 202.702 11.2 205.862 12.56L204.302 14.7C200.722 13.06 199.082 8.94 199.082 4.38V1.68ZM206.742 0.239999H209.422V18.82H206.742V0.239999ZM226.261 7.26H229.521V9.44H226.261V7.26ZM224.281 0.239999H226.961V18.76H224.281V0.239999ZM213.001 2.02H215.661V13.52H213.001V2.02ZM213.001 12.04H214.601C217.241 12.04 220.101 11.86 223.081 11.26L223.361 13.44C220.301 14.08 217.321 14.24 214.601 14.24H213.001V12.04ZM234.539 9.66H237.179V14.86H234.539V9.66ZM241.259 9.66H243.919V14.86H241.259V9.66ZM230.859 14.48H247.619V16.64H230.859V14.48ZM239.219 1.16C243.199 1.16 246.139 3.12 246.139 6.14C246.139 9.16 243.199 11.1 239.219 11.1C235.219 11.1 232.299 9.16 232.299 6.14C232.299 3.12 235.219 1.16 239.219 1.16ZM239.219 3.24C236.639 3.24 234.919 4.3 234.919 6.14C234.919 7.96 236.639 9.04 239.219 9.04C241.799 9.04 243.519 7.96 243.519 6.14C243.519 4.3 241.799 3.24 239.219 3.24ZM252.244 12.6392V12.3977C252.249 11.5691 252.322 10.9086 252.464 10.4162C252.611 9.92377 252.824 9.52604 253.104 9.22301C253.383 8.91998 253.719 8.64536 254.112 8.39915C254.406 8.20975 254.669 8.01326 254.901 7.80966C255.133 7.60606 255.317 7.38116 255.455 7.13494C255.592 6.884 255.661 6.60464 255.661 6.29688C255.661 5.97017 255.582 5.68371 255.426 5.4375C255.27 5.19129 255.059 5.00189 254.794 4.86932C254.534 4.73674 254.245 4.67045 253.928 4.67045C253.62 4.67045 253.329 4.73911 253.054 4.87642C252.779 5.009 252.554 5.20786 252.379 5.47301C252.204 5.73343 252.109 6.05777 252.095 6.44602H249.197C249.221 5.49905 249.448 4.7178 249.879 4.10227C250.31 3.48201 250.881 3.02036 251.591 2.71733C252.301 2.40956 253.085 2.25568 253.942 2.25568C254.884 2.25568 255.717 2.41193 256.442 2.72443C257.166 3.0322 257.734 3.47964 258.146 4.06676C258.558 4.65388 258.764 5.36174 258.764 6.19034C258.764 6.74432 258.672 7.23674 258.487 7.66761C258.307 8.09375 258.054 8.47254 257.727 8.80398C257.401 9.13068 257.015 9.42661 256.57 9.69176C256.196 9.9143 255.888 10.1463 255.646 10.3878C255.41 10.6293 255.232 10.9086 255.114 11.2259C255 11.5431 254.941 11.9337 254.936 12.3977V12.6392H252.244ZM253.651 17.1847C253.177 17.1847 252.772 17.0189 252.436 16.6875C252.105 16.3513 251.941 15.9489 251.946 15.4801C251.941 15.0161 252.105 14.6184 252.436 14.2869C252.772 13.9555 253.177 13.7898 253.651 13.7898C254.1 13.7898 254.496 13.9555 254.837 14.2869C255.178 14.6184 255.35 15.0161 255.355 15.4801C255.35 15.7926 255.268 16.0791 255.107 16.3395C254.95 16.5952 254.744 16.8011 254.489 16.9574C254.233 17.1089 253.954 17.1847 253.651 17.1847Z" fill="#B2B2B2"/>
<path d="M4.86 1.26V0.259999H3.86V1.26H4.86ZM7.04 1.26H8.04V0.259999H7.04V1.26ZM1.92 11.04L1.09161 11.6001L1.52181 12.2364L2.24748 11.9849L1.92 11.04ZM0.5 8.94L0.181938 7.99193L-1.0653 8.41036L-0.328391 9.50015L0.5 8.94ZM5.4 1.26V0.259999H4.4V1.26H5.4ZM7.56 1.26H8.56V0.259999H7.56V1.26ZM11.7 8.44L12.5308 8.99656L13.2772 7.88242L11.9964 7.48494L11.7 8.44ZM10.32 10.5L10.0021 11.4481L10.7259 11.6908L11.1508 11.0566L10.32 10.5ZM12.72 0.26V-0.74H11.72V0.26H12.72ZM15.38 0.26H16.38V-0.74H15.38V0.26ZM15.38 11.2V12.2H16.38V11.2H15.38ZM12.72 11.2H11.72V12.2H12.72V11.2ZM14.64 4.54V3.54H13.64V4.54H14.64ZM17.84 4.54H18.84V3.54H17.84V4.54ZM17.84 6.74V7.74H18.84V6.74H17.84ZM14.64 6.74H13.64V7.74H14.64V6.74ZM4.86 2.26H7.04V0.259999H4.86V2.26ZM6.04 1.26V2.9H8.04V1.26H6.04ZM6.04 2.9C6.04 6.30149 4.58629 9.05753 1.59252 10.0951L2.24748 11.9849C6.29371 10.5825 8.04 6.85851 8.04 2.9H6.04ZM2.74839 10.4798L1.32839 8.37985L-0.328391 9.50015L1.09161 11.6001L2.74839 10.4798ZM0.818062 9.88807C4.38666 8.69086 5.86 5.78144 5.86 2.9H3.86C3.86 5.05856 2.81334 7.10914 0.181938 7.99193L0.818062 9.88807ZM5.86 2.9V1.26H3.86V2.9H5.86ZM5.4 2.26H7.56V0.259999H5.4V2.26ZM6.56 1.26V3.16H8.56V1.26H6.56ZM6.56 3.16C6.56 5.80334 8.07124 8.36088 11.4036 9.39506L11.9964 7.48494C9.52876 6.71912 8.56 4.95666 8.56 3.16H6.56ZM10.8692 7.88344L9.48919 9.94344L11.1508 11.0566L12.5308 8.99656L10.8692 7.88344ZM10.6379 9.55189C7.79082 8.59716 6.4 6.16777 6.4 3.16H4.4C4.4 6.83222 6.16918 10.1628 10.0021 11.4481L10.6379 9.55189ZM6.4 3.16V1.26H4.4V3.16H6.4ZM12.72 1.26H15.38V-0.74H12.72V1.26ZM14.38 0.26V11.2H16.38V0.26H14.38ZM15.38 10.2H12.72V12.2H15.38V10.2ZM13.72 11.2V0.26H11.72V11.2H13.72ZM14.64 5.54H17.84V3.54H14.64V5.54ZM16.84 4.54V6.74H18.84V4.54H16.84ZM17.84 5.74H14.64V7.74H17.84V5.74ZM15.64 6.74V4.54H13.64V6.74H15.64ZM9.34 12.62C11.1648 12.62 12.5378 12.9417 13.4169 13.44C14.2579 13.9167 14.6 14.5133 14.6 15.2H16.6C16.6 13.6467 15.7321 12.4533 14.4031 11.7C13.1122 10.9683 11.3552 10.62 9.34 10.62V12.62ZM14.6 15.2C14.6 15.8986 14.256 16.4938 13.4184 16.9667C12.5401 17.4625 11.1672 17.78 9.34 17.78V19.78C11.3528 19.78 13.1099 19.4375 14.4016 18.7083C15.734 17.9562 16.6 16.7614 16.6 15.2H14.6ZM9.34 17.78C7.50205 17.78 6.12405 17.4623 5.24324 16.9662C4.40354 16.4933 4.06 15.8983 4.06 15.2H2.06C2.06 16.7617 2.92646 17.9567 4.26176 18.7088C5.55595 19.4377 7.31795 19.78 9.34 19.78V17.78ZM4.06 15.2C4.06 14.5137 4.40162 13.9173 5.24476 13.4405C6.12626 12.9419 7.50442 12.62 9.34 12.62V10.62C7.31558 10.62 5.55374 10.9681 4.26025 11.6995C2.92838 12.4527 2.06 13.6463 2.06 15.2H4.06ZM9.34 12.68C8.11777 12.68 7.05169 12.8054 6.2552 13.1324C5.84864 13.2994 5.45833 13.5406 5.16524 13.8961C4.85826 14.2685 4.7 14.7168 4.7 15.2H6.7C6.7 15.1732 6.70174 15.1765 6.70851 15.1682C6.72917 15.1432 6.80636 15.0681 7.0148 14.9826C7.44831 14.8046 8.20224 14.68 9.34 14.68V12.68ZM4.7 15.2C4.7 15.6836 4.85535 16.1345 5.16371 16.5105C5.45817 16.8694 5.85077 17.1107 6.25842 17.2764C7.05544 17.6004 8.12191 17.72 9.34 17.72V15.72C8.19809 15.72 7.44457 15.5996 7.01158 15.4236C6.80423 15.3393 6.72933 15.2656 6.71004 15.242C6.70465 15.2355 6.7 15.2364 6.7 15.2H4.7ZM9.34 17.72C10.5576 17.72 11.6207 17.6005 12.4142 17.2753C12.8207 17.1087 13.2111 16.8662 13.5031 16.5059C13.8085 16.1292 13.96 15.6796 13.96 15.2H11.96C11.96 15.2404 11.954 15.2408 11.9494 15.2466C11.9314 15.2688 11.8593 15.3413 11.6558 15.4247C11.2293 15.5995 10.4824 15.72 9.34 15.72V17.72ZM13.96 15.2C13.96 14.7209 13.8056 14.2739 13.5016 13.9007C13.2109 13.5438 12.8228 13.3013 12.4175 13.1335C11.6244 12.8053 10.5617 12.68 9.34 12.68V14.68C10.4783 14.68 11.2256 14.8047 11.6525 14.9815C11.8572 15.0662 11.9316 15.14 11.9509 15.1637C11.9569 15.1711 11.96 15.1691 11.96 15.2H13.96ZM21.1984 10.8V9.8H20.1984V10.8H21.1984ZM23.8184 10.8H24.8184V9.8H23.8184V10.8ZM23.8184 12.74H22.8184V13.74H23.8184V12.74ZM31.3184 12.74V13.74H32.3184V12.74H31.3184ZM31.3184 10.8V9.8H30.3184V10.8H31.3184ZM33.9584 10.8H34.9584V9.8H33.9584V10.8ZM33.9584 18.58V19.58H34.9584V18.58H33.9584ZM21.1984 18.58H20.1984V19.58H21.1984V18.58ZM23.8184 14.78V13.78H22.8184V14.78H23.8184ZM23.8184 16.46H22.8184V17.46H23.8184V16.46ZM31.3184 16.46V17.46H32.3184V16.46H31.3184ZM31.3184 14.78H32.3184V13.78H31.3184V14.78ZM21.2584 1V-2.38419e-07H20.2584V1H21.2584ZM32.9984 1H33.9984V-2.38419e-07H32.9984V1ZM32.9984 3.12V4.12H33.9984V3.12H32.9984ZM21.2584 3.12H20.2584V4.12H21.2584V3.12ZM19.2184 7.48V6.48H18.2184V7.48H19.2184ZM35.9784 7.48H36.9784V6.48H35.9784V7.48ZM35.9784 9.62V10.62H36.9784V9.62H35.9784ZM19.2184 9.62H18.2184V10.62H19.2184V9.62ZM31.3984 1V-2.38419e-07H30.3984V1H31.3984ZM34.0184 1H35.0184V-2.38419e-07H34.0184V1ZM33.4984 7.94L33.5655 8.93775L34.3108 8.88769L34.4742 8.15871L33.4984 7.94ZM30.8184 8.12L29.8469 7.88323L29.5237 9.20921L30.8855 9.11775L30.8184 8.12ZM21.1984 11.8H23.8184V9.8H21.1984V11.8ZM22.8184 10.8V12.74H24.8184V10.8H22.8184ZM23.8184 13.74H31.3184V11.74H23.8184V13.74ZM32.3184 12.74V10.8H30.3184V12.74H32.3184ZM31.3184 11.8H33.9584V9.8H31.3184V11.8ZM32.9584 10.8V18.58H34.9584V10.8H32.9584ZM33.9584 17.58H21.1984V19.58H33.9584V17.58ZM22.1984 18.58V10.8H20.1984V18.58H22.1984ZM22.8184 14.78V16.46H24.8184V14.78H22.8184ZM23.8184 17.46H31.3184V15.46H23.8184V17.46ZM32.3184 16.46V14.78H30.3184V16.46H32.3184ZM31.3184 13.78H23.8184V15.78H31.3184V13.78ZM21.2584 2H32.9984V-2.38419e-07H21.2584V2ZM31.9984 1V3.12H33.9984V1H31.9984ZM32.9984 2.12H21.2584V4.12H32.9984V2.12ZM22.2584 3.12V1H20.2584V3.12H22.2584ZM19.2184 8.48H35.9784V6.48H19.2184V8.48ZM34.9784 7.48V9.62H36.9784V7.48H34.9784ZM35.9784 8.62H19.2184V10.62H35.9784V8.62ZM20.2184 9.62V7.48H18.2184V9.62H20.2184ZM31.3984 2H34.0184V-2.38419e-07H31.3984V2ZM33.0184 1V2.48H35.0184V1H33.0184ZM33.0184 2.48C33.0184 4.00385 33.0176 5.51317 32.5226 7.72129L34.4742 8.15871C35.0193 5.72683 35.0184 4.03614 35.0184 2.48H33.0184ZM33.4314 6.94225L30.7514 7.12225L30.8855 9.11775L33.5655 8.93775L33.4314 6.94225ZM31.79 8.35677C32.3996 5.8552 32.3984 4.05594 32.3984 2.48H30.3984C30.3984 4.02406 30.3972 5.6248 29.8469 7.88323L31.79 8.35677ZM32.3984 2.48V1H30.3984V2.48H32.3984ZM41.7569 3.18V2.18H40.7569V3.18H41.7569ZM43.8569 3.18H44.8569V2.18H43.8569V3.18ZM38.6969 15.3L37.8831 15.8812L38.368 16.56L39.1227 16.2048L38.6969 15.3ZM37.1969 13.2L36.7711 12.2952L35.6863 12.8057L36.3831 13.7812L37.1969 13.2ZM42.3169 3.18V2.18H41.3169V3.18H42.3169ZM44.4169 3.18H45.4169V2.18H44.4169V3.18ZM48.8969 12.74L49.7179 13.3108L50.3992 12.3309L49.3152 11.8317L48.8969 12.74ZM47.4369 14.84L47.0155 15.7469L47.778 16.1012L48.2579 15.4108L47.4369 14.84ZM37.9169 2.04V1.04H36.9169V2.04H37.9169ZM48.0769 2.04H49.0769V1.04H48.0769V2.04ZM48.0769 4.22V5.22H49.0769V4.22H48.0769ZM37.9169 4.22H36.9169V5.22H37.9169V4.22ZM49.4369 0.26V-0.74H48.4369V0.26H49.4369ZM52.1169 0.26H53.1169V-0.74H52.1169V0.26ZM52.1169 18.78V19.78H53.1169V18.78H52.1169ZM49.4369 18.78H48.4369V19.78H49.4369V18.78ZM51.5169 7.32V6.32H50.5169V7.32H51.5169ZM54.7969 7.32H55.7969V6.32H54.7969V7.32ZM54.7969 9.52V10.52H55.7969V9.52H54.7969ZM51.5169 9.52H50.5169V10.52H51.5169V9.52ZM41.7569 4.18H43.8569V2.18H41.7569V4.18ZM42.8569 3.18V5.26H44.8569V3.18H42.8569ZM42.8569 5.26C42.8569 9.24987 41.1718 13.0302 38.2711 14.3952L39.1227 16.2048C43.022 14.3698 44.8569 9.63013 44.8569 5.26H42.8569ZM39.5106 14.7188L38.0106 12.6188L36.3831 13.7812L37.8831 15.8812L39.5106 14.7188ZM37.6227 14.1048C41.1363 12.4514 42.7569 8.55871 42.7569 5.26H40.7569C40.7569 8.04128 39.3775 11.0686 36.7711 12.2952L37.6227 14.1048ZM42.7569 5.26V3.18H40.7569V5.26H42.7569ZM42.3169 4.18H44.4169V2.18H42.3169V4.18ZM43.4169 3.18V5.26H45.4169V3.18H43.4169ZM43.4169 5.26C43.4169 8.33946 44.9932 12.0432 48.4786 13.6483L49.3152 11.8317C46.7205 10.6368 45.4169 7.78054 45.4169 5.26H43.4169ZM48.0758 12.1692L46.6158 14.2692L48.2579 15.4108L49.7179 13.3108L48.0758 12.1692ZM47.8583 13.9331C44.9468 12.5801 43.3169 8.98677 43.3169 5.26H41.3169C41.3169 9.41323 43.1269 13.9399 47.0155 15.7469L47.8583 13.9331ZM43.3169 5.26V3.18H41.3169V5.26H43.3169ZM37.9169 3.04H48.0769V1.04H37.9169V3.04ZM47.0769 2.04V4.22H49.0769V2.04H47.0769ZM48.0769 3.22H37.9169V5.22H48.0769V3.22ZM38.9169 4.22V2.04H36.9169V4.22H38.9169ZM49.4369 1.26H52.1169V-0.74H49.4369V1.26ZM51.1169 0.26V18.78H53.1169V0.26H51.1169ZM52.1169 17.78H49.4369V19.78H52.1169V17.78ZM50.4369 18.78V0.26H48.4369V18.78H50.4369ZM51.5169 8.32H54.7969V6.32H51.5169V8.32ZM53.7969 7.32V9.52H55.7969V7.32H53.7969ZM54.7969 8.52H51.5169V10.52H54.7969V8.52ZM52.5169 9.52V7.32H50.5169V9.52H52.5169ZM63.3953 7.08V6.08H62.3953V7.08H63.3953ZM66.4353 7.08H67.4353V6.08H66.4353V7.08ZM66.4353 9.22V10.22H67.4353V9.22H66.4353ZM63.3953 9.22H62.3953V10.22H63.3953V9.22ZM69.3753 0.26V-0.74H68.3753V0.26H69.3753ZM71.9153 0.26H72.9153V-0.74H71.9153V0.26ZM71.9153 18.78V19.78H72.9153V18.78H71.9153ZM69.3753 18.78H68.3753V19.78H69.3753V18.78ZM65.5953 0.54V-0.46H64.5953V0.54H65.5953ZM68.0953 0.54H69.0953V-0.46H68.0953V0.54ZM68.0953 17.94V18.94H69.0953V17.94H68.0953ZM65.5953 17.94H64.5953V18.94H65.5953V17.94ZM63.3953 8.08H66.4353V6.08H63.3953V8.08ZM65.4353 7.08V9.22H67.4353V7.08H65.4353ZM66.4353 8.22H63.3953V10.22H66.4353V8.22ZM64.3953 9.22V7.08H62.3953V9.22H64.3953ZM69.3753 1.26H71.9153V-0.74H69.3753V1.26ZM70.9153 0.26V18.78H72.9153V0.26H70.9153ZM71.9153 17.78H69.3753V19.78H71.9153V17.78ZM70.3753 18.78V0.26H68.3753V18.78H70.3753ZM65.5953 1.54H68.0953V-0.46H65.5953V1.54ZM67.0953 0.54V17.94H69.0953V0.54H67.0953ZM68.0953 16.94H65.5953V18.94H68.0953V16.94ZM66.5953 17.94V0.54H64.5953V17.94H66.5953ZM60.1553 2.56C60.9795 2.56 61.6905 2.96104 62.2429 3.87133C62.8175 4.81798 63.1953 6.29662 63.1953 8.28H65.1953C65.1953 6.08338 64.7832 4.20202 63.9527 2.83367C63.1002 1.42896 61.7911 0.56 60.1553 0.56V2.56ZM63.1953 8.28C63.1953 10.2741 62.8172 11.7579 62.2424 12.707C61.6899 13.6193 60.9792 14.02 60.1553 14.02V16.02C61.7914 16.02 63.1007 15.1507 63.9532 13.743C64.7834 12.3721 65.1953 10.4859 65.1953 8.28H63.1953ZM60.1553 14.02C59.3459 14.02 58.6451 13.6239 58.0981 12.711C57.5291 11.7612 57.1553 10.276 57.1553 8.28H55.1553C55.1553 10.484 55.5616 12.3688 56.3825 13.739C57.2255 15.1461 58.5247 16.02 60.1553 16.02V14.02ZM57.1553 8.28C57.1553 6.29476 57.5288 4.81464 58.0976 3.86727C58.6445 2.95643 59.3456 2.56 60.1553 2.56V0.56C58.5251 0.56 57.2261 1.43357 56.383 2.83773C55.5618 4.20536 55.1553 6.08524 55.1553 8.28H57.1553ZM60.1553 3.06C59.0512 3.06 58.3928 3.87985 58.0569 4.75374C57.7213 5.62695 57.5753 6.82704 57.5753 8.28H59.5753C59.5753 6.91296 59.7194 6.00304 59.9237 5.47126C60.024 5.21038 60.1159 5.10177 60.1551 5.06646C60.1715 5.05171 60.1751 5.05283 60.1657 5.05653C60.1556 5.06047 60.1496 5.06 60.1553 5.06V3.06ZM57.5753 8.28C57.5753 9.74195 57.721 10.9431 58.0573 11.8149C58.3959 12.6927 59.0567 13.5 60.1553 13.5V11.5C60.1478 11.5 60.1526 11.4992 60.162 11.5029C60.1709 11.5063 60.1676 11.5074 60.1518 11.4934C60.114 11.4597 60.0231 11.3538 59.9233 11.0951C59.7196 10.5669 59.5753 9.65805 59.5753 8.28H57.5753ZM60.1553 13.5C61.2567 13.5 61.9345 12.7156 62.2861 11.8207C62.6299 10.9454 62.7753 9.74079 62.7753 8.28H60.7753C60.7753 9.65921 60.6307 10.5646 60.4246 11.0893C60.3241 11.345 60.2322 11.4497 60.1925 11.4841C60.1715 11.5022 60.172 11.5 60.1553 11.5V13.5ZM62.7753 8.28C62.7753 6.82818 62.6297 5.62466 62.2865 4.74798C61.9377 3.85681 61.2623 3.06 60.1553 3.06V5.06C60.1682 5.06 60.1669 5.05634 60.1892 5.07582C60.2304 5.1118 60.3231 5.21906 60.4241 5.47702C60.6309 6.00534 60.7753 6.91182 60.7753 8.28H62.7753ZM87.8138 0.26V-0.74H86.8138V0.26H87.8138ZM90.3538 0.26H91.3538V-0.74H90.3538V0.26ZM90.3538 18.78V19.78H91.3538V18.78H90.3538ZM87.8138 18.78H86.8138V19.78H87.8138V18.78ZM80.4738 7.36V6.36H79.4738V7.36H80.4738ZM84.4338 7.36H85.4338V6.36H84.4338V7.36ZM84.4338 9.46V10.46H85.4338V9.46H84.4338ZM80.4738 9.46H79.4738V10.46H80.4738V9.46ZM83.9138 0.659999V-0.340001H82.9138V0.659999H83.9138ZM86.3938 0.659999H87.3938V-0.340001H86.3938V0.659999ZM86.3938 17.96V18.96H87.3938V17.96H86.3938ZM83.9138 17.96H82.9138V18.96H83.9138V17.96ZM79.8738 2.44V1.44H78.8738V2.44H79.8738ZM82.4338 2.44H83.4338V1.44H82.4338V2.44ZM75.6538 14.94L74.8753 15.5678L75.414 16.2357L76.156 15.8047L75.6538 14.94ZM74.1538 13.08L73.6381 12.2232L72.6552 12.8148L73.3753 13.7078L74.1538 13.08ZM75.1938 2.44V1.44H74.1938V2.44H75.1938ZM80.7138 2.44H81.7138V1.44H80.7138V2.44ZM80.7138 4.56V5.56H81.7138V4.56H80.7138ZM75.1938 4.56H74.1938V5.56H75.1938V4.56ZM87.8138 1.26H90.3538V-0.74H87.8138V1.26ZM89.3538 0.26V18.78H91.3538V0.26H89.3538ZM90.3538 17.78H87.8138V19.78H90.3538V17.78ZM88.8138 18.78V0.26H86.8138V18.78H88.8138ZM80.4738 8.36H84.4338V6.36H80.4738V8.36ZM83.4338 7.36V9.46H85.4338V7.36H83.4338ZM84.4338 8.46H80.4738V10.46H84.4338V8.46ZM81.4738 9.46V7.36H79.4738V9.46H81.4738ZM83.9138 1.66H86.3938V-0.340001H83.9138V1.66ZM85.3938 0.659999V17.96H87.3938V0.659999H85.3938ZM86.3938 16.96H83.9138V18.96H86.3938V16.96ZM84.9138 17.96V0.659999H82.9138V17.96H84.9138ZM79.8738 3.44H82.4338V1.44H79.8738V3.44ZM81.4338 2.44C81.4338 4.985 81.0522 7.1868 80.0995 9.08986C79.1532 10.9803 77.6065 12.6495 75.1515 14.0753L76.156 15.8047C78.901 14.2105 80.7443 12.2697 81.888 9.98514C83.0253 7.7132 83.4338 5.17499 83.4338 2.44H81.4338ZM76.4322 14.3122L74.9322 12.4522L73.3753 13.7078L74.8753 15.5678L76.4322 14.3122ZM74.6694 13.9368C76.8899 12.6003 78.4653 11.078 79.4733 9.23794C80.4799 7.40039 80.8738 5.33128 80.8738 2.98H78.8738C78.8738 5.10872 78.5176 6.81961 77.7192 8.27706C76.9222 9.73201 75.6376 11.0197 73.6381 12.2232L74.6694 13.9368ZM80.8738 2.98V2.44H78.8738V2.98H80.8738ZM75.1938 3.44H80.7138V1.44H75.1938V3.44ZM79.7138 2.44V4.56H81.7138V2.44H79.7138ZM80.7138 3.56H75.1938V5.56H80.7138V3.56ZM76.1938 4.56V2.44H74.1938V4.56H76.1938ZM110.321 0.239999V-0.760001H109.321V0.239999H110.321ZM112.961 0.239999H113.961V-0.760001H112.961V0.239999ZM112.961 18.82V19.82H113.961V18.82H112.961ZM110.321 18.82H109.321V19.82H110.321V18.82ZM106.501 6.92V5.92H105.501V6.92H106.501ZM111.441 6.92H112.441V5.92H111.441V6.92ZM111.441 9.06V10.06H112.441V9.06H111.441ZM106.501 9.06H105.501V10.06H106.501V9.06ZM102.501 2.54C103.539 2.54 104.446 3.00914 105.123 3.92106C105.814 4.85215 106.281 6.27646 106.281 8.14H108.281C108.281 5.96354 107.738 4.08785 106.729 2.72893C105.706 1.35085 104.223 0.539999 102.501 0.539999V2.54ZM106.281 8.14C106.281 10.0255 105.813 11.46 105.122 12.3956C104.445 13.3113 103.539 13.78 102.501 13.78V15.78C104.223 15.78 105.707 14.9687 106.73 13.5844C107.739 12.22 108.281 10.3345 108.281 8.14H106.281ZM102.501 13.78C101.452 13.78 100.547 13.3101 99.8736 12.3967C99.1848 11.4621 98.7211 10.0277 98.7211 8.14H96.7211C96.7211 10.3323 97.2574 12.2179 98.2636 13.5833C99.2854 14.9699 100.77 15.78 102.501 15.78V13.78ZM98.7211 8.14C98.7211 6.27428 99.1839 4.85013 99.8724 3.91993C100.546 3.01035 101.451 2.54 102.501 2.54V0.539999C100.771 0.539999 99.2866 1.34965 98.2648 2.73007C97.2583 4.08987 96.7211 5.96572 96.7211 8.14H98.7211ZM102.501 2.96C101.394 2.96 100.534 3.5923 100.005 4.54357C99.4972 5.45547 99.2611 6.69174 99.2611 8.14H101.261C101.261 6.86826 101.475 6.01453 101.752 5.51643C102.008 5.0577 102.268 4.96 102.501 4.96V2.96ZM99.2611 8.14C99.2611 9.60655 99.4967 10.8557 100.002 11.7762C100.528 12.7351 101.387 13.38 102.501 13.38V11.38C102.275 11.38 102.014 11.2849 101.755 10.8138C101.476 10.3043 101.261 9.43345 101.261 8.14H99.2611ZM102.501 13.38C103.622 13.38 104.483 12.7382 105.009 11.7739C105.512 10.8525 105.741 9.60311 105.741 8.14H103.741C103.741 9.43689 103.531 10.3075 103.253 10.8161C102.999 11.2818 102.74 11.38 102.501 11.38V13.38ZM105.741 8.14C105.741 6.69524 105.511 5.45875 105.006 4.54594C104.477 3.5892 103.615 2.96 102.501 2.96V4.96C102.747 4.96 103.005 5.0608 103.256 5.51406C103.531 6.01125 103.741 6.86476 103.741 8.14H105.741ZM110.321 1.24H112.961V-0.760001H110.321V1.24ZM111.961 0.239999V18.82H113.961V0.239999H111.961ZM112.961 17.82H110.321V19.82H112.961V17.82ZM111.321 18.82V0.239999H109.321V18.82H111.321ZM106.501 7.92H111.441V5.92H106.501V7.92ZM110.441 6.92V9.06H112.441V6.92H110.441ZM111.441 8.06H106.501V10.06H111.441V8.06ZM107.501 9.06V6.92H105.501V9.06H107.501ZM118.66 16.34V15.34H117.66V16.34H118.66ZM131.96 16.34H132.96V15.34H131.96V16.34ZM131.96 18.46V19.46H132.96V18.46H131.96ZM118.66 18.46H117.66V19.46H118.66V18.46ZM118.66 12.54V11.54H117.66V12.54H118.66ZM121.34 12.54H122.34V11.54H121.34V12.54ZM121.34 17.66V18.66H122.34V17.66H121.34ZM118.66 17.66H117.66V18.66H118.66V17.66ZM128.86 0.279999V-0.720001H127.86V0.279999H128.86ZM131.5 0.279999H132.5V-0.720001H131.5V0.279999ZM131.5 13.68V14.68H132.5V13.68H131.5ZM128.86 13.68H127.86V14.68H128.86V13.68ZM126.42 5.14V4.14H125.42V5.14H126.42ZM131.14 5.14H132.14V4.14H131.14V5.14ZM131.14 7.26V8.26H132.14V7.26H131.14ZM126.42 7.26H125.42V8.26H126.42V7.26ZM116.08 8.96V7.96H115.08V8.96H116.08ZM121.04 8.64L122.035 8.54695L121.931 7.43542L120.838 7.66054L121.04 8.64ZM121.24 10.78L121.443 11.759L122.318 11.5767L122.235 10.6869L121.24 10.78ZM116.08 11.08H115.08V12.08H116.08V11.08ZM116.08 1.66V0.66H115.08V1.66H116.08ZM120.94 1.66H121.94V0.66H120.94V1.66ZM120.94 3.78V4.78H121.94V3.78H120.94ZM118.7 3.78V2.78H117.7V3.78H118.7ZM118.7 9.36V10.36H119.7V9.36H118.7ZM116.08 9.36H115.08V10.36H116.08V9.36ZM121.82 8.96V7.96H120.82V8.96H121.82ZM127.38 8.62L128.374 8.51773L128.256 7.37003L127.137 7.64986L127.38 8.62ZM127.6 10.76L127.813 11.7369L128.686 11.5461L128.594 10.6577L127.6 10.76ZM121.82 11.08H120.82V12.08H121.82V11.08ZM121.82 1.66V0.66H120.82V1.66H121.82ZM126.96 1.66H127.96V0.66H126.96V1.66ZM126.96 3.78V4.78H127.96V3.78H126.96ZM124.42 3.78V2.78H123.42V3.78H124.42ZM124.42 9.34V10.34H125.42V9.34H124.42ZM121.82 9.34H120.82V10.34H121.82V9.34ZM118.66 17.34H131.96V15.34H118.66V17.34ZM130.96 16.34V18.46H132.96V16.34H130.96ZM131.96 17.46H118.66V19.46H131.96V17.46ZM119.66 18.46V16.34H117.66V18.46H119.66ZM118.66 13.54H121.34V11.54H118.66V13.54ZM120.34 12.54V17.66H122.34V12.54H120.34ZM121.34 16.66H118.66V18.66H121.34V16.66ZM119.66 17.66V12.54H117.66V17.66H119.66ZM128.86 1.28H131.5V-0.720001H128.86V1.28ZM130.5 0.279999V13.68H132.5V0.279999H130.5ZM131.5 12.68H128.86V14.68H131.5V12.68ZM129.86 13.68V0.279999H127.86V13.68H129.86ZM126.42 6.14H131.14V4.14H126.42V6.14ZM130.14 5.14V7.26H132.14V5.14H130.14ZM131.14 6.26H126.42V8.26H131.14V6.26ZM127.42 7.26V5.14H125.42V7.26H127.42ZM116.08 9.96H117.02V7.96H116.08V9.96ZM117.02 9.96C118.599 9.96 119.78 9.92028 121.241 9.61946L120.838 7.66054C119.579 7.91972 118.56 7.96 117.02 7.96V9.96ZM120.044 8.73305L120.244 10.8731L122.235 10.6869L122.035 8.54695L120.044 8.73305ZM121.036 9.80102C119.71 10.0772 118.688 10.08 117.02 10.08V12.08C118.672 12.08 119.889 12.0828 121.443 11.759L121.036 9.80102ZM117.02 10.08H116.08V12.08H117.02V10.08ZM117.08 11.08V8.96H115.08V11.08H117.08ZM116.08 2.66H120.94V0.66H116.08V2.66ZM119.94 1.66V3.78H121.94V1.66H119.94ZM120.94 2.78H118.7V4.78H120.94V2.78ZM117.7 3.78V9.36H119.7V3.78H117.7ZM118.7 8.36H116.08V10.36H118.7V8.36ZM117.08 9.36V1.66H115.08V9.36H117.08ZM121.82 9.96H122.82V7.96H121.82V9.96ZM122.82 9.96C125.152 9.96 126.287 9.92379 127.622 9.59014L127.137 7.64986C126.072 7.91621 125.167 7.96 122.82 7.96V9.96ZM126.385 8.72226L126.605 10.8623L128.594 10.6577L128.374 8.51773L126.385 8.72226ZM127.386 9.7831C126.224 10.0374 125.263 10.08 122.82 10.08V12.08C125.256 12.08 126.416 12.0426 127.813 11.7369L127.386 9.7831ZM122.82 10.08H121.82V12.08H122.82V10.08ZM122.82 11.08V8.96H120.82V11.08H122.82ZM121.82 2.66H126.96V0.66H121.82V2.66ZM125.96 1.66V3.78H127.96V1.66H125.96ZM126.96 2.78H124.42V4.78H126.96V2.78ZM123.42 3.78V9.34H125.42V3.78H123.42ZM124.42 8.34H121.82V10.34H124.42V8.34ZM122.82 9.34V1.66H120.82V9.34H122.82ZM136.278 1V-2.38419e-07H135.278V1H136.278ZM148.018 1H149.018V-2.38419e-07H148.018V1ZM148.018 3.1V4.1H149.018V3.1H148.018ZM136.278 3.1H135.278V4.1H136.278V3.1ZM134.238 6.78V5.78H133.238V6.78H134.238ZM150.998 6.78H151.998V5.78H150.998V6.78ZM150.998 8.88V9.88H151.998V8.88H150.998ZM134.238 8.88H133.238V9.88H134.238V8.88ZM146.418 1V-2.38419e-07H145.418V1H146.418ZM149.038 1H150.038V-2.38419e-07H149.038V1ZM148.558 7.4L148.467 8.39583L149.341 8.47596L149.534 7.61886L148.558 7.4ZM145.938 7.16L144.963 6.93718L144.708 8.05155L145.847 8.15583L145.938 7.16ZM136.098 10.14V9.14H135.098V10.14H136.098ZM148.978 10.14H149.978V9.14H148.978V10.14ZM148.978 15.36V16.36H149.978V15.36H148.978ZM138.778 15.36V14.36H137.778V15.36H138.778ZM138.778 17.24V18.24H139.778V17.24H138.778ZM136.118 17.24H135.118V18.24H136.118V17.24ZM136.118 13.4V12.4H135.118V13.4H136.118ZM146.338 13.4V14.4H147.338V13.4H146.338ZM146.338 12.2H147.338V11.2H146.338V12.2ZM136.098 12.2H135.098V13.2H136.098V12.2ZM136.118 16.6V15.6H135.118V16.6H136.118ZM149.458 16.6H150.458V15.6H149.458V16.6ZM149.458 18.66V19.66H150.458V18.66H149.458ZM136.118 18.66H135.118V19.66H136.118V18.66ZM136.278 2H148.018V-2.38419e-07H136.278V2ZM147.018 1V3.1H149.018V1H147.018ZM148.018 2.1H136.278V4.1H148.018V2.1ZM137.278 3.1V1H135.278V3.1H137.278ZM134.238 7.78H150.998V5.78H134.238V7.78ZM149.998 6.78V8.88H151.998V6.78H149.998ZM150.998 7.88H134.238V9.88H150.998V7.88ZM135.238 8.88V6.78H133.238V8.88H135.238ZM146.418 2H149.038V-2.38419e-07H146.418V2ZM148.038 1V2.26H150.038V1H148.038ZM148.038 2.26C148.038 3.56981 148.036 5.15592 147.582 7.18114L149.534 7.61886C150.039 5.36408 150.038 3.59019 150.038 2.26H148.038ZM148.649 6.40417L146.029 6.16417L145.847 8.15583L148.467 8.39583L148.649 6.40417ZM146.913 7.38282C147.419 5.16884 147.418 3.57632 147.418 2.26H145.418C145.418 3.54367 145.417 4.95116 144.963 6.93718L146.913 7.38282ZM147.418 2.26V1H145.418V2.26H147.418ZM136.098 11.14H148.978V9.14H136.098V11.14ZM147.978 10.14V15.36H149.978V10.14H147.978ZM148.978 14.36H138.778V16.36H148.978V14.36ZM137.778 15.36V17.24H139.778V15.36H137.778ZM138.778 16.24H136.118V18.24H138.778V16.24ZM137.118 17.24V13.4H135.118V17.24H137.118ZM136.118 14.4H146.338V12.4H136.118V14.4ZM147.338 13.4V12.2H145.338V13.4H147.338ZM146.338 11.2H136.098V13.2H146.338V11.2ZM137.098 12.2V10.14H135.098V12.2H137.098ZM136.118 17.6H149.458V15.6H136.118V17.6ZM148.458 16.6V18.66H150.458V16.6H148.458ZM149.458 17.66H136.118V19.66H149.458V17.66ZM137.118 18.66V16.6H135.118V18.66H137.118ZM152.616 7.7V6.7H151.616V7.7H152.616ZM169.356 7.7H170.356V6.7H169.356V7.7ZM169.356 9.8V10.8H170.356V9.8H169.356ZM152.616 9.8H151.616V10.8H152.616V9.8ZM154.536 10.84V9.84H153.536V10.84H154.536ZM167.336 10.84H168.336V9.84H167.336V10.84ZM167.336 15.6V16.6H168.336V15.6H167.336ZM157.176 15.6V14.6H156.176V15.6H157.176ZM157.176 17.24V18.24H158.176V17.24H157.176ZM154.556 17.24H153.556V18.24H154.556V17.24ZM154.556 13.76V12.76H153.556V13.76H154.556ZM164.716 13.76V14.76H165.716V13.76H164.716ZM164.716 12.82H165.716V11.82H164.716V12.82ZM154.536 12.82H153.536V13.82H154.536V12.82ZM154.556 16.66V15.66H153.556V16.66H154.556ZM167.816 16.66H168.816V15.66H167.816V16.66ZM167.816 18.66V19.66H168.816V18.66H167.816ZM154.556 18.66H153.556V19.66H154.556V18.66ZM160.996 1.52C163.043 1.52 164.55 1.79534 165.506 2.24133C166.429 2.67155 166.696 3.172 166.696 3.68H168.696C168.696 2.148 167.724 1.06845 166.351 0.428665C165.013 -0.195342 163.17 -0.480001 160.996 -0.480001V1.52ZM166.696 3.68C166.696 4.188 166.429 4.68845 165.506 5.11867C164.55 5.56466 163.043 5.84 160.996 5.84V7.84C163.17 7.84 165.013 7.55534 166.351 6.93133C167.724 6.29155 168.696 5.212 168.696 3.68H166.696ZM160.996 5.84C158.939 5.84 157.433 5.56446 156.48 5.11902C155.563 4.69047 155.296 4.19124 155.296 3.68H153.296C153.296 5.20876 154.26 6.28953 155.633 6.93098C156.97 7.55554 158.814 7.84 160.996 7.84V5.84ZM155.296 3.68C155.296 3.16876 155.563 2.66953 156.48 2.24098C157.433 1.79554 158.939 1.52 160.996 1.52V-0.480001C158.814 -0.480001 156.97 -0.19554 155.633 0.429019C154.26 1.07047 153.296 2.15124 153.296 3.68H155.296ZM160.996 1.46C159.634 1.46 158.524 1.55858 157.724 1.80776C157.322 1.93289 156.919 2.1196 156.604 2.42027C156.261 2.74798 156.056 3.18247 156.056 3.68H158.056C158.056 3.76753 158.009 3.84452 157.986 3.8666C157.985 3.86729 158.005 3.84876 158.061 3.81908C158.118 3.7895 158.201 3.754 158.319 3.71724C158.819 3.56142 159.679 3.46 160.996 3.46V1.46ZM156.056 3.68C156.056 4.17404 156.251 4.61489 156.6 4.95238C156.919 5.26071 157.328 5.4469 157.731 5.56931C158.531 5.81236 159.641 5.9 160.996 5.9V3.9C159.672 3.9 158.812 3.80764 158.312 3.65569C158.195 3.62006 158.113 3.58566 158.059 3.55732C158.005 3.52899 157.988 3.51192 157.99 3.5145C158.019 3.54261 158.056 3.61596 158.056 3.68H156.056ZM160.996 5.9C162.352 5.9 163.462 5.81236 164.262 5.56931C164.665 5.4469 165.074 5.26071 165.393 4.95238C165.742 4.61489 165.936 4.17404 165.936 3.68H163.936C163.936 3.61596 163.974 3.54261 164.003 3.5145C164.005 3.51193 163.988 3.52899 163.934 3.55732C163.88 3.58566 163.798 3.62006 163.681 3.65569C163.181 3.80764 162.321 3.9 160.996 3.9V5.9ZM165.936 3.68C165.936 3.18247 165.731 2.74798 165.388 2.42027C165.074 2.1196 164.67 1.93289 164.269 1.80776C163.469 1.55858 162.359 1.46 160.996 1.46V3.46C162.314 3.46 163.174 3.56142 163.674 3.71724C163.792 3.754 163.875 3.7895 163.932 3.81908C163.988 3.84876 164.008 3.86729 164.007 3.8666C163.984 3.84452 163.936 3.76753 163.936 3.68H165.936ZM152.616 8.7H169.356V6.7H152.616V8.7ZM168.356 7.7V9.8H170.356V7.7H168.356ZM169.356 8.8H152.616V10.8H169.356V8.8ZM153.616 9.8V7.7H151.616V9.8H153.616ZM154.536 11.84H167.336V9.84H154.536V11.84ZM166.336 10.84V15.6H168.336V10.84H166.336ZM167.336 14.6H157.176V16.6H167.336V14.6ZM156.176 15.6V17.24H158.176V15.6H156.176ZM157.176 16.24H154.556V18.24H157.176V16.24ZM155.556 17.24V13.76H153.556V17.24H155.556ZM154.556 14.76H164.716V12.76H154.556V14.76ZM165.716 13.76V12.82H163.716V13.76H165.716ZM164.716 11.82H154.536V13.82H164.716V11.82ZM155.536 12.82V10.84H153.536V12.82H155.536ZM154.556 17.66H167.816V15.66H154.556V17.66ZM166.816 16.66V18.66H168.816V16.66H166.816ZM167.816 17.66H154.556V19.66H167.816V17.66ZM155.556 18.66V16.66H153.556V18.66H155.556ZM179.004 1.58V0.579999H178.004V1.58H179.004ZM181.024 1.58H182.024V0.579999H181.024V1.58ZM176.904 11.22L176.082 11.7901L176.549 12.4629L177.301 12.1379L176.904 11.22ZM175.544 9.26L175.141 8.34468L174.031 8.8333L174.722 9.83008L175.544 9.26ZM179.644 1.58V0.579999H178.644V1.58H179.644ZM181.664 1.58H182.664V0.579999H181.664V1.58ZM185.144 9.38L186.024 9.8536L186.533 8.90815L185.554 8.46795L185.144 9.38ZM184.004 11.5L183.622 12.4241L184.457 12.7694L184.884 11.9736L184.004 11.5ZM186.364 1.58V0.579999H185.364V1.58H186.364ZM188.364 1.58H189.364V0.579999H188.364V1.58ZM184.004 11.5L183.12 11.9671L183.543 12.7677L184.381 12.4261L184.004 11.5ZM182.884 9.38L182.477 8.46648L181.5 8.90153L182 9.84712L182.884 9.38ZM187.024 1.58V0.579999H186.024V1.58H187.024ZM189.044 1.58H190.044V0.579999H189.044V1.58ZM192.504 9.26L193.321 9.8357L194.032 8.82687L192.898 8.34085L192.504 9.26ZM191.124 11.22L190.732 12.1401L191.476 12.4568L191.941 11.7957L191.124 11.22ZM175.644 14.34V13.34H174.644V14.34H175.644ZM192.404 14.34H193.404V13.34H192.404V14.34ZM192.404 16.5V17.5H193.404V16.5H192.404ZM175.644 16.5H174.644V17.5H175.644V16.5ZM179.004 2.58H181.024V0.579999H179.004V2.58ZM180.024 1.58V3.68H182.024V1.58H180.024ZM180.024 3.68C180.024 6.66949 178.942 9.24929 176.507 10.3021L177.301 12.1379C180.786 10.6307 182.024 7.05051 182.024 3.68H180.024ZM177.725 10.6499L176.365 8.68992L174.722 9.83008L176.082 11.7901L177.725 10.6499ZM175.946 10.1753C178.903 8.87429 180.004 6.12265 180.004 3.68H178.004C178.004 5.55735 177.184 7.44571 175.141 8.34468L175.946 10.1753ZM180.004 3.68V1.58H178.004V3.68H180.004ZM179.644 2.58H181.664V0.579999H179.644V2.58ZM180.664 1.58V3.68H182.664V1.58H180.664ZM180.664 3.68C180.664 6.05984 181.687 8.92213 184.734 10.2921L185.554 8.46795C183.441 7.51787 182.664 5.54016 182.664 3.68H180.664ZM184.263 8.9064L183.123 11.0264L184.884 11.9736L186.024 9.8536L184.263 8.9064ZM184.386 10.5759C181.697 9.46369 180.644 6.64896 180.644 3.68H178.644C178.644 6.99104 179.831 10.8563 183.622 12.4241L184.386 10.5759ZM180.644 3.68V1.58H178.644V3.68H180.644ZM186.364 2.58H188.364V0.579999H186.364V2.58ZM187.364 1.58V3.68H189.364V1.58H187.364ZM187.364 3.68C187.364 6.69102 186.31 9.4806 183.626 10.5739L184.381 12.4261C188.177 10.8794 189.364 7.02898 189.364 3.68H187.364ZM184.888 11.0329L183.768 8.91288L182 9.84712L183.12 11.9671L184.888 11.0329ZM183.291 10.2935C186.318 8.94532 187.364 6.10306 187.364 3.68H185.364C185.364 5.57694 184.569 7.53468 182.477 8.46648L183.291 10.2935ZM187.364 3.68V1.58H185.364V3.68H187.364ZM187.024 2.58H189.044V0.579999H187.024V2.58ZM188.044 1.58V3.68H190.044V1.58H188.044ZM188.044 3.68C188.044 6.19969 189.123 8.89904 192.11 10.1791L192.898 8.34085C190.845 7.46096 190.044 5.64031 190.044 3.68H188.044ZM191.686 8.6843L190.306 10.6443L191.941 11.7957L193.321 9.8357L191.686 8.6843ZM191.515 10.2999C189.089 9.26686 188.024 6.75452 188.024 3.68H186.024C186.024 7.12548 187.239 10.6531 190.732 12.1401L191.515 10.2999ZM188.024 3.68V1.58H186.024V3.68H188.024ZM175.644 15.34H192.404V13.34H175.644V15.34ZM191.404 14.34V16.5H193.404V14.34H191.404ZM192.404 15.5H175.644V17.5H192.404V15.5ZM176.644 16.5V14.34H174.644V16.5H176.644ZM198.562 1.68V0.679999H197.562V1.68H198.562ZM200.722 1.68H201.722V0.679999H200.722V1.68ZM195.402 15.14L194.59 15.7233L195.072 16.3942L195.822 16.0478L195.402 15.14ZM193.822 12.94L193.423 12.0229L192.287 12.517L193.01 13.5233L193.822 12.94ZM199.082 1.68V0.679999H198.082V1.68H199.082ZM201.242 1.68H202.242V0.679999H201.242V1.68ZM205.862 12.56L206.67 13.1491L207.408 12.1367L206.258 11.6415L205.862 12.56ZM204.302 14.7L203.886 15.6091L204.629 15.9496L205.11 15.2891L204.302 14.7ZM206.742 0.239999V-0.760001H205.742V0.239999H206.742ZM209.422 0.239999H210.422V-0.760001H209.422V0.239999ZM209.422 18.82V19.82H210.422V18.82H209.422ZM206.742 18.82H205.742V19.82H206.742V18.82ZM198.562 2.68H200.722V0.679999H198.562V2.68ZM199.722 1.68V4.38H201.722V1.68H199.722ZM199.722 4.38C199.722 8.98772 198.135 12.7762 194.983 14.2322L195.822 16.0478C200.03 14.1038 201.722 9.29228 201.722 4.38H199.722ZM196.214 14.5567L194.634 12.3567L193.01 13.5233L194.59 15.7233L196.214 14.5567ZM194.221 13.8571C197.945 12.2378 199.562 8.20026 199.562 4.38H197.562C197.562 7.75974 196.139 10.8422 193.423 12.0229L194.221 13.8571ZM199.562 4.38V1.68H197.562V4.38H199.562ZM199.082 2.68H201.242V0.679999H199.082V2.68ZM200.242 1.68V4.38H202.242V1.68H200.242ZM200.242 4.38C200.242 8.03036 201.806 11.9031 205.467 13.4785L206.258 11.6415C203.598 10.4969 202.242 7.56964 202.242 4.38H200.242ZM205.054 11.9709L203.494 14.1109L205.11 15.2891L206.67 13.1491L205.054 11.9709ZM204.719 13.7909C201.659 12.3891 200.082 8.76968 200.082 4.38H198.082C198.082 9.11032 199.786 13.7309 203.886 15.6091L204.719 13.7909ZM200.082 4.38V1.68H198.082V4.38H200.082ZM206.742 1.24H209.422V-0.760001H206.742V1.24ZM208.422 0.239999V18.82H210.422V0.239999H208.422ZM209.422 17.82H206.742V19.82H209.422V17.82ZM207.742 18.82V0.239999H205.742V18.82H207.742ZM226.261 7.26V6.26H225.261V7.26H226.261ZM229.521 7.26H230.521V6.26H229.521V7.26ZM229.521 9.44V10.44H230.521V9.44H229.521ZM226.261 9.44H225.261V10.44H226.261V9.44ZM224.281 0.239999V-0.760001H223.281V0.239999H224.281ZM226.961 0.239999H227.961V-0.760001H226.961V0.239999ZM226.961 18.76V19.76H227.961V18.76H226.961ZM224.281 18.76H223.281V19.76H224.281V18.76ZM213.001 2.02V1.02H212.001V2.02H213.001ZM215.661 2.02H216.661V1.02H215.661V2.02ZM215.661 13.52V14.52H216.661V13.52H215.661ZM213.001 13.52H212.001V14.52H213.001V13.52ZM213.001 12.04V11.04H212.001V12.04H213.001ZM223.081 11.26L224.072 11.1326L223.936 10.0678L222.883 10.2797L223.081 11.26ZM223.361 13.44L223.565 14.4188L224.47 14.2296L224.352 13.3126L223.361 13.44ZM213.001 14.24H212.001V15.24H213.001V14.24ZM226.261 8.26H229.521V6.26H226.261V8.26ZM228.521 7.26V9.44H230.521V7.26H228.521ZM229.521 8.44H226.261V10.44H229.521V8.44ZM227.261 9.44V7.26H225.261V9.44H227.261ZM224.281 1.24H226.961V-0.760001H224.281V1.24ZM225.961 0.239999V18.76H227.961V0.239999H225.961ZM226.961 17.76H224.281V19.76H226.961V17.76ZM225.281 18.76V0.239999H223.281V18.76H225.281ZM213.001 3.02H215.661V1.02H213.001V3.02ZM214.661 2.02V13.52H216.661V2.02H214.661ZM215.661 12.52H213.001V14.52H215.661V12.52ZM214.001 13.52V2.02H212.001V13.52H214.001ZM213.001 13.04H214.601V11.04H213.001V13.04ZM214.601 13.04C217.285 13.04 220.215 12.8571 223.278 12.2403L222.883 10.2797C219.986 10.8629 217.196 11.04 214.601 11.04V13.04ZM222.089 11.3874L222.369 13.5674L224.352 13.3126L224.072 11.1326L222.089 11.3874ZM223.156 12.4612C220.189 13.0818 217.284 13.24 214.601 13.24V15.24C217.358 15.24 220.413 15.0782 223.565 14.4188L223.156 12.4612ZM214.601 13.24H213.001V15.24H214.601V13.24ZM214.001 14.24V12.04H212.001V14.24H214.001ZM234.539 9.66V8.66H233.539V9.66H234.539ZM237.179 9.66H238.179V8.66H237.179V9.66ZM237.179 14.86V15.86H238.179V14.86H237.179ZM234.539 14.86H233.539V15.86H234.539V14.86ZM241.259 9.66V8.66H240.259V9.66H241.259ZM243.919 9.66H244.919V8.66H243.919V9.66ZM243.919 14.86V15.86H244.919V14.86H243.919ZM241.259 14.86H240.259V15.86H241.259V14.86ZM230.859 14.48V13.48H229.859V14.48H230.859ZM247.619 14.48H248.619V13.48H247.619V14.48ZM247.619 16.64V17.64H248.619V16.64H247.619ZM230.859 16.64H229.859V17.64H230.859V16.64ZM234.539 10.66H237.179V8.66H234.539V10.66ZM236.179 9.66V14.86H238.179V9.66H236.179ZM237.179 13.86H234.539V15.86H237.179V13.86ZM235.539 14.86V9.66H233.539V14.86H235.539ZM241.259 10.66H243.919V8.66H241.259V10.66ZM242.919 9.66V14.86H244.919V9.66H242.919ZM243.919 13.86H241.259V15.86H243.919V13.86ZM242.259 14.86V9.66H240.259V14.86H242.259ZM230.859 15.48H247.619V13.48H230.859V15.48ZM246.619 14.48V16.64H248.619V14.48H246.619ZM247.619 15.64H230.859V17.64H247.619V15.64ZM231.859 16.64V14.48H229.859V16.64H231.859ZM239.219 2.16C241.058 2.16 242.572 2.61433 243.596 3.33525C244.598 4.0404 245.139 4.99646 245.139 6.14H247.139C247.139 4.26354 246.21 2.7296 244.747 1.69975C243.306 0.685668 241.36 0.159999 239.219 0.159999V2.16ZM245.139 6.14C245.139 7.28262 244.599 8.23299 243.598 8.93319C242.574 9.64971 241.06 10.1 239.219 10.1V12.1C241.358 12.1 243.304 11.5803 244.745 10.5718C246.209 9.54701 247.139 8.01738 247.139 6.14H245.139ZM239.219 10.1C237.368 10.1 235.854 9.64933 234.833 8.93374C233.837 8.23492 233.299 7.28509 233.299 6.14H231.299C231.299 8.01491 232.221 9.54507 233.685 10.5713C235.124 11.5807 237.071 12.1 239.219 12.1V10.1ZM233.299 6.14C233.299 4.99399 233.838 4.03846 234.835 3.3347C235.856 2.61472 237.37 2.16 239.219 2.16V0.159999C237.069 0.159999 235.122 0.68528 233.683 1.7003C232.221 2.73154 231.299 4.26601 231.299 6.14H233.299ZM239.219 2.24C237.811 2.24 236.522 2.52644 235.552 3.16455C234.542 3.82912 233.919 4.85642 233.919 6.14H235.919C235.919 5.58358 236.156 5.16087 236.651 4.83545C237.186 4.48356 238.047 4.24 239.219 4.24V2.24ZM233.919 6.14C233.919 7.41607 234.544 8.44142 235.55 9.10668C236.519 9.74719 237.807 10.04 239.219 10.04V8.04C238.051 8.04 237.189 7.79281 236.653 7.43832C236.154 7.10858 235.919 6.68393 235.919 6.14H233.919ZM239.219 10.04C240.631 10.04 241.919 9.74719 242.888 9.10668C243.894 8.44142 244.519 7.41607 244.519 6.14H242.519C242.519 6.68393 242.284 7.10858 241.785 7.43832C241.249 7.79281 240.387 8.04 239.219 8.04V10.04ZM244.519 6.14C244.519 4.85642 243.896 3.82912 242.886 3.16455C241.916 2.52644 240.627 2.24 239.219 2.24V4.24C240.391 4.24 241.252 4.48356 241.787 4.83545C242.282 5.16087 242.519 5.58358 242.519 6.14H244.519ZM252.244 12.6392H251.244V13.6392H252.244V12.6392ZM252.244 12.3977L251.244 12.392V12.3977H252.244ZM252.464 10.4162L251.506 10.1305L251.504 10.139L252.464 10.4162ZM254.112 8.39915L254.643 9.24665L254.654 9.23944L254.112 8.39915ZM254.901 7.80966L254.241 7.05803L254.241 7.05803L254.901 7.80966ZM255.455 7.13494L256.328 7.62203L256.332 7.61495L255.455 7.13494ZM255.426 5.4375L254.582 5.97332L254.582 5.97333L255.426 5.4375ZM254.794 4.86932L254.34 5.7605L254.347 5.76374L254.794 4.86932ZM253.054 4.87642L253.489 5.77706L253.501 5.77085L253.054 4.87642ZM252.379 5.47301L253.209 6.03121L253.214 6.02427L252.379 5.47301ZM252.095 6.44602V7.44602H253.059L253.095 6.48258L252.095 6.44602ZM249.197 6.44602L248.198 6.42103L248.172 7.44602H249.197V6.44602ZM249.879 4.10227L250.698 4.67574L250.701 4.67279L249.879 4.10227ZM251.591 2.71733L251.983 3.63712L251.989 3.63488L251.591 2.71733ZM256.442 2.72443L256.046 3.64266L256.051 3.64482L256.442 2.72443ZM258.146 4.06676L257.328 4.64111L257.328 4.64111L258.146 4.06676ZM258.487 7.66761L257.568 7.27369L257.566 7.27864L258.487 7.66761ZM257.727 8.80398L258.434 9.5111L258.439 9.50598L257.727 8.80398ZM256.57 9.69176L257.081 10.5512L257.081 10.5509L256.57 9.69176ZM255.646 10.3878L254.939 9.68064L254.932 9.68771L255.646 10.3878ZM255.114 11.2259L254.177 10.8762L254.172 10.8886L255.114 11.2259ZM254.936 12.3977L253.936 12.3875V12.3977H254.936ZM254.936 12.6392V13.6392H255.936V12.6392H254.936ZM252.436 16.6875L251.724 17.3896L251.729 17.3946L251.734 17.3996L252.436 16.6875ZM251.946 15.4801L252.946 15.4902L252.946 15.4801L252.946 15.4699L251.946 15.4801ZM252.436 14.2869L251.734 13.5748L251.729 13.5798L252.436 14.2869ZM254.837 14.2869L254.14 15.0039L254.14 15.0039L254.837 14.2869ZM255.355 15.4801L256.355 15.4953L256.355 15.4826L256.355 15.4699L255.355 15.4801ZM255.107 16.3395L254.256 15.8137L254.253 15.818L255.107 16.3395ZM254.489 16.9574L254.998 17.8178L255.01 17.8107L254.489 16.9574ZM253.244 12.6392V12.3977H251.244V12.6392H253.244ZM253.244 12.4034C253.249 11.6176 253.319 11.0603 253.425 10.6934L251.504 10.139C251.325 10.7569 251.249 11.5206 251.244 12.392L253.244 12.4034ZM253.423 10.7019C253.537 10.3203 253.685 10.0677 253.839 9.90081L252.368 8.54521C251.964 8.98443 251.686 9.52728 251.506 10.1305L253.423 10.7019ZM253.839 9.90081C254.051 9.67073 254.316 9.45138 254.643 9.24657L253.581 7.55172C253.122 7.83934 252.715 8.16923 252.368 8.54521L253.839 9.90081ZM254.654 9.23944C254.984 9.02683 255.287 8.80118 255.56 8.56128L254.241 7.05803C254.05 7.22533 253.828 7.39268 253.57 7.55885L254.654 9.23944ZM255.56 8.56129C255.87 8.28949 256.13 7.977 256.328 7.62201L254.581 6.64788C254.505 6.78531 254.395 6.92263 254.241 7.05803L255.56 8.56129ZM256.332 7.61495C256.556 7.20575 256.661 6.75931 256.661 6.29688H254.661C254.661 6.44997 254.628 6.56224 254.577 6.65493L256.332 7.61495ZM256.661 6.29688C256.661 5.80395 256.54 5.32689 256.27 4.90167L254.582 5.97333C254.624 6.04053 254.661 6.13639 254.661 6.29688H256.661ZM256.27 4.90168C256.015 4.49942 255.666 4.18729 255.241 3.97489L254.347 5.76374C254.452 5.8165 254.525 5.88316 254.582 5.97332L256.27 4.90168ZM255.248 3.97815C254.835 3.76804 254.389 3.67045 253.928 3.67045V5.67045C254.101 5.67045 254.232 5.70545 254.34 5.76048L255.248 3.97815ZM253.928 3.67045C253.465 3.67045 253.021 3.77508 252.607 3.98199L253.501 5.77085C253.637 5.70314 253.775 5.67045 253.928 5.67045V3.67045ZM252.619 3.97587C252.175 4.19014 251.815 4.51293 251.545 4.92175L253.214 6.02427C253.294 5.90279 253.383 5.82785 253.489 5.77697L252.619 3.97587ZM251.55 4.91483C251.248 5.36292 251.115 5.87913 251.096 6.40946L253.095 6.48258C253.104 6.2364 253.16 6.10394 253.209 6.03119L251.55 4.91483ZM252.095 5.44602H249.197V7.44602H252.095V5.44602ZM250.197 6.47101C250.217 5.66946 250.407 5.09279 250.698 4.67574L249.06 3.52881C248.49 4.34281 248.225 5.32865 248.198 6.42103L250.197 6.47101ZM250.701 4.67279C251.022 4.21056 251.442 3.8681 251.983 3.63711L251.198 1.79755C250.319 2.17262 249.599 2.75345 249.058 3.53176L250.701 4.67279ZM251.989 3.63488C252.56 3.38707 253.207 3.25568 253.942 3.25568V1.25568C252.963 1.25568 252.042 1.43206 251.193 1.79977L251.989 3.63488ZM253.942 3.25568C254.774 3.25568 255.468 3.39352 256.046 3.64264L256.838 1.80622C255.967 1.43034 254.994 1.25568 253.942 1.25568V3.25568ZM256.051 3.64482C256.62 3.88685 257.033 4.22177 257.328 4.64111L258.965 3.49241C258.435 2.73751 257.712 2.17754 256.833 1.80405L256.051 3.64482ZM257.328 4.64111C257.604 5.03487 257.764 5.53433 257.764 6.19034H259.764C259.764 5.18916 259.513 4.27289 258.965 3.49241L257.328 4.64111ZM257.764 6.19034C257.764 6.63313 257.691 6.9878 257.568 7.27369L259.406 8.06153C259.653 7.48569 259.764 6.8555 259.764 6.19034H257.764ZM257.566 7.27864C257.436 7.58741 257.253 7.86014 257.015 8.10198L258.439 9.50598C258.854 9.08494 259.179 8.60009 259.408 8.05658L257.566 7.27864ZM257.02 8.09687C256.759 8.35844 256.44 8.60485 256.058 8.83266L257.081 10.5509C257.589 10.2484 258.043 9.90292 258.434 9.51108L257.02 8.09687ZM256.058 8.83235C255.631 9.08635 255.253 9.36703 254.939 9.68068L256.353 11.0949C256.523 10.9256 256.76 10.7423 257.081 10.5512L256.058 8.83235ZM254.932 9.68771C254.597 10.0293 254.344 10.4281 254.177 10.8763L256.051 11.5754C256.12 11.3892 256.222 11.2293 256.36 11.0879L254.932 9.68771ZM254.172 10.8886C254.01 11.3421 253.942 11.851 253.936 12.3875L255.936 12.4079C255.94 12.0164 255.99 11.744 256.055 11.5631L254.172 10.8886ZM253.936 12.3977V12.6392H255.936V12.3977H253.936ZM254.936 11.6392H252.244V13.6392H254.936V11.6392ZM253.651 16.1847C253.439 16.1847 253.287 16.1217 253.138 15.9754L251.734 17.3996C252.258 17.9161 252.915 18.1847 253.651 18.1847V16.1847ZM253.148 15.9854C253.002 15.8373 252.944 15.6906 252.946 15.4902L250.946 15.47C250.939 16.2071 251.207 16.8653 251.724 17.3896L253.148 15.9854ZM252.946 15.4699C252.944 15.2777 253 15.1376 253.143 14.994L251.729 13.5798C251.21 14.0991 250.939 14.7545 250.946 15.4903L252.946 15.4699ZM253.138 14.999C253.287 14.8527 253.439 14.7898 253.651 14.7898V12.7898C252.915 12.7898 252.258 13.0583 251.734 13.5748L253.138 14.999ZM253.651 14.7898C253.824 14.7898 253.974 14.8425 254.14 15.0039L255.534 13.5699C255.018 13.0685 254.377 12.7898 253.651 12.7898V14.7898ZM254.14 15.0039C254.295 15.1547 254.353 15.3001 254.355 15.4903L256.355 15.4699C256.348 14.7321 256.06 14.0821 255.534 13.5699L254.14 15.0039ZM254.355 15.465C254.353 15.6008 254.32 15.7102 254.256 15.8137L255.957 16.8653C256.215 16.4479 256.348 15.9844 256.355 15.4953L254.355 15.465ZM254.253 15.818C254.18 15.9384 254.088 16.0306 253.967 16.1041L255.01 17.8107C255.401 17.5717 255.721 17.252 255.96 16.8609L254.253 15.818ZM253.979 16.0971C253.881 16.1553 253.778 16.1847 253.651 16.1847V18.1847C254.129 18.1847 254.585 18.0625 254.998 17.8177L253.979 16.0971Z" fill="#C5C5C5" mask="url(#path-1-outside-1_40_67)"/>
</svg>
