<svg width="90" height="63" viewBox="0 0 90 63" fill="none" xmlns="http://www.w3.org/2000/svg">
<rect x="0.0444336" width="89.9556" height="63" rx="10" fill="#2C2C2C"/>
<g clip-path="url(#clip0_30_2)">
<path fill-rule="evenodd" clip-rule="evenodd" d="M56.2491 20.1536L31.9463 28.5321L40.0427 33.0001L47.1819 26.1913C47.544 25.8463 48.0351 25.6525 48.5471 25.6527C49.059 25.6529 49.55 25.847 49.9119 26.1923C50.2738 26.5376 50.477 27.0058 50.4768 27.4939C50.4766 27.9821 50.2731 28.4502 49.9109 28.7952L42.7698 35.604L47.4598 43.3218L56.2491 20.1536ZM56.8725 16.0242C59.1788 15.2274 61.4138 17.3583 60.5781 19.5574L50.3838 46.4336C49.5461 48.6382 46.3886 48.9068 45.1553 46.8771L38.9465 36.6492L28.2194 30.7293C26.0906 29.5534 26.3724 26.5428 28.6846 25.7442L56.8725 16.0242Z" fill="white"/>
</g>
<defs>
<clipPath id="clip0_30_2">
<rect width="46.3204" height="44.165" fill="white" transform="translate(21.5264 9.09375)"/>
</clipPath>
</defs>
</svg>
